ISO-10303-21;
HEADER;
/* Generated by software containing ST-Developer
 * from STEP Tools, Inc. (www.steptools.com) 
 */

FILE_DESCRIPTION(
/* description */ (''),
/* implementation_level */ '2;1');

FILE_NAME(
/* name */ 'Buzzer_12x9.5RM7.6.step',
/* time_stamp */ '2026-05-13T01:39:31+05:30',
/* author */ (''),
/* organization */ (''),
/* preprocessor_version */ 'ST-DEVELOPER v20.1',
/* originating_system */ 'Autodesk Translation Framework v15.8.0.0',
/* authorisation */ '');

FILE_SCHEMA (('AUTOMOTIVE_DESIGN { 1 0 10303 214 3 1 1 }'));
ENDSEC;

DATA;
#10=MECHANICAL_DESIGN_GEOMETRIC_PRESENTATION_REPRESENTATION('',(#155,#156,
#157,#158,#159,#160,#161,#162,#163,#164,#165,#166,#167,#168),#338);
#11=SHAPE_REPRESENTATION_RELATIONSHIP('SRR','None',#345,#12);
#12=ADVANCED_BREP_SHAPE_REPRESENTATION('',(#13),#337);
#13=MANIFOLD_SOLID_BREP('Body1',#182);
#14=FACE_BOUND('',#43,.T.);
#15=FACE_BOUND('',#44,.T.);
#16=FACE_BOUND('',#46,.T.);
#17=PLANE('',#205);
#18=PLANE('',#208);
#19=PLANE('',#222);
#20=PLANE('',#223);
#21=PLANE('',#224);
#22=TOROIDAL_SURFACE('',#199,5.7,0.3);
#23=TOROIDAL_SURFACE('',#202,4.518518518519,1.481481481481);
#24=TOROIDAL_SURFACE('',#216,0.27,0.18);
#25=TOROIDAL_SURFACE('',#219,0.27,0.18);
#26=FACE_OUTER_BOUND('',#39,.T.);
#27=FACE_OUTER_BOUND('',#40,.T.);
#28=FACE_OUTER_BOUND('',#41,.T.);
#29=FACE_OUTER_BOUND('',#42,.T.);
#30=FACE_OUTER_BOUND('',#45,.T.);
#31=FACE_OUTER_BOUND('',#47,.T.);
#32=FACE_OUTER_BOUND('',#48,.T.);
#33=FACE_OUTER_BOUND('',#49,.T.);
#34=FACE_OUTER_BOUND('',#50,.T.);
#35=FACE_OUTER_BOUND('',#51,.T.);
#36=FACE_OUTER_BOUND('',#52,.T.);
#37=FACE_OUTER_BOUND('',#53,.T.);
#38=FACE_OUTER_BOUND('',#54,.T.);
#39=EDGE_LOOP('',(#111,#112,#113,#114));
#40=EDGE_LOOP('',(#115,#116,#117,#118));
#41=EDGE_LOOP('',(#119,#120,#121,#122));
#42=EDGE_LOOP('',(#123));
#43=EDGE_LOOP('',(#124));
#44=EDGE_LOOP('',(#125));
#45=EDGE_LOOP('',(#126));
#46=EDGE_LOOP('',(#127));
#47=EDGE_LOOP('',(#128,#129,#130,#131));
#48=EDGE_LOOP('',(#132,#133,#134,#135));
#49=EDGE_LOOP('',(#136,#137,#138,#139));
#50=EDGE_LOOP('',(#140,#141,#142,#143));
#51=EDGE_LOOP('',(#144,#145,#146,#147));
#52=EDGE_LOOP('',(#148));
#53=EDGE_LOOP('',(#149));
#54=EDGE_LOOP('',(#150));
#55=LINE('',#294,#59);
#56=LINE('',#314,#60);
#57=LINE('',#318,#61);
#58=LINE('',#322,#62);
#59=VECTOR('',#231,6.);
#60=VECTOR('',#258,0.45);
#61=VECTOR('',#263,0.45);
#62=VECTOR('',#268,1.);
#63=CIRCLE('',#197,6.);
#64=CIRCLE('',#198,6.);
#65=CIRCLE('',#200,5.7);
#66=CIRCLE('',#201,0.3);
#67=CIRCLE('',#203,4.518518518519);
#68=CIRCLE('',#204,1.481481481481);
#69=CIRCLE('',#206,0.45);
#70=CIRCLE('',#207,0.45);
#71=CIRCLE('',#209,1.);
#72=CIRCLE('',#211,0.45);
#73=CIRCLE('',#213,0.45);
#74=CIRCLE('',#215,1.);
#75=CIRCLE('',#217,0.27);
#76=CIRCLE('',#218,0.18);
#77=CIRCLE('',#220,0.27);
#78=CIRCLE('',#221,0.18);
#79=VERTEX_POINT('',#291);
#80=VERTEX_POINT('',#293);
#81=VERTEX_POINT('',#297);
#82=VERTEX_POINT('',#301);
#83=VERTEX_POINT('',#305);
#84=VERTEX_POINT('',#307);
#85=VERTEX_POINT('',#310);
#86=VERTEX_POINT('',#313);
#87=VERTEX_POINT('',#317);
#88=VERTEX_POINT('',#321);
#89=VERTEX_POINT('',#325);
#90=VERTEX_POINT('',#329);
#91=EDGE_CURVE('',#79,#79,#63,.T.);
#92=EDGE_CURVE('',#79,#80,#55,.T.);
#93=EDGE_CURVE('',#80,#80,#64,.T.);
#94=EDGE_CURVE('',#81,#81,#65,.T.);
#95=EDGE_CURVE('',#81,#79,#66,.T.);
#96=EDGE_CURVE('',#82,#82,#67,.T.);
#97=EDGE_CURVE('',#82,#80,#68,.T.);
#98=EDGE_CURVE('',#83,#83,#69,.T.);
#99=EDGE_CURVE('',#84,#84,#70,.T.);
#100=EDGE_CURVE('',#85,#85,#71,.T.);
#101=EDGE_CURVE('',#83,#86,#56,.T.);
#102=EDGE_CURVE('',#86,#86,#72,.T.);
#103=EDGE_CURVE('',#84,#87,#57,.T.);
#104=EDGE_CURVE('',#87,#87,#73,.T.);
#105=EDGE_CURVE('',#85,#88,#58,.T.);
#106=EDGE_CURVE('',#88,#88,#74,.T.);
#107=EDGE_CURVE('',#89,#89,#75,.T.);
#108=EDGE_CURVE('',#89,#86,#76,.T.);
#109=EDGE_CURVE('',#90,#90,#77,.T.);
#110=EDGE_CURVE('',#90,#87,#78,.T.);
#111=ORIENTED_EDGE('',*,*,#91,.T.);
#112=ORIENTED_EDGE('',*,*,#92,.T.);
#113=ORIENTED_EDGE('',*,*,#93,.F.);
#114=ORIENTED_EDGE('',*,*,#92,.F.);
#115=ORIENTED_EDGE('',*,*,#94,.T.);
#116=ORIENTED_EDGE('',*,*,#95,.T.);
#117=ORIENTED_EDGE('',*,*,#91,.F.);
#118=ORIENTED_EDGE('',*,*,#95,.F.);
#119=ORIENTED_EDGE('',*,*,#96,.F.);
#120=ORIENTED_EDGE('',*,*,#97,.T.);
#121=ORIENTED_EDGE('',*,*,#93,.T.);
#122=ORIENTED_EDGE('',*,*,#97,.F.);
#123=ORIENTED_EDGE('',*,*,#94,.F.);
#124=ORIENTED_EDGE('',*,*,#98,.T.);
#125=ORIENTED_EDGE('',*,*,#99,.T.);
#126=ORIENTED_EDGE('',*,*,#96,.T.);
#127=ORIENTED_EDGE('',*,*,#100,.T.);
#128=ORIENTED_EDGE('',*,*,#98,.F.);
#129=ORIENTED_EDGE('',*,*,#101,.T.);
#130=ORIENTED_EDGE('',*,*,#102,.T.);
#131=ORIENTED_EDGE('',*,*,#101,.F.);
#132=ORIENTED_EDGE('',*,*,#99,.F.);
#133=ORIENTED_EDGE('',*,*,#103,.T.);
#134=ORIENTED_EDGE('',*,*,#104,.T.);
#135=ORIENTED_EDGE('',*,*,#103,.F.);
#136=ORIENTED_EDGE('',*,*,#100,.F.);
#137=ORIENTED_EDGE('',*,*,#105,.T.);
#138=ORIENTED_EDGE('',*,*,#106,.F.);
#139=ORIENTED_EDGE('',*,*,#105,.F.);
#140=ORIENTED_EDGE('',*,*,#107,.T.);
#141=ORIENTED_EDGE('',*,*,#108,.T.);
#142=ORIENTED_EDGE('',*,*,#102,.F.);
#143=ORIENTED_EDGE('',*,*,#108,.F.);
#144=ORIENTED_EDGE('',*,*,#109,.T.);
#145=ORIENTED_EDGE('',*,*,#110,.T.);
#146=ORIENTED_EDGE('',*,*,#104,.F.);
#147=ORIENTED_EDGE('',*,*,#110,.F.);
#148=ORIENTED_EDGE('',*,*,#106,.T.);
#149=ORIENTED_EDGE('',*,*,#107,.F.);
#150=ORIENTED_EDGE('',*,*,#109,.F.);
#151=CYLINDRICAL_SURFACE('',#196,6.);
#152=CYLINDRICAL_SURFACE('',#210,0.45);
#153=CYLINDRICAL_SURFACE('',#212,0.45);
#154=CYLINDRICAL_SURFACE('',#214,1.);
#155=STYLED_ITEM('',(#356),#169);
#156=STYLED_ITEM('',(#356),#170);
#157=STYLED_ITEM('',(#356),#171);
#158=STYLED_ITEM('',(#356),#172);
#159=STYLED_ITEM('',(#356),#173);
#160=STYLED_ITEM('',(#357),#174);
#161=STYLED_ITEM('',(#357),#175);
#162=STYLED_ITEM('',(#356),#176);
#163=STYLED_ITEM('',(#357),#177);
#164=STYLED_ITEM('',(#357),#178);
#165=STYLED_ITEM('',(#358),#179);
#166=STYLED_ITEM('',(#357),#180);
#167=STYLED_ITEM('',(#357),#181);
#168=STYLED_ITEM('',(#355),#13);
#169=ADVANCED_FACE('',(#26),#151,.T.);
#170=ADVANCED_FACE('',(#27),#22,.T.);
#171=ADVANCED_FACE('',(#28),#23,.T.);
#172=ADVANCED_FACE('',(#29,#14,#15),#17,.F.);
#173=ADVANCED_FACE('',(#30,#16),#18,.T.);
#174=ADVANCED_FACE('',(#31),#152,.T.);
#175=ADVANCED_FACE('',(#32),#153,.T.);
#176=ADVANCED_FACE('',(#33),#154,.F.);
#177=ADVANCED_FACE('',(#34),#24,.T.);
#178=ADVANCED_FACE('',(#35),#25,.T.);
#179=ADVANCED_FACE('',(#36),#19,.T.);
#180=ADVANCED_FACE('',(#37),#20,.F.);
#181=ADVANCED_FACE('',(#38),#21,.F.);
#182=CLOSED_SHELL('',(#169,#170,#171,#172,#173,#174,#175,#176,#177,#178,
#179,#180,#181));
#183=DERIVED_UNIT_ELEMENT(#185,1.);
#184=DERIVED_UNIT_ELEMENT(#340,-3.);
#185=(
MASS_UNIT()
NAMED_UNIT(*)
SI_UNIT(.KILO.,.GRAM.)
);
#186=DERIVED_UNIT((#183,#184));
#187=MEASURE_REPRESENTATION_ITEM('density measure',
POSITIVE_RATIO_MEASURE(7850.),#186);
#188=PROPERTY_DEFINITION_REPRESENTATION(#193,#190);
#189=PROPERTY_DEFINITION_REPRESENTATION(#194,#191);
#190=REPRESENTATION('material name',(#192),#337);
#191=REPRESENTATION('density',(#187),#337);
#192=DESCRIPTIVE_REPRESENTATION_ITEM('Steel','Steel');
#193=PROPERTY_DEFINITION('material property','material name',#347);
#194=PROPERTY_DEFINITION('material property','density of part',#347);
#195=AXIS2_PLACEMENT_3D('',#289,#225,#226);
#196=AXIS2_PLACEMENT_3D('',#290,#227,#228);
#197=AXIS2_PLACEMENT_3D('',#292,#229,#230);
#198=AXIS2_PLACEMENT_3D('',#295,#232,#233);
#199=AXIS2_PLACEMENT_3D('',#296,#234,#235);
#200=AXIS2_PLACEMENT_3D('',#298,#236,#237);
#201=AXIS2_PLACEMENT_3D('',#299,#238,#239);
#202=AXIS2_PLACEMENT_3D('',#300,#240,#241);
#203=AXIS2_PLACEMENT_3D('',#302,#242,#243);
#204=AXIS2_PLACEMENT_3D('',#303,#244,#245);
#205=AXIS2_PLACEMENT_3D('',#304,#246,#247);
#206=AXIS2_PLACEMENT_3D('',#306,#248,#249);
#207=AXIS2_PLACEMENT_3D('',#308,#250,#251);
#208=AXIS2_PLACEMENT_3D('',#309,#252,#253);
#209=AXIS2_PLACEMENT_3D('',#311,#254,#255);
#210=AXIS2_PLACEMENT_3D('',#312,#256,#257);
#211=AXIS2_PLACEMENT_3D('',#315,#259,#260);
#212=AXIS2_PLACEMENT_3D('',#316,#261,#262);
#213=AXIS2_PLACEMENT_3D('',#319,#264,#265);
#214=AXIS2_PLACEMENT_3D('',#320,#266,#267);
#215=AXIS2_PLACEMENT_3D('',#323,#269,#270);
#216=AXIS2_PLACEMENT_3D('',#324,#271,#272);
#217=AXIS2_PLACEMENT_3D('',#326,#273,#274);
#218=AXIS2_PLACEMENT_3D('',#327,#275,#276);
#219=AXIS2_PLACEMENT_3D('',#328,#277,#278);
#220=AXIS2_PLACEMENT_3D('',#330,#279,#280);
#221=AXIS2_PLACEMENT_3D('',#331,#281,#282);
#222=AXIS2_PLACEMENT_3D('',#332,#283,#284);
#223=AXIS2_PLACEMENT_3D('',#333,#285,#286);
#224=AXIS2_PLACEMENT_3D('',#334,#287,#288);
#225=DIRECTION('axis',(0.,0.,1.));
#226=DIRECTION('refdir',(1.,0.,0.));
#227=DIRECTION('center_axis',(0.,0.,-1.));
#228=DIRECTION('ref_axis',(1.,0.,0.));
#229=DIRECTION('center_axis',(-8.559688641721E-35,6.014522413226E-35,1.));
#230=DIRECTION('ref_axis',(1.,6.690258951221E-52,8.559688641721E-35));
#231=DIRECTION('',(0.,0.,1.));
#232=DIRECTION('center_axis',(-8.559688641721E-35,6.014522413226E-35,1.));
#233=DIRECTION('ref_axis',(1.,8.259101077374E-51,8.559688641721E-35));
#234=DIRECTION('center_axis',(8.559688641721E-35,-6.014522413226E-35,-1.));
#235=DIRECTION('ref_axis',(1.,4.45460785015366E-52,0.));
#236=DIRECTION('center_axis',(-8.559688641721E-35,6.014522413226E-35,1.));
#237=DIRECTION('ref_axis',(1.,6.690258951221E-52,8.559688641721E-35));
#238=DIRECTION('center_axis',(1.22464679914735E-16,1.,-6.014522413226E-35));
#239=DIRECTION('ref_axis',(-1.,1.22464679914735E-16,0.));
#240=DIRECTION('center_axis',(-8.559688641721E-35,6.014522413226E-35,1.));
#241=DIRECTION('ref_axis',(1.,7.12737256024586E-51,0.));
#242=DIRECTION('center_axis',(-8.559688641721E-35,6.014522413226E-35,1.));
#243=DIRECTION('ref_axis',(1.,8.259101077374E-51,8.559688641721E-35));
#244=DIRECTION('center_axis',(1.22464679914735E-16,-1.,6.014522413226E-35));
#245=DIRECTION('ref_axis',(-1.,-1.22464679914735E-16,0.));
#246=DIRECTION('center_axis',(-8.559688641721E-35,6.014522413226E-35,1.));
#247=DIRECTION('ref_axis',(1.,0.,8.559688641721E-35));
#248=DIRECTION('center_axis',(0.,0.,1.));
#249=DIRECTION('ref_axis',(1.,0.,0.));
#250=DIRECTION('center_axis',(0.,0.,1.));
#251=DIRECTION('ref_axis',(1.,0.,0.));
#252=DIRECTION('center_axis',(-8.559688641721E-35,6.014522413226E-35,1.));
#253=DIRECTION('ref_axis',(1.,0.,8.559688641721E-35));
#254=DIRECTION('center_axis',(0.,0.,-1.));
#255=DIRECTION('ref_axis',(1.,0.,0.));
#256=DIRECTION('center_axis',(0.,0.,1.));
#257=DIRECTION('ref_axis',(1.,0.,0.));
#258=DIRECTION('',(0.,0.,-1.));
#259=DIRECTION('center_axis',(0.,0.,1.));
#260=DIRECTION('ref_axis',(1.,0.,0.));
#261=DIRECTION('center_axis',(0.,0.,1.));
#262=DIRECTION('ref_axis',(1.,0.,0.));
#263=DIRECTION('',(0.,0.,-1.));
#264=DIRECTION('center_axis',(-1.19708830782E-30,3.357113761597E-32,1.));
#265=DIRECTION('ref_axis',(1.,3.013010401886E-31,1.19708830782E-30));
#266=DIRECTION('center_axis',(0.,0.,-1.));
#267=DIRECTION('ref_axis',(1.,0.,0.));
#268=DIRECTION('',(0.,0.,-1.));
#269=DIRECTION('center_axis',(0.,0.,1.));
#270=DIRECTION('ref_axis',(1.,0.,0.));
#271=DIRECTION('center_axis',(0.,0.,-1.));
#272=DIRECTION('ref_axis',(1.,0.,0.));
#273=DIRECTION('center_axis',(0.,0.,1.));
#274=DIRECTION('ref_axis',(1.,0.,0.));
#275=DIRECTION('center_axis',(1.22464679914735E-16,1.,0.));
#276=DIRECTION('ref_axis',(-1.,1.22464679914735E-16,0.));
#277=DIRECTION('center_axis',(1.19708830782E-30,-3.357113761597E-32,-1.));
#278=DIRECTION('ref_axis',(1.,3.013010401886E-31,0.));
#279=DIRECTION('center_axis',(-1.19708830782E-30,3.357113761597E-32,1.));
#280=DIRECTION('ref_axis',(1.,3.013010401886E-31,1.19708830782E-30));
#281=DIRECTION('center_axis',(1.22464679914735E-16,1.,-3.35711376159698E-32));
#282=DIRECTION('ref_axis',(-1.,1.22464679914735E-16,0.));
#283=DIRECTION('center_axis',(-4.930380657631E-31,-1.632186346944E-32,1.));
#284=DIRECTION('ref_axis',(1.,0.,4.930380657631E-31));
#285=DIRECTION('center_axis',(0.,0.,1.));
#286=DIRECTION('ref_axis',(1.,0.,0.));
#287=DIRECTION('center_axis',(-1.19708830782E-30,3.357113761597E-32,1.));
#288=DIRECTION('ref_axis',(1.,0.,1.19708830782E-30));
#289=CARTESIAN_POINT('',(0.,0.,0.));
#290=CARTESIAN_POINT('Origin',(3.8,0.,0.03));
#291=CARTESIAN_POINT('',(-2.2,7.34788079488412E-16,0.33));
#292=CARTESIAN_POINT('Origin',(3.8,1.804356723968E-35,0.33));
#293=CARTESIAN_POINT('',(-2.2,7.34788079488412E-16,8.048518518519));
#294=CARTESIAN_POINT('',(-2.2,7.34788079488412E-16,0.03));
#295=CARTESIAN_POINT('Origin',(3.8,-8.91040357515E-35,8.048518518519));
#296=CARTESIAN_POINT('Origin',(3.8,1.804356723968E-35,0.33));
#297=CARTESIAN_POINT('',(-1.9,6.98048675513991E-16,0.03));
#298=CARTESIAN_POINT('Origin',(3.8,0.,0.03));
#299=CARTESIAN_POINT('Origin',(-1.9,6.98048675513991E-16,0.33));
#300=CARTESIAN_POINT('Origin',(3.8,-8.91040357515E-35,8.048518518519));
#301=CARTESIAN_POINT('',(-0.718518518519001,-5.53358924059233E-16,9.53));
#302=CARTESIAN_POINT('Origin',(3.8,0.,9.53));
#303=CARTESIAN_POINT('Origin',(-0.718518518519001,-5.53358924059233E-16,
8.048518518519));
#304=CARTESIAN_POINT('Origin',(3.8,2.108840176837E-16,0.03));
#305=CARTESIAN_POINT('',(-0.45,-5.51091059616309E-17,0.0300000000000002));
#306=CARTESIAN_POINT('Origin',(0.,0.,0.03));
#307=CARTESIAN_POINT('',(7.15,-5.51091059616309E-17,0.0300000000000002));
#308=CARTESIAN_POINT('Origin',(7.6,0.,0.03));
#309=CARTESIAN_POINT('Origin',(3.8,2.108840176837E-16,9.53));
#310=CARTESIAN_POINT('',(2.8,1.22464679914735E-16,9.53));
#311=CARTESIAN_POINT('Origin',(3.8,0.,9.53));
#312=CARTESIAN_POINT('Origin',(0.,0.,1.03));
#313=CARTESIAN_POINT('',(-0.45,-5.51091059616309E-17,-2.82));
#314=CARTESIAN_POINT('',(-0.45,-5.51091059616309E-17,1.03));
#315=CARTESIAN_POINT('Origin',(0.,0.,-2.82));
#316=CARTESIAN_POINT('Origin',(7.6,0.,1.03));
#317=CARTESIAN_POINT('',(7.15,-5.51091059616309E-17,-2.82));
#318=CARTESIAN_POINT('',(7.15,-5.51091059616309E-17,1.03));
#319=CARTESIAN_POINT('Origin',(7.6,-1.29542663314E-31,-2.82));
#320=CARTESIAN_POINT('Origin',(3.8,0.,1.93));
#321=CARTESIAN_POINT('',(2.8,1.22464679914735E-16,9.33));
#322=CARTESIAN_POINT('',(2.8,1.22464679914735E-16,1.93));
#323=CARTESIAN_POINT('Origin',(3.8,0.,9.33));
#324=CARTESIAN_POINT('Origin',(0.,0.,-2.82));
#325=CARTESIAN_POINT('',(-0.27,3.30654635769785E-17,-3.));
#326=CARTESIAN_POINT('Origin',(0.,0.,-3.));
#327=CARTESIAN_POINT('Origin',(-0.27,3.30654635769785E-17,-2.82));
#328=CARTESIAN_POINT('Origin',(7.6,-1.29542663314E-31,-2.82));
#329=CARTESIAN_POINT('',(7.33,3.30654635769783E-17,-3.));
#330=CARTESIAN_POINT('Origin',(7.6,-1.355854680849E-31,-3.));
#331=CARTESIAN_POINT('Origin',(7.33,3.30654635769783E-17,-2.82));
#332=CARTESIAN_POINT('Origin',(3.8,8.737595245399E-17,9.33));
#333=CARTESIAN_POINT('Origin',(-1.18701400394E-17,2.911085817041E-17,-3.));
#334=CARTESIAN_POINT('Origin',(7.6,-1.836970198721E-17,-3.));
#335=UNCERTAINTY_MEASURE_WITH_UNIT(LENGTH_MEASURE(0.01),#339,
'DISTANCE_ACCURACY_VALUE',
'Maximum model space distance between geometric entities at asserted c
onnectivities');
#336=UNCERTAINTY_MEASURE_WITH_UNIT(LENGTH_MEASURE(0.01),#339,
'DISTANCE_ACCURACY_VALUE',
'Maximum model space distance between geometric entities at asserted c
onnectivities');
#337=(
GEOMETRIC_REPRESENTATION_CONTEXT(3)
GLOBAL_UNCERTAINTY_ASSIGNED_CONTEXT((#335))
GLOBAL_UNIT_ASSIGNED_CONTEXT((#339,#341,#342))
REPRESENTATION_CONTEXT('','3D')
);
#338=(
GEOMETRIC_REPRESENTATION_CONTEXT(3)
GLOBAL_UNCERTAINTY_ASSIGNED_CONTEXT((#336))
GLOBAL_UNIT_ASSIGNED_CONTEXT((#339,#341,#342))
REPRESENTATION_CONTEXT('','3D')
);
#339=(
LENGTH_UNIT()
NAMED_UNIT(*)
SI_UNIT(.MILLI.,.METRE.)
);
#340=(
LENGTH_UNIT()
NAMED_UNIT(*)
SI_UNIT($,.METRE.)
);
#341=(
NAMED_UNIT(*)
PLANE_ANGLE_UNIT()
SI_UNIT($,.RADIAN.)
);
#342=(
NAMED_UNIT(*)
SI_UNIT($,.STERADIAN.)
SOLID_ANGLE_UNIT()
);
#343=SHAPE_DEFINITION_REPRESENTATION(#344,#345);
#344=PRODUCT_DEFINITION_SHAPE('',$,#347);
#345=SHAPE_REPRESENTATION('',(#195),#337);
#346=PRODUCT_DEFINITION_CONTEXT('part definition',#351,'design');
#347=PRODUCT_DEFINITION('2026-05-13-01-39-31-809','Buzzer_12x9.5RM7.6',
#348,#346);
#348=PRODUCT_DEFINITION_FORMATION('',$,#353);
#349=PRODUCT_RELATED_PRODUCT_CATEGORY('Buzzer_12x9.5RM7.6',
'Buzzer_12x9.5RM7.6',(#353));
#350=APPLICATION_PROTOCOL_DEFINITION('international standard',
'automotive_design',2009,#351);
#351=APPLICATION_CONTEXT(
'Core Data for Automotive Mechanical Design Process');
#352=PRODUCT_CONTEXT('part definition',#351,'mechanical');
#353=PRODUCT('2026-05-13-01-39-31-809','Buzzer_12x9.5RM7.6',$,(#352));
#354=PRESENTATION_STYLE_ASSIGNMENT((#359));
#355=PRESENTATION_STYLE_ASSIGNMENT((#360));
#356=PRESENTATION_STYLE_ASSIGNMENT((#361));
#357=PRESENTATION_STYLE_ASSIGNMENT((#362));
#358=PRESENTATION_STYLE_ASSIGNMENT((#363));
#359=SURFACE_STYLE_USAGE(.BOTH.,#364);
#360=SURFACE_STYLE_USAGE(.BOTH.,#365);
#361=SURFACE_STYLE_USAGE(.BOTH.,#366);
#362=SURFACE_STYLE_USAGE(.BOTH.,#367);
#363=SURFACE_STYLE_USAGE(.BOTH.,#368);
#364=SURFACE_SIDE_STYLE('',(#369));
#365=SURFACE_SIDE_STYLE('',(#370));
#366=SURFACE_SIDE_STYLE('',(#371));
#367=SURFACE_SIDE_STYLE('',(#372));
#368=SURFACE_SIDE_STYLE('',(#373));
#369=SURFACE_STYLE_FILL_AREA(#374);
#370=SURFACE_STYLE_FILL_AREA(#375);
#371=SURFACE_STYLE_FILL_AREA(#376);
#372=SURFACE_STYLE_FILL_AREA(#377);
#373=SURFACE_STYLE_FILL_AREA(#378);
#374=FILL_AREA_STYLE('Steel - Satin',(#379));
#375=FILL_AREA_STYLE('Opaque(21,22,24)',(#380));
#376=FILL_AREA_STYLE('Opaque(38,37,37)',(#381));
#377=FILL_AREA_STYLE('Opaque(210,209,199)',(#382));
#378=FILL_AREA_STYLE('Opaque(206,109,38)',(#383));
#379=FILL_AREA_STYLE_COLOUR('Steel - Satin',#384);
#380=FILL_AREA_STYLE_COLOUR('Opaque(21,22,24)',#385);
#381=FILL_AREA_STYLE_COLOUR('Opaque(38,37,37)',#386);
#382=FILL_AREA_STYLE_COLOUR('Opaque(210,209,199)',#387);
#383=FILL_AREA_STYLE_COLOUR('Opaque(206,109,38)',#388);
#384=COLOUR_RGB('Steel - Satin',0.627450980392157,0.627450980392157,0.627450980392157);
#385=COLOUR_RGB('Opaque(21,22,24)',0.0823529411764706,0.0862745098039216,
0.0941176470588235);
#386=COLOUR_RGB('Opaque(38,37,37)',0.149019607843137,0.145098039215686,
0.145098039215686);
#387=COLOUR_RGB('Opaque(210,209,199)',0.823529411764706,0.819607843137255,
0.780392156862745);
#388=COLOUR_RGB('Opaque(206,109,38)',0.807843137254902,0.427450980392157,
0.149019607843137);
ENDSEC;
END-ISO-10303-21;
