ISO-10303-21;
HEADER;
/* Generated by software containing ST-Developer
 * from STEP Tools, Inc. (www.steptools.com) 
 */

FILE_DESCRIPTION(
/* description */ (''),
/* implementation_level */ '2;1');

FILE_NAME(
/* name */ 'Touch_PCB.step',
/* time_stamp */ '2026-05-13T01:41:06+05:30',
/* author */ (''),
/* organization */ (''),
/* preprocessor_version */ 'ST-DEVELOPER v20.1',
/* originating_system */ 'Autodesk Translation Framework v15.8.0.0',
/* authorisation */ '');

FILE_SCHEMA (('AUTOMOTIVE_DESIGN { 1 0 10303 214 3 1 1 }'));
ENDSEC;

DATA;
#10=MECHANICAL_DESIGN_GEOMETRIC_PRESENTATION_REPRESENTATION('',(#13),#2420);
#11=SHAPE_REPRESENTATION_RELATIONSHIP('SRR','None',#2427,#12);
#12=ADVANCED_BREP_SHAPE_REPRESENTATION('',(#14),#2419);
#13=STYLED_ITEM('',(#2437),#14);
#14=MANIFOLD_SOLID_BREP('Body1',#1432);
#15=CYLINDRICAL_SURFACE('',#1554,0.5);
#16=CYLINDRICAL_SURFACE('',#1555,0.5);
#17=CYLINDRICAL_SURFACE('',#1556,0.5);
#18=CYLINDRICAL_SURFACE('',#1557,0.5);
#19=CYLINDRICAL_SURFACE('',#1558,0.5);
#20=CYLINDRICAL_SURFACE('',#1559,0.5);
#21=CYLINDRICAL_SURFACE('',#1560,0.5);
#22=CYLINDRICAL_SURFACE('',#1561,0.5);
#23=CYLINDRICAL_SURFACE('',#1562,0.5);
#24=CYLINDRICAL_SURFACE('',#1563,0.5);
#25=CYLINDRICAL_SURFACE('',#1564,0.5);
#26=CYLINDRICAL_SURFACE('',#1565,0.5);
#27=CYLINDRICAL_SURFACE('',#1566,0.5);
#28=CYLINDRICAL_SURFACE('',#1567,0.5);
#29=CYLINDRICAL_SURFACE('',#1568,0.55);
#30=CYLINDRICAL_SURFACE('',#1569,0.55);
#31=CYLINDRICAL_SURFACE('',#1570,0.55);
#32=CYLINDRICAL_SURFACE('',#1571,0.55);
#33=CYLINDRICAL_SURFACE('',#1572,0.1);
#34=CYLINDRICAL_SURFACE('',#1573,0.1);
#35=CYLINDRICAL_SURFACE('',#1574,0.1);
#36=CYLINDRICAL_SURFACE('',#1575,0.1);
#37=CYLINDRICAL_SURFACE('',#1576,0.1);
#38=CYLINDRICAL_SURFACE('',#1577,0.1);
#39=CYLINDRICAL_SURFACE('',#1578,0.1);
#40=CYLINDRICAL_SURFACE('',#1579,0.1);
#41=CYLINDRICAL_SURFACE('',#1580,0.1);
#42=CYLINDRICAL_SURFACE('',#1581,0.1);
#43=CYLINDRICAL_SURFACE('',#1582,0.1);
#44=CYLINDRICAL_SURFACE('',#1583,0.1);
#45=CYLINDRICAL_SURFACE('',#1584,0.5);
#46=CYLINDRICAL_SURFACE('',#1585,0.5);
#47=CYLINDRICAL_SURFACE('',#1586,0.55);
#48=CYLINDRICAL_SURFACE('',#1587,0.55);
#49=CYLINDRICAL_SURFACE('',#1588,0.45);
#50=CYLINDRICAL_SURFACE('',#1589,0.45);
#51=CYLINDRICAL_SURFACE('',#1590,0.375);
#52=CYLINDRICAL_SURFACE('',#1591,0.375);
#53=CYLINDRICAL_SURFACE('',#1592,0.375);
#54=CYLINDRICAL_SURFACE('',#1593,0.55);
#55=CYLINDRICAL_SURFACE('',#1594,0.55);
#56=CYLINDRICAL_SURFACE('',#1595,0.3);
#57=CYLINDRICAL_SURFACE('',#1597,0.3);
#58=CYLINDRICAL_SURFACE('',#1599,0.3);
#59=CYLINDRICAL_SURFACE('',#1601,0.3);
#60=CYLINDRICAL_SURFACE('',#1603,0.325);
#61=CYLINDRICAL_SURFACE('',#1604,0.3);
#62=CYLINDRICAL_SURFACE('',#1606,0.3);
#63=CYLINDRICAL_SURFACE('',#1608,0.325);
#64=CYLINDRICAL_SURFACE('',#1609,0.3);
#65=CYLINDRICAL_SURFACE('',#1611,0.3);
#66=FACE_BOUND('',#331,.T.);
#67=FACE_BOUND('',#332,.T.);
#68=FACE_BOUND('',#333,.T.);
#69=FACE_BOUND('',#334,.T.);
#70=FACE_BOUND('',#335,.T.);
#71=FACE_BOUND('',#336,.T.);
#72=FACE_BOUND('',#337,.T.);
#73=FACE_BOUND('',#338,.T.);
#74=FACE_BOUND('',#339,.T.);
#75=FACE_BOUND('',#340,.T.);
#76=FACE_BOUND('',#341,.T.);
#77=FACE_BOUND('',#342,.T.);
#78=FACE_BOUND('',#343,.T.);
#79=FACE_BOUND('',#344,.T.);
#80=FACE_BOUND('',#345,.T.);
#81=FACE_BOUND('',#346,.T.);
#82=FACE_BOUND('',#347,.T.);
#83=FACE_BOUND('',#348,.T.);
#84=FACE_BOUND('',#349,.T.);
#85=FACE_BOUND('',#350,.T.);
#86=FACE_BOUND('',#351,.T.);
#87=FACE_BOUND('',#352,.T.);
#88=FACE_BOUND('',#353,.T.);
#89=FACE_BOUND('',#354,.T.);
#90=FACE_BOUND('',#355,.T.);
#91=FACE_BOUND('',#356,.T.);
#92=FACE_BOUND('',#357,.T.);
#93=FACE_BOUND('',#358,.T.);
#94=FACE_BOUND('',#359,.T.);
#95=FACE_BOUND('',#360,.T.);
#96=FACE_BOUND('',#361,.T.);
#97=FACE_BOUND('',#362,.T.);
#98=FACE_BOUND('',#363,.T.);
#99=FACE_BOUND('',#364,.T.);
#100=FACE_BOUND('',#365,.T.);
#101=FACE_BOUND('',#366,.T.);
#102=FACE_BOUND('',#367,.T.);
#103=FACE_BOUND('',#368,.T.);
#104=FACE_BOUND('',#369,.T.);
#105=FACE_BOUND('',#370,.T.);
#106=FACE_BOUND('',#371,.T.);
#107=FACE_BOUND('',#372,.T.);
#108=FACE_BOUND('',#373,.T.);
#109=FACE_BOUND('',#374,.T.);
#110=FACE_BOUND('',#375,.T.);
#111=FACE_BOUND('',#376,.T.);
#112=FACE_BOUND('',#377,.T.);
#113=FACE_BOUND('',#379,.T.);
#114=FACE_BOUND('',#380,.T.);
#115=FACE_BOUND('',#381,.T.);
#116=FACE_BOUND('',#382,.T.);
#117=FACE_BOUND('',#383,.T.);
#118=FACE_BOUND('',#384,.T.);
#119=FACE_BOUND('',#385,.T.);
#120=FACE_BOUND('',#386,.T.);
#121=FACE_BOUND('',#387,.T.);
#122=FACE_BOUND('',#388,.T.);
#123=FACE_BOUND('',#389,.T.);
#124=FACE_BOUND('',#390,.T.);
#125=FACE_BOUND('',#391,.T.);
#126=FACE_BOUND('',#392,.T.);
#127=FACE_BOUND('',#393,.T.);
#128=FACE_BOUND('',#394,.T.);
#129=FACE_BOUND('',#395,.T.);
#130=FACE_BOUND('',#396,.T.);
#131=FACE_BOUND('',#397,.T.);
#132=FACE_BOUND('',#398,.T.);
#133=FACE_BOUND('',#399,.T.);
#134=FACE_BOUND('',#400,.T.);
#135=FACE_BOUND('',#401,.T.);
#136=FACE_BOUND('',#402,.T.);
#137=FACE_BOUND('',#403,.T.);
#138=FACE_BOUND('',#404,.T.);
#139=FACE_BOUND('',#405,.T.);
#140=FACE_BOUND('',#406,.T.);
#141=FACE_BOUND('',#407,.T.);
#142=FACE_BOUND('',#408,.T.);
#143=FACE_BOUND('',#409,.T.);
#144=FACE_BOUND('',#410,.T.);
#145=FACE_BOUND('',#411,.T.);
#146=FACE_BOUND('',#412,.T.);
#147=FACE_BOUND('',#413,.T.);
#148=FACE_BOUND('',#414,.T.);
#149=FACE_BOUND('',#415,.T.);
#150=FACE_BOUND('',#416,.T.);
#151=FACE_BOUND('',#417,.T.);
#152=FACE_BOUND('',#418,.T.);
#153=FACE_BOUND('',#419,.T.);
#154=FACE_BOUND('',#420,.T.);
#155=FACE_BOUND('',#421,.T.);
#156=FACE_BOUND('',#422,.T.);
#157=FACE_BOUND('',#423,.T.);
#158=FACE_BOUND('',#424,.T.);
#159=FACE_BOUND('',#425,.T.);
#160=CIRCLE('',#1450,0.5);
#161=CIRCLE('',#1451,0.5);
#162=CIRCLE('',#1452,0.5);
#163=CIRCLE('',#1453,0.5);
#164=CIRCLE('',#1454,0.5);
#165=CIRCLE('',#1455,0.5);
#166=CIRCLE('',#1456,0.5);
#167=CIRCLE('',#1457,0.5);
#168=CIRCLE('',#1458,0.5);
#169=CIRCLE('',#1459,0.5);
#170=CIRCLE('',#1460,0.5);
#171=CIRCLE('',#1461,0.5);
#172=CIRCLE('',#1462,0.5);
#173=CIRCLE('',#1463,0.5);
#174=CIRCLE('',#1464,0.55);
#175=CIRCLE('',#1465,0.55);
#176=CIRCLE('',#1466,0.55);
#177=CIRCLE('',#1467,0.55);
#178=CIRCLE('',#1468,0.1);
#179=CIRCLE('',#1469,0.1);
#180=CIRCLE('',#1470,0.1);
#181=CIRCLE('',#1471,0.1);
#182=CIRCLE('',#1472,0.1);
#183=CIRCLE('',#1473,0.1);
#184=CIRCLE('',#1474,0.1);
#185=CIRCLE('',#1475,0.1);
#186=CIRCLE('',#1476,0.1);
#187=CIRCLE('',#1477,0.1);
#188=CIRCLE('',#1478,0.1);
#189=CIRCLE('',#1479,0.1);
#190=CIRCLE('',#1480,0.5);
#191=CIRCLE('',#1481,0.5);
#192=CIRCLE('',#1482,0.55);
#193=CIRCLE('',#1483,0.55);
#194=CIRCLE('',#1484,0.45);
#195=CIRCLE('',#1485,0.45);
#196=CIRCLE('',#1486,0.375);
#197=CIRCLE('',#1487,0.375);
#198=CIRCLE('',#1488,0.375);
#199=CIRCLE('',#1489,0.55);
#200=CIRCLE('',#1490,0.55);
#201=CIRCLE('',#1491,0.3);
#202=CIRCLE('',#1492,0.3);
#203=CIRCLE('',#1493,0.3);
#204=CIRCLE('',#1494,0.3);
#205=CIRCLE('',#1495,0.325);
#206=CIRCLE('',#1496,0.3);
#207=CIRCLE('',#1497,0.3);
#208=CIRCLE('',#1498,0.325);
#209=CIRCLE('',#1499,0.3);
#210=CIRCLE('',#1500,0.3);
#211=CIRCLE('',#1502,0.5);
#212=CIRCLE('',#1503,0.5);
#213=CIRCLE('',#1504,0.5);
#214=CIRCLE('',#1505,0.5);
#215=CIRCLE('',#1506,0.5);
#216=CIRCLE('',#1507,0.5);
#217=CIRCLE('',#1508,0.5);
#218=CIRCLE('',#1509,0.5);
#219=CIRCLE('',#1510,0.5);
#220=CIRCLE('',#1511,0.5);
#221=CIRCLE('',#1512,0.5);
#222=CIRCLE('',#1513,0.5);
#223=CIRCLE('',#1514,0.5);
#224=CIRCLE('',#1515,0.5);
#225=CIRCLE('',#1516,0.55);
#226=CIRCLE('',#1517,0.55);
#227=CIRCLE('',#1518,0.55);
#228=CIRCLE('',#1519,0.55);
#229=CIRCLE('',#1520,0.1);
#230=CIRCLE('',#1521,0.1);
#231=CIRCLE('',#1522,0.1);
#232=CIRCLE('',#1523,0.1);
#233=CIRCLE('',#1524,0.1);
#234=CIRCLE('',#1525,0.1);
#235=CIRCLE('',#1526,0.1);
#236=CIRCLE('',#1527,0.1);
#237=CIRCLE('',#1528,0.1);
#238=CIRCLE('',#1529,0.1);
#239=CIRCLE('',#1530,0.1);
#240=CIRCLE('',#1531,0.1);
#241=CIRCLE('',#1532,0.5);
#242=CIRCLE('',#1533,0.5);
#243=CIRCLE('',#1534,0.55);
#244=CIRCLE('',#1535,0.55);
#245=CIRCLE('',#1536,0.45);
#246=CIRCLE('',#1537,0.45);
#247=CIRCLE('',#1538,0.375);
#248=CIRCLE('',#1539,0.375);
#249=CIRCLE('',#1540,0.375);
#250=CIRCLE('',#1541,0.55);
#251=CIRCLE('',#1542,0.55);
#252=CIRCLE('',#1543,0.3);
#253=CIRCLE('',#1544,0.3);
#254=CIRCLE('',#1545,0.3);
#255=CIRCLE('',#1546,0.3);
#256=CIRCLE('',#1547,0.325);
#257=CIRCLE('',#1548,0.3);
#258=CIRCLE('',#1549,0.3);
#259=CIRCLE('',#1550,0.325);
#260=CIRCLE('',#1551,0.3);
#261=CIRCLE('',#1552,0.3);
#262=FACE_OUTER_BOUND('',#327,.T.);
#263=FACE_OUTER_BOUND('',#328,.T.);
#264=FACE_OUTER_BOUND('',#329,.T.);
#265=FACE_OUTER_BOUND('',#330,.T.);
#266=FACE_OUTER_BOUND('',#378,.T.);
#267=FACE_OUTER_BOUND('',#426,.T.);
#268=FACE_OUTER_BOUND('',#427,.T.);
#269=FACE_OUTER_BOUND('',#428,.T.);
#270=FACE_OUTER_BOUND('',#429,.T.);
#271=FACE_OUTER_BOUND('',#430,.T.);
#272=FACE_OUTER_BOUND('',#431,.T.);
#273=FACE_OUTER_BOUND('',#432,.T.);
#274=FACE_OUTER_BOUND('',#433,.T.);
#275=FACE_OUTER_BOUND('',#434,.T.);
#276=FACE_OUTER_BOUND('',#435,.T.);
#277=FACE_OUTER_BOUND('',#436,.T.);
#278=FACE_OUTER_BOUND('',#437,.T.);
#279=FACE_OUTER_BOUND('',#438,.T.);
#280=FACE_OUTER_BOUND('',#439,.T.);
#281=FACE_OUTER_BOUND('',#440,.T.);
#282=FACE_OUTER_BOUND('',#441,.T.);
#283=FACE_OUTER_BOUND('',#442,.T.);
#284=FACE_OUTER_BOUND('',#443,.T.);
#285=FACE_OUTER_BOUND('',#444,.T.);
#286=FACE_OUTER_BOUND('',#445,.T.);
#287=FACE_OUTER_BOUND('',#446,.T.);
#288=FACE_OUTER_BOUND('',#447,.T.);
#289=FACE_OUTER_BOUND('',#448,.T.);
#290=FACE_OUTER_BOUND('',#449,.T.);
#291=FACE_OUTER_BOUND('',#450,.T.);
#292=FACE_OUTER_BOUND('',#451,.T.);
#293=FACE_OUTER_BOUND('',#452,.T.);
#294=FACE_OUTER_BOUND('',#453,.T.);
#295=FACE_OUTER_BOUND('',#454,.T.);
#296=FACE_OUTER_BOUND('',#455,.T.);
#297=FACE_OUTER_BOUND('',#456,.T.);
#298=FACE_OUTER_BOUND('',#457,.T.);
#299=FACE_OUTER_BOUND('',#458,.T.);
#300=FACE_OUTER_BOUND('',#459,.T.);
#301=FACE_OUTER_BOUND('',#460,.T.);
#302=FACE_OUTER_BOUND('',#461,.T.);
#303=FACE_OUTER_BOUND('',#462,.T.);
#304=FACE_OUTER_BOUND('',#463,.T.);
#305=FACE_OUTER_BOUND('',#464,.T.);
#306=FACE_OUTER_BOUND('',#465,.T.);
#307=FACE_OUTER_BOUND('',#466,.T.);
#308=FACE_OUTER_BOUND('',#467,.T.);
#309=FACE_OUTER_BOUND('',#468,.T.);
#310=FACE_OUTER_BOUND('',#469,.T.);
#311=FACE_OUTER_BOUND('',#470,.T.);
#312=FACE_OUTER_BOUND('',#471,.T.);
#313=FACE_OUTER_BOUND('',#472,.T.);
#314=FACE_OUTER_BOUND('',#473,.T.);
#315=FACE_OUTER_BOUND('',#474,.T.);
#316=FACE_OUTER_BOUND('',#475,.T.);
#317=FACE_OUTER_BOUND('',#476,.T.);
#318=FACE_OUTER_BOUND('',#477,.T.);
#319=FACE_OUTER_BOUND('',#478,.T.);
#320=FACE_OUTER_BOUND('',#479,.T.);
#321=FACE_OUTER_BOUND('',#480,.T.);
#322=FACE_OUTER_BOUND('',#481,.T.);
#323=FACE_OUTER_BOUND('',#482,.T.);
#324=FACE_OUTER_BOUND('',#483,.T.);
#325=FACE_OUTER_BOUND('',#484,.T.);
#326=FACE_OUTER_BOUND('',#485,.T.);
#327=EDGE_LOOP('',(#975,#976,#977,#978));
#328=EDGE_LOOP('',(#979,#980,#981,#982));
#329=EDGE_LOOP('',(#983,#984,#985,#986));
#330=EDGE_LOOP('',(#987,#988,#989,#990));
#331=EDGE_LOOP('',(#991));
#332=EDGE_LOOP('',(#992));
#333=EDGE_LOOP('',(#993));
#334=EDGE_LOOP('',(#994));
#335=EDGE_LOOP('',(#995));
#336=EDGE_LOOP('',(#996));
#337=EDGE_LOOP('',(#997));
#338=EDGE_LOOP('',(#998));
#339=EDGE_LOOP('',(#999));
#340=EDGE_LOOP('',(#1000));
#341=EDGE_LOOP('',(#1001));
#342=EDGE_LOOP('',(#1002));
#343=EDGE_LOOP('',(#1003));
#344=EDGE_LOOP('',(#1004));
#345=EDGE_LOOP('',(#1005));
#346=EDGE_LOOP('',(#1006));
#347=EDGE_LOOP('',(#1007));
#348=EDGE_LOOP('',(#1008));
#349=EDGE_LOOP('',(#1009));
#350=EDGE_LOOP('',(#1010));
#351=EDGE_LOOP('',(#1011));
#352=EDGE_LOOP('',(#1012));
#353=EDGE_LOOP('',(#1013));
#354=EDGE_LOOP('',(#1014));
#355=EDGE_LOOP('',(#1015));
#356=EDGE_LOOP('',(#1016));
#357=EDGE_LOOP('',(#1017));
#358=EDGE_LOOP('',(#1018));
#359=EDGE_LOOP('',(#1019));
#360=EDGE_LOOP('',(#1020));
#361=EDGE_LOOP('',(#1021));
#362=EDGE_LOOP('',(#1022));
#363=EDGE_LOOP('',(#1023));
#364=EDGE_LOOP('',(#1024));
#365=EDGE_LOOP('',(#1025));
#366=EDGE_LOOP('',(#1026));
#367=EDGE_LOOP('',(#1027));
#368=EDGE_LOOP('',(#1028));
#369=EDGE_LOOP('',(#1029));
#370=EDGE_LOOP('',(#1030));
#371=EDGE_LOOP('',(#1031));
#372=EDGE_LOOP('',(#1032,#1033,#1034,#1035));
#373=EDGE_LOOP('',(#1036,#1037,#1038,#1039));
#374=EDGE_LOOP('',(#1040));
#375=EDGE_LOOP('',(#1041,#1042,#1043,#1044));
#376=EDGE_LOOP('',(#1045));
#377=EDGE_LOOP('',(#1046,#1047,#1048,#1049));
#378=EDGE_LOOP('',(#1050,#1051,#1052,#1053));
#379=EDGE_LOOP('',(#1054));
#380=EDGE_LOOP('',(#1055));
#381=EDGE_LOOP('',(#1056));
#382=EDGE_LOOP('',(#1057));
#383=EDGE_LOOP('',(#1058));
#384=EDGE_LOOP('',(#1059));
#385=EDGE_LOOP('',(#1060));
#386=EDGE_LOOP('',(#1061));
#387=EDGE_LOOP('',(#1062));
#388=EDGE_LOOP('',(#1063));
#389=EDGE_LOOP('',(#1064));
#390=EDGE_LOOP('',(#1065));
#391=EDGE_LOOP('',(#1066));
#392=EDGE_LOOP('',(#1067));
#393=EDGE_LOOP('',(#1068));
#394=EDGE_LOOP('',(#1069));
#395=EDGE_LOOP('',(#1070));
#396=EDGE_LOOP('',(#1071));
#397=EDGE_LOOP('',(#1072));
#398=EDGE_LOOP('',(#1073));
#399=EDGE_LOOP('',(#1074));
#400=EDGE_LOOP('',(#1075));
#401=EDGE_LOOP('',(#1076));
#402=EDGE_LOOP('',(#1077));
#403=EDGE_LOOP('',(#1078));
#404=EDGE_LOOP('',(#1079));
#405=EDGE_LOOP('',(#1080));
#406=EDGE_LOOP('',(#1081));
#407=EDGE_LOOP('',(#1082));
#408=EDGE_LOOP('',(#1083));
#409=EDGE_LOOP('',(#1084));
#410=EDGE_LOOP('',(#1085));
#411=EDGE_LOOP('',(#1086));
#412=EDGE_LOOP('',(#1087));
#413=EDGE_LOOP('',(#1088));
#414=EDGE_LOOP('',(#1089));
#415=EDGE_LOOP('',(#1090));
#416=EDGE_LOOP('',(#1091));
#417=EDGE_LOOP('',(#1092));
#418=EDGE_LOOP('',(#1093));
#419=EDGE_LOOP('',(#1094));
#420=EDGE_LOOP('',(#1095,#1096,#1097,#1098));
#421=EDGE_LOOP('',(#1099,#1100,#1101,#1102));
#422=EDGE_LOOP('',(#1103));
#423=EDGE_LOOP('',(#1104,#1105,#1106,#1107));
#424=EDGE_LOOP('',(#1108));
#425=EDGE_LOOP('',(#1109,#1110,#1111,#1112));
#426=EDGE_LOOP('',(#1113,#1114,#1115,#1116));
#427=EDGE_LOOP('',(#1117,#1118,#1119,#1120));
#428=EDGE_LOOP('',(#1121,#1122,#1123,#1124));
#429=EDGE_LOOP('',(#1125,#1126,#1127,#1128));
#430=EDGE_LOOP('',(#1129,#1130,#1131,#1132));
#431=EDGE_LOOP('',(#1133,#1134,#1135,#1136));
#432=EDGE_LOOP('',(#1137,#1138,#1139,#1140));
#433=EDGE_LOOP('',(#1141,#1142,#1143,#1144));
#434=EDGE_LOOP('',(#1145,#1146,#1147,#1148));
#435=EDGE_LOOP('',(#1149,#1150,#1151,#1152));
#436=EDGE_LOOP('',(#1153,#1154,#1155,#1156));
#437=EDGE_LOOP('',(#1157,#1158,#1159,#1160));
#438=EDGE_LOOP('',(#1161,#1162,#1163,#1164));
#439=EDGE_LOOP('',(#1165,#1166,#1167,#1168));
#440=EDGE_LOOP('',(#1169,#1170,#1171,#1172));
#441=EDGE_LOOP('',(#1173,#1174,#1175,#1176));
#442=EDGE_LOOP('',(#1177,#1178,#1179,#1180));
#443=EDGE_LOOP('',(#1181,#1182,#1183,#1184));
#444=EDGE_LOOP('',(#1185,#1186,#1187,#1188));
#445=EDGE_LOOP('',(#1189,#1190,#1191,#1192));
#446=EDGE_LOOP('',(#1193,#1194,#1195,#1196));
#447=EDGE_LOOP('',(#1197,#1198,#1199,#1200));
#448=EDGE_LOOP('',(#1201,#1202,#1203,#1204));
#449=EDGE_LOOP('',(#1205,#1206,#1207,#1208));
#450=EDGE_LOOP('',(#1209,#1210,#1211,#1212));
#451=EDGE_LOOP('',(#1213,#1214,#1215,#1216));
#452=EDGE_LOOP('',(#1217,#1218,#1219,#1220));
#453=EDGE_LOOP('',(#1221,#1222,#1223,#1224));
#454=EDGE_LOOP('',(#1225,#1226,#1227,#1228));
#455=EDGE_LOOP('',(#1229,#1230,#1231,#1232));
#456=EDGE_LOOP('',(#1233,#1234,#1235,#1236));
#457=EDGE_LOOP('',(#1237,#1238,#1239,#1240));
#458=EDGE_LOOP('',(#1241,#1242,#1243,#1244));
#459=EDGE_LOOP('',(#1245,#1246,#1247,#1248));
#460=EDGE_LOOP('',(#1249,#1250,#1251,#1252));
#461=EDGE_LOOP('',(#1253,#1254,#1255,#1256));
#462=EDGE_LOOP('',(#1257,#1258,#1259,#1260));
#463=EDGE_LOOP('',(#1261,#1262,#1263,#1264));
#464=EDGE_LOOP('',(#1265,#1266,#1267,#1268));
#465=EDGE_LOOP('',(#1269,#1270,#1271,#1272));
#466=EDGE_LOOP('',(#1273,#1274,#1275,#1276));
#467=EDGE_LOOP('',(#1277,#1278,#1279,#1280));
#468=EDGE_LOOP('',(#1281,#1282,#1283,#1284));
#469=EDGE_LOOP('',(#1285,#1286,#1287,#1288));
#470=EDGE_LOOP('',(#1289,#1290,#1291,#1292));
#471=EDGE_LOOP('',(#1293,#1294,#1295,#1296));
#472=EDGE_LOOP('',(#1297,#1298,#1299,#1300));
#473=EDGE_LOOP('',(#1301,#1302,#1303,#1304));
#474=EDGE_LOOP('',(#1305,#1306,#1307,#1308));
#475=EDGE_LOOP('',(#1309,#1310,#1311,#1312));
#476=EDGE_LOOP('',(#1313,#1314,#1315,#1316));
#477=EDGE_LOOP('',(#1317,#1318,#1319,#1320));
#478=EDGE_LOOP('',(#1321,#1322,#1323,#1324));
#479=EDGE_LOOP('',(#1325,#1326,#1327,#1328));
#480=EDGE_LOOP('',(#1329,#1330,#1331,#1332));
#481=EDGE_LOOP('',(#1333,#1334,#1335,#1336));
#482=EDGE_LOOP('',(#1337,#1338,#1339,#1340));
#483=EDGE_LOOP('',(#1341,#1342,#1343,#1344));
#484=EDGE_LOOP('',(#1345,#1346,#1347,#1348));
#485=EDGE_LOOP('',(#1349,#1350,#1351,#1352));
#486=LINE('',#2040,#573);
#487=LINE('',#2042,#574);
#488=LINE('',#2044,#575);
#489=LINE('',#2045,#576);
#490=LINE('',#2049,#577);
#491=LINE('',#2050,#578);
#492=LINE('',#2051,#579);
#493=LINE('',#2054,#580);
#494=LINE('',#2056,#581);
#495=LINE('',#2057,#582);
#496=LINE('',#2059,#583);
#497=LINE('',#2146,#584);
#498=LINE('',#2149,#585);
#499=LINE('',#2154,#586);
#500=LINE('',#2157,#587);
#501=LINE('',#2164,#588);
#502=LINE('',#2167,#589);
#503=LINE('',#2174,#590);
#504=LINE('',#2177,#591);
#505=LINE('',#2179,#592);
#506=LINE('',#2266,#593);
#507=LINE('',#2269,#594);
#508=LINE('',#2274,#595);
#509=LINE('',#2277,#596);
#510=LINE('',#2284,#597);
#511=LINE('',#2287,#598);
#512=LINE('',#2294,#599);
#513=LINE('',#2297,#600);
#514=LINE('',#2300,#601);
#515=LINE('',#2302,#602);
#516=LINE('',#2304,#603);
#517=LINE('',#2306,#604);
#518=LINE('',#2308,#605);
#519=LINE('',#2310,#606);
#520=LINE('',#2312,#607);
#521=LINE('',#2314,#608);
#522=LINE('',#2316,#609);
#523=LINE('',#2318,#610);
#524=LINE('',#2320,#611);
#525=LINE('',#2322,#612);
#526=LINE('',#2324,#613);
#527=LINE('',#2326,#614);
#528=LINE('',#2328,#615);
#529=LINE('',#2330,#616);
#530=LINE('',#2332,#617);
#531=LINE('',#2334,#618);
#532=LINE('',#2336,#619);
#533=LINE('',#2338,#620);
#534=LINE('',#2340,#621);
#535=LINE('',#2342,#622);
#536=LINE('',#2344,#623);
#537=LINE('',#2346,#624);
#538=LINE('',#2348,#625);
#539=LINE('',#2350,#626);
#540=LINE('',#2352,#627);
#541=LINE('',#2354,#628);
#542=LINE('',#2356,#629);
#543=LINE('',#2358,#630);
#544=LINE('',#2360,#631);
#545=LINE('',#2362,#632);
#546=LINE('',#2364,#633);
#547=LINE('',#2366,#634);
#548=LINE('',#2368,#635);
#549=LINE('',#2370,#636);
#550=LINE('',#2372,#637);
#551=LINE('',#2374,#638);
#552=LINE('',#2376,#639);
#553=LINE('',#2378,#640);
#554=LINE('',#2380,#641);
#555=LINE('',#2382,#642);
#556=LINE('',#2383,#643);
#557=LINE('',#2385,#644);
#558=LINE('',#2387,#645);
#559=LINE('',#2390,#646);
#560=LINE('',#2391,#647);
#561=LINE('',#2393,#648);
#562=LINE('',#2395,#649);
#563=LINE('',#2398,#650);
#564=LINE('',#2400,#651);
#565=LINE('',#2401,#652);
#566=LINE('',#2403,#653);
#567=LINE('',#2405,#654);
#568=LINE('',#2408,#655);
#569=LINE('',#2410,#656);
#570=LINE('',#2411,#657);
#571=LINE('',#2413,#658);
#572=LINE('',#2415,#659);
#573=VECTOR('',#1617,1.);
#574=VECTOR('',#1618,1.);
#575=VECTOR('',#1619,1.);
#576=VECTOR('',#1620,1.);
#577=VECTOR('',#1623,1.);
#578=VECTOR('',#1624,1.);
#579=VECTOR('',#1625,1.);
#580=VECTOR('',#1628,1.);
#581=VECTOR('',#1629,1.);
#582=VECTOR('',#1630,1.);
#583=VECTOR('',#1633,1.);
#584=VECTOR('',#1718,1.);
#585=VECTOR('',#1721,1.);
#586=VECTOR('',#1724,1.);
#587=VECTOR('',#1727,1.);
#588=VECTOR('',#1732,1.);
#589=VECTOR('',#1735,1.);
#590=VECTOR('',#1740,1.);
#591=VECTOR('',#1743,1.);
#592=VECTOR('',#1746,1.);
#593=VECTOR('',#1831,1.);
#594=VECTOR('',#1834,1.);
#595=VECTOR('',#1837,1.);
#596=VECTOR('',#1840,1.);
#597=VECTOR('',#1845,1.);
#598=VECTOR('',#1848,1.);
#599=VECTOR('',#1853,1.);
#600=VECTOR('',#1856,1.);
#601=VECTOR('',#1861,0.5);
#602=VECTOR('',#1864,0.5);
#603=VECTOR('',#1867,0.5);
#604=VECTOR('',#1870,0.5);
#605=VECTOR('',#1873,0.5);
#606=VECTOR('',#1876,0.5);
#607=VECTOR('',#1879,0.5);
#608=VECTOR('',#1882,0.5);
#609=VECTOR('',#1885,0.5);
#610=VECTOR('',#1888,0.5);
#611=VECTOR('',#1891,0.5);
#612=VECTOR('',#1894,0.5);
#613=VECTOR('',#1897,0.5);
#614=VECTOR('',#1900,0.5);
#615=VECTOR('',#1903,0.55);
#616=VECTOR('',#1906,0.55);
#617=VECTOR('',#1909,0.55);
#618=VECTOR('',#1912,0.55);
#619=VECTOR('',#1915,0.1);
#620=VECTOR('',#1918,0.1);
#621=VECTOR('',#1921,0.1);
#622=VECTOR('',#1924,0.1);
#623=VECTOR('',#1927,0.1);
#624=VECTOR('',#1930,0.1);
#625=VECTOR('',#1933,0.1);
#626=VECTOR('',#1936,0.1);
#627=VECTOR('',#1939,0.1);
#628=VECTOR('',#1942,0.1);
#629=VECTOR('',#1945,0.1);
#630=VECTOR('',#1948,0.1);
#631=VECTOR('',#1951,0.5);
#632=VECTOR('',#1954,0.5);
#633=VECTOR('',#1957,0.55);
#634=VECTOR('',#1960,0.55);
#635=VECTOR('',#1963,0.45);
#636=VECTOR('',#1966,0.45);
#637=VECTOR('',#1969,0.375);
#638=VECTOR('',#1972,0.375);
#639=VECTOR('',#1975,0.375);
#640=VECTOR('',#1978,0.55);
#641=VECTOR('',#1981,0.55);
#642=VECTOR('',#1984,1.);
#643=VECTOR('',#1985,1.);
#644=VECTOR('',#1988,1.);
#645=VECTOR('',#1991,1.);
#646=VECTOR('',#1996,1.);
#647=VECTOR('',#1997,1.);
#648=VECTOR('',#2000,1.);
#649=VECTOR('',#2003,1.);
#650=VECTOR('',#2008,0.325);
#651=VECTOR('',#2011,1.);
#652=VECTOR('',#2012,1.);
#653=VECTOR('',#2015,1.);
#654=VECTOR('',#2018,1.);
#655=VECTOR('',#2023,0.325);
#656=VECTOR('',#2026,1.);
#657=VECTOR('',#2027,1.);
#658=VECTOR('',#2030,1.);
#659=VECTOR('',#2033,1.);
#660=VERTEX_POINT('',#2038);
#661=VERTEX_POINT('',#2039);
#662=VERTEX_POINT('',#2041);
#663=VERTEX_POINT('',#2043);
#664=VERTEX_POINT('',#2047);
#665=VERTEX_POINT('',#2048);
#666=VERTEX_POINT('',#2053);
#667=VERTEX_POINT('',#2055);
#668=VERTEX_POINT('',#2060);
#669=VERTEX_POINT('',#2062);
#670=VERTEX_POINT('',#2064);
#671=VERTEX_POINT('',#2066);
#672=VERTEX_POINT('',#2068);
#673=VERTEX_POINT('',#2070);
#674=VERTEX_POINT('',#2072);
#675=VERTEX_POINT('',#2074);
#676=VERTEX_POINT('',#2076);
#677=VERTEX_POINT('',#2078);
#678=VERTEX_POINT('',#2080);
#679=VERTEX_POINT('',#2082);
#680=VERTEX_POINT('',#2084);
#681=VERTEX_POINT('',#2086);
#682=VERTEX_POINT('',#2088);
#683=VERTEX_POINT('',#2090);
#684=VERTEX_POINT('',#2092);
#685=VERTEX_POINT('',#2094);
#686=VERTEX_POINT('',#2096);
#687=VERTEX_POINT('',#2098);
#688=VERTEX_POINT('',#2100);
#689=VERTEX_POINT('',#2102);
#690=VERTEX_POINT('',#2104);
#691=VERTEX_POINT('',#2106);
#692=VERTEX_POINT('',#2108);
#693=VERTEX_POINT('',#2110);
#694=VERTEX_POINT('',#2112);
#695=VERTEX_POINT('',#2114);
#696=VERTEX_POINT('',#2116);
#697=VERTEX_POINT('',#2118);
#698=VERTEX_POINT('',#2120);
#699=VERTEX_POINT('',#2122);
#700=VERTEX_POINT('',#2124);
#701=VERTEX_POINT('',#2126);
#702=VERTEX_POINT('',#2128);
#703=VERTEX_POINT('',#2130);
#704=VERTEX_POINT('',#2132);
#705=VERTEX_POINT('',#2134);
#706=VERTEX_POINT('',#2136);
#707=VERTEX_POINT('',#2138);
#708=VERTEX_POINT('',#2140);
#709=VERTEX_POINT('',#2142);
#710=VERTEX_POINT('',#2143);
#711=VERTEX_POINT('',#2145);
#712=VERTEX_POINT('',#2147);
#713=VERTEX_POINT('',#2150);
#714=VERTEX_POINT('',#2151);
#715=VERTEX_POINT('',#2153);
#716=VERTEX_POINT('',#2155);
#717=VERTEX_POINT('',#2158);
#718=VERTEX_POINT('',#2160);
#719=VERTEX_POINT('',#2161);
#720=VERTEX_POINT('',#2163);
#721=VERTEX_POINT('',#2165);
#722=VERTEX_POINT('',#2168);
#723=VERTEX_POINT('',#2170);
#724=VERTEX_POINT('',#2171);
#725=VERTEX_POINT('',#2173);
#726=VERTEX_POINT('',#2175);
#727=VERTEX_POINT('',#2180);
#728=VERTEX_POINT('',#2182);
#729=VERTEX_POINT('',#2184);
#730=VERTEX_POINT('',#2186);
#731=VERTEX_POINT('',#2188);
#732=VERTEX_POINT('',#2190);
#733=VERTEX_POINT('',#2192);
#734=VERTEX_POINT('',#2194);
#735=VERTEX_POINT('',#2196);
#736=VERTEX_POINT('',#2198);
#737=VERTEX_POINT('',#2200);
#738=VERTEX_POINT('',#2202);
#739=VERTEX_POINT('',#2204);
#740=VERTEX_POINT('',#2206);
#741=VERTEX_POINT('',#2208);
#742=VERTEX_POINT('',#2210);
#743=VERTEX_POINT('',#2212);
#744=VERTEX_POINT('',#2214);
#745=VERTEX_POINT('',#2216);
#746=VERTEX_POINT('',#2218);
#747=VERTEX_POINT('',#2220);
#748=VERTEX_POINT('',#2222);
#749=VERTEX_POINT('',#2224);
#750=VERTEX_POINT('',#2226);
#751=VERTEX_POINT('',#2228);
#752=VERTEX_POINT('',#2230);
#753=VERTEX_POINT('',#2232);
#754=VERTEX_POINT('',#2234);
#755=VERTEX_POINT('',#2236);
#756=VERTEX_POINT('',#2238);
#757=VERTEX_POINT('',#2240);
#758=VERTEX_POINT('',#2242);
#759=VERTEX_POINT('',#2244);
#760=VERTEX_POINT('',#2246);
#761=VERTEX_POINT('',#2248);
#762=VERTEX_POINT('',#2250);
#763=VERTEX_POINT('',#2252);
#764=VERTEX_POINT('',#2254);
#765=VERTEX_POINT('',#2256);
#766=VERTEX_POINT('',#2258);
#767=VERTEX_POINT('',#2260);
#768=VERTEX_POINT('',#2262);
#769=VERTEX_POINT('',#2263);
#770=VERTEX_POINT('',#2265);
#771=VERTEX_POINT('',#2267);
#772=VERTEX_POINT('',#2270);
#773=VERTEX_POINT('',#2271);
#774=VERTEX_POINT('',#2273);
#775=VERTEX_POINT('',#2275);
#776=VERTEX_POINT('',#2278);
#777=VERTEX_POINT('',#2280);
#778=VERTEX_POINT('',#2281);
#779=VERTEX_POINT('',#2283);
#780=VERTEX_POINT('',#2285);
#781=VERTEX_POINT('',#2288);
#782=VERTEX_POINT('',#2290);
#783=VERTEX_POINT('',#2291);
#784=VERTEX_POINT('',#2293);
#785=VERTEX_POINT('',#2295);
#786=EDGE_CURVE('',#660,#661,#486,.T.);
#787=EDGE_CURVE('',#661,#662,#487,.T.);
#788=EDGE_CURVE('',#663,#662,#488,.T.);
#789=EDGE_CURVE('',#660,#663,#489,.T.);
#790=EDGE_CURVE('',#664,#665,#490,.T.);
#791=EDGE_CURVE('',#665,#661,#491,.T.);
#792=EDGE_CURVE('',#664,#660,#492,.T.);
#793=EDGE_CURVE('',#662,#666,#493,.T.);
#794=EDGE_CURVE('',#667,#666,#494,.T.);
#795=EDGE_CURVE('',#663,#667,#495,.T.);
#796=EDGE_CURVE('',#667,#664,#496,.T.);
#797=EDGE_CURVE('',#668,#668,#160,.T.);
#798=EDGE_CURVE('',#669,#669,#161,.T.);
#799=EDGE_CURVE('',#670,#670,#162,.T.);
#800=EDGE_CURVE('',#671,#671,#163,.T.);
#801=EDGE_CURVE('',#672,#672,#164,.T.);
#802=EDGE_CURVE('',#673,#673,#165,.T.);
#803=EDGE_CURVE('',#674,#674,#166,.T.);
#804=EDGE_CURVE('',#675,#675,#167,.T.);
#805=EDGE_CURVE('',#676,#676,#168,.T.);
#806=EDGE_CURVE('',#677,#677,#169,.T.);
#807=EDGE_CURVE('',#678,#678,#170,.T.);
#808=EDGE_CURVE('',#679,#679,#171,.T.);
#809=EDGE_CURVE('',#680,#680,#172,.T.);
#810=EDGE_CURVE('',#681,#681,#173,.T.);
#811=EDGE_CURVE('',#682,#682,#174,.T.);
#812=EDGE_CURVE('',#683,#683,#175,.T.);
#813=EDGE_CURVE('',#684,#684,#176,.T.);
#814=EDGE_CURVE('',#685,#685,#177,.T.);
#815=EDGE_CURVE('',#686,#686,#178,.T.);
#816=EDGE_CURVE('',#687,#687,#179,.T.);
#817=EDGE_CURVE('',#688,#688,#180,.T.);
#818=EDGE_CURVE('',#689,#689,#181,.T.);
#819=EDGE_CURVE('',#690,#690,#182,.T.);
#820=EDGE_CURVE('',#691,#691,#183,.T.);
#821=EDGE_CURVE('',#692,#692,#184,.T.);
#822=EDGE_CURVE('',#693,#693,#185,.T.);
#823=EDGE_CURVE('',#694,#694,#186,.T.);
#824=EDGE_CURVE('',#695,#695,#187,.T.);
#825=EDGE_CURVE('',#696,#696,#188,.T.);
#826=EDGE_CURVE('',#697,#697,#189,.T.);
#827=EDGE_CURVE('',#698,#698,#190,.T.);
#828=EDGE_CURVE('',#699,#699,#191,.T.);
#829=EDGE_CURVE('',#700,#700,#192,.T.);
#830=EDGE_CURVE('',#701,#701,#193,.T.);
#831=EDGE_CURVE('',#702,#702,#194,.T.);
#832=EDGE_CURVE('',#703,#703,#195,.T.);
#833=EDGE_CURVE('',#704,#704,#196,.T.);
#834=EDGE_CURVE('',#705,#705,#197,.T.);
#835=EDGE_CURVE('',#706,#706,#198,.T.);
#836=EDGE_CURVE('',#707,#707,#199,.T.);
#837=EDGE_CURVE('',#708,#708,#200,.T.);
#838=EDGE_CURVE('',#709,#710,#201,.T.);
#839=EDGE_CURVE('',#711,#709,#497,.T.);
#840=EDGE_CURVE('',#712,#711,#202,.T.);
#841=EDGE_CURVE('',#710,#712,#498,.T.);
#842=EDGE_CURVE('',#713,#714,#203,.T.);
#843=EDGE_CURVE('',#715,#713,#499,.T.);
#844=EDGE_CURVE('',#716,#715,#204,.T.);
#845=EDGE_CURVE('',#714,#716,#500,.T.);
#846=EDGE_CURVE('',#717,#717,#205,.T.);
#847=EDGE_CURVE('',#718,#719,#206,.T.);
#848=EDGE_CURVE('',#720,#718,#501,.T.);
#849=EDGE_CURVE('',#721,#720,#207,.T.);
#850=EDGE_CURVE('',#719,#721,#502,.T.);
#851=EDGE_CURVE('',#722,#722,#208,.T.);
#852=EDGE_CURVE('',#723,#724,#209,.T.);
#853=EDGE_CURVE('',#725,#723,#503,.T.);
#854=EDGE_CURVE('',#726,#725,#210,.T.);
#855=EDGE_CURVE('',#724,#726,#504,.T.);
#856=EDGE_CURVE('',#666,#665,#505,.T.);
#857=EDGE_CURVE('',#727,#727,#211,.T.);
#858=EDGE_CURVE('',#728,#728,#212,.T.);
#859=EDGE_CURVE('',#729,#729,#213,.T.);
#860=EDGE_CURVE('',#730,#730,#214,.T.);
#861=EDGE_CURVE('',#731,#731,#215,.T.);
#862=EDGE_CURVE('',#732,#732,#216,.T.);
#863=EDGE_CURVE('',#733,#733,#217,.T.);
#864=EDGE_CURVE('',#734,#734,#218,.T.);
#865=EDGE_CURVE('',#735,#735,#219,.T.);
#866=EDGE_CURVE('',#736,#736,#220,.T.);
#867=EDGE_CURVE('',#737,#737,#221,.T.);
#868=EDGE_CURVE('',#738,#738,#222,.T.);
#869=EDGE_CURVE('',#739,#739,#223,.T.);
#870=EDGE_CURVE('',#740,#740,#224,.T.);
#871=EDGE_CURVE('',#741,#741,#225,.T.);
#872=EDGE_CURVE('',#742,#742,#226,.T.);
#873=EDGE_CURVE('',#743,#743,#227,.T.);
#874=EDGE_CURVE('',#744,#744,#228,.T.);
#875=EDGE_CURVE('',#745,#745,#229,.T.);
#876=EDGE_CURVE('',#746,#746,#230,.T.);
#877=EDGE_CURVE('',#747,#747,#231,.T.);
#878=EDGE_CURVE('',#748,#748,#232,.T.);
#879=EDGE_CURVE('',#749,#749,#233,.T.);
#880=EDGE_CURVE('',#750,#750,#234,.T.);
#881=EDGE_CURVE('',#751,#751,#235,.T.);
#882=EDGE_CURVE('',#752,#752,#236,.T.);
#883=EDGE_CURVE('',#753,#753,#237,.T.);
#884=EDGE_CURVE('',#754,#754,#238,.T.);
#885=EDGE_CURVE('',#755,#755,#239,.T.);
#886=EDGE_CURVE('',#756,#756,#240,.T.);
#887=EDGE_CURVE('',#757,#757,#241,.T.);
#888=EDGE_CURVE('',#758,#758,#242,.T.);
#889=EDGE_CURVE('',#759,#759,#243,.T.);
#890=EDGE_CURVE('',#760,#760,#244,.T.);
#891=EDGE_CURVE('',#761,#761,#245,.T.);
#892=EDGE_CURVE('',#762,#762,#246,.T.);
#893=EDGE_CURVE('',#763,#763,#247,.T.);
#894=EDGE_CURVE('',#764,#764,#248,.T.);
#895=EDGE_CURVE('',#765,#765,#249,.T.);
#896=EDGE_CURVE('',#766,#766,#250,.T.);
#897=EDGE_CURVE('',#767,#767,#251,.T.);
#898=EDGE_CURVE('',#768,#769,#252,.T.);
#899=EDGE_CURVE('',#769,#770,#506,.T.);
#900=EDGE_CURVE('',#770,#771,#253,.T.);
#901=EDGE_CURVE('',#771,#768,#507,.T.);
#902=EDGE_CURVE('',#772,#773,#254,.T.);
#903=EDGE_CURVE('',#773,#774,#508,.T.);
#904=EDGE_CURVE('',#774,#775,#255,.T.);
#905=EDGE_CURVE('',#775,#772,#509,.T.);
#906=EDGE_CURVE('',#776,#776,#256,.T.);
#907=EDGE_CURVE('',#777,#778,#257,.T.);
#908=EDGE_CURVE('',#778,#779,#510,.T.);
#909=EDGE_CURVE('',#779,#780,#258,.T.);
#910=EDGE_CURVE('',#780,#777,#511,.T.);
#911=EDGE_CURVE('',#781,#781,#259,.T.);
#912=EDGE_CURVE('',#782,#783,#260,.T.);
#913=EDGE_CURVE('',#783,#784,#512,.T.);
#914=EDGE_CURVE('',#784,#785,#261,.T.);
#915=EDGE_CURVE('',#785,#782,#513,.T.);
#916=EDGE_CURVE('',#727,#668,#514,.T.);
#917=EDGE_CURVE('',#728,#669,#515,.T.);
#918=EDGE_CURVE('',#729,#670,#516,.T.);
#919=EDGE_CURVE('',#730,#671,#517,.T.);
#920=EDGE_CURVE('',#731,#672,#518,.T.);
#921=EDGE_CURVE('',#732,#673,#519,.T.);
#922=EDGE_CURVE('',#733,#674,#520,.T.);
#923=EDGE_CURVE('',#734,#675,#521,.T.);
#924=EDGE_CURVE('',#735,#676,#522,.T.);
#925=EDGE_CURVE('',#736,#677,#523,.T.);
#926=EDGE_CURVE('',#737,#678,#524,.T.);
#927=EDGE_CURVE('',#738,#679,#525,.T.);
#928=EDGE_CURVE('',#739,#680,#526,.T.);
#929=EDGE_CURVE('',#740,#681,#527,.T.);
#930=EDGE_CURVE('',#741,#682,#528,.T.);
#931=EDGE_CURVE('',#742,#683,#529,.T.);
#932=EDGE_CURVE('',#743,#684,#530,.T.);
#933=EDGE_CURVE('',#744,#685,#531,.T.);
#934=EDGE_CURVE('',#745,#686,#532,.T.);
#935=EDGE_CURVE('',#746,#687,#533,.T.);
#936=EDGE_CURVE('',#747,#688,#534,.T.);
#937=EDGE_CURVE('',#748,#689,#535,.T.);
#938=EDGE_CURVE('',#749,#690,#536,.T.);
#939=EDGE_CURVE('',#750,#691,#537,.T.);
#940=EDGE_CURVE('',#751,#692,#538,.T.);
#941=EDGE_CURVE('',#752,#693,#539,.T.);
#942=EDGE_CURVE('',#753,#694,#540,.T.);
#943=EDGE_CURVE('',#754,#695,#541,.T.);
#944=EDGE_CURVE('',#755,#696,#542,.T.);
#945=EDGE_CURVE('',#756,#697,#543,.T.);
#946=EDGE_CURVE('',#757,#698,#544,.T.);
#947=EDGE_CURVE('',#758,#699,#545,.T.);
#948=EDGE_CURVE('',#759,#700,#546,.T.);
#949=EDGE_CURVE('',#760,#701,#547,.T.);
#950=EDGE_CURVE('',#761,#702,#548,.T.);
#951=EDGE_CURVE('',#762,#703,#549,.T.);
#952=EDGE_CURVE('',#763,#704,#550,.T.);
#953=EDGE_CURVE('',#764,#705,#551,.T.);
#954=EDGE_CURVE('',#765,#706,#552,.T.);
#955=EDGE_CURVE('',#766,#707,#553,.T.);
#956=EDGE_CURVE('',#767,#708,#554,.T.);
#957=EDGE_CURVE('',#710,#769,#555,.T.);
#958=EDGE_CURVE('',#709,#768,#556,.T.);
#959=EDGE_CURVE('',#711,#771,#557,.T.);
#960=EDGE_CURVE('',#712,#770,#558,.T.);
#961=EDGE_CURVE('',#714,#773,#559,.T.);
#962=EDGE_CURVE('',#713,#772,#560,.T.);
#963=EDGE_CURVE('',#715,#775,#561,.T.);
#964=EDGE_CURVE('',#716,#774,#562,.T.);
#965=EDGE_CURVE('',#776,#717,#563,.T.);
#966=EDGE_CURVE('',#719,#778,#564,.T.);
#967=EDGE_CURVE('',#718,#777,#565,.T.);
#968=EDGE_CURVE('',#720,#780,#566,.T.);
#969=EDGE_CURVE('',#721,#779,#567,.T.);
#970=EDGE_CURVE('',#781,#722,#568,.T.);
#971=EDGE_CURVE('',#724,#783,#569,.T.);
#972=EDGE_CURVE('',#723,#782,#570,.T.);
#973=EDGE_CURVE('',#725,#785,#571,.T.);
#974=EDGE_CURVE('',#726,#784,#572,.T.);
#975=ORIENTED_EDGE('',*,*,#786,.T.);
#976=ORIENTED_EDGE('',*,*,#787,.T.);
#977=ORIENTED_EDGE('',*,*,#788,.F.);
#978=ORIENTED_EDGE('',*,*,#789,.F.);
#979=ORIENTED_EDGE('',*,*,#790,.T.);
#980=ORIENTED_EDGE('',*,*,#791,.T.);
#981=ORIENTED_EDGE('',*,*,#786,.F.);
#982=ORIENTED_EDGE('',*,*,#792,.F.);
#983=ORIENTED_EDGE('',*,*,#788,.T.);
#984=ORIENTED_EDGE('',*,*,#793,.T.);
#985=ORIENTED_EDGE('',*,*,#794,.F.);
#986=ORIENTED_EDGE('',*,*,#795,.F.);
#987=ORIENTED_EDGE('',*,*,#789,.T.);
#988=ORIENTED_EDGE('',*,*,#795,.T.);
#989=ORIENTED_EDGE('',*,*,#796,.T.);
#990=ORIENTED_EDGE('',*,*,#792,.T.);
#991=ORIENTED_EDGE('',*,*,#797,.F.);
#992=ORIENTED_EDGE('',*,*,#798,.F.);
#993=ORIENTED_EDGE('',*,*,#799,.F.);
#994=ORIENTED_EDGE('',*,*,#800,.F.);
#995=ORIENTED_EDGE('',*,*,#801,.F.);
#996=ORIENTED_EDGE('',*,*,#802,.F.);
#997=ORIENTED_EDGE('',*,*,#803,.F.);
#998=ORIENTED_EDGE('',*,*,#804,.F.);
#999=ORIENTED_EDGE('',*,*,#805,.F.);
#1000=ORIENTED_EDGE('',*,*,#806,.F.);
#1001=ORIENTED_EDGE('',*,*,#807,.F.);
#1002=ORIENTED_EDGE('',*,*,#808,.F.);
#1003=ORIENTED_EDGE('',*,*,#809,.F.);
#1004=ORIENTED_EDGE('',*,*,#810,.F.);
#1005=ORIENTED_EDGE('',*,*,#811,.F.);
#1006=ORIENTED_EDGE('',*,*,#812,.F.);
#1007=ORIENTED_EDGE('',*,*,#813,.F.);
#1008=ORIENTED_EDGE('',*,*,#814,.F.);
#1009=ORIENTED_EDGE('',*,*,#815,.F.);
#1010=ORIENTED_EDGE('',*,*,#816,.F.);
#1011=ORIENTED_EDGE('',*,*,#817,.F.);
#1012=ORIENTED_EDGE('',*,*,#818,.F.);
#1013=ORIENTED_EDGE('',*,*,#819,.F.);
#1014=ORIENTED_EDGE('',*,*,#820,.F.);
#1015=ORIENTED_EDGE('',*,*,#821,.F.);
#1016=ORIENTED_EDGE('',*,*,#822,.F.);
#1017=ORIENTED_EDGE('',*,*,#823,.F.);
#1018=ORIENTED_EDGE('',*,*,#824,.F.);
#1019=ORIENTED_EDGE('',*,*,#825,.F.);
#1020=ORIENTED_EDGE('',*,*,#826,.F.);
#1021=ORIENTED_EDGE('',*,*,#827,.F.);
#1022=ORIENTED_EDGE('',*,*,#828,.F.);
#1023=ORIENTED_EDGE('',*,*,#829,.F.);
#1024=ORIENTED_EDGE('',*,*,#830,.F.);
#1025=ORIENTED_EDGE('',*,*,#831,.F.);
#1026=ORIENTED_EDGE('',*,*,#832,.F.);
#1027=ORIENTED_EDGE('',*,*,#833,.F.);
#1028=ORIENTED_EDGE('',*,*,#834,.F.);
#1029=ORIENTED_EDGE('',*,*,#835,.F.);
#1030=ORIENTED_EDGE('',*,*,#836,.F.);
#1031=ORIENTED_EDGE('',*,*,#837,.F.);
#1032=ORIENTED_EDGE('',*,*,#838,.F.);
#1033=ORIENTED_EDGE('',*,*,#839,.F.);
#1034=ORIENTED_EDGE('',*,*,#840,.F.);
#1035=ORIENTED_EDGE('',*,*,#841,.F.);
#1036=ORIENTED_EDGE('',*,*,#842,.F.);
#1037=ORIENTED_EDGE('',*,*,#843,.F.);
#1038=ORIENTED_EDGE('',*,*,#844,.F.);
#1039=ORIENTED_EDGE('',*,*,#845,.F.);
#1040=ORIENTED_EDGE('',*,*,#846,.F.);
#1041=ORIENTED_EDGE('',*,*,#847,.F.);
#1042=ORIENTED_EDGE('',*,*,#848,.F.);
#1043=ORIENTED_EDGE('',*,*,#849,.F.);
#1044=ORIENTED_EDGE('',*,*,#850,.F.);
#1045=ORIENTED_EDGE('',*,*,#851,.F.);
#1046=ORIENTED_EDGE('',*,*,#852,.F.);
#1047=ORIENTED_EDGE('',*,*,#853,.F.);
#1048=ORIENTED_EDGE('',*,*,#854,.F.);
#1049=ORIENTED_EDGE('',*,*,#855,.F.);
#1050=ORIENTED_EDGE('',*,*,#787,.F.);
#1051=ORIENTED_EDGE('',*,*,#791,.F.);
#1052=ORIENTED_EDGE('',*,*,#856,.F.);
#1053=ORIENTED_EDGE('',*,*,#793,.F.);
#1054=ORIENTED_EDGE('',*,*,#857,.T.);
#1055=ORIENTED_EDGE('',*,*,#858,.T.);
#1056=ORIENTED_EDGE('',*,*,#859,.T.);
#1057=ORIENTED_EDGE('',*,*,#860,.T.);
#1058=ORIENTED_EDGE('',*,*,#861,.T.);
#1059=ORIENTED_EDGE('',*,*,#862,.T.);
#1060=ORIENTED_EDGE('',*,*,#863,.T.);
#1061=ORIENTED_EDGE('',*,*,#864,.T.);
#1062=ORIENTED_EDGE('',*,*,#865,.T.);
#1063=ORIENTED_EDGE('',*,*,#866,.T.);
#1064=ORIENTED_EDGE('',*,*,#867,.T.);
#1065=ORIENTED_EDGE('',*,*,#868,.T.);
#1066=ORIENTED_EDGE('',*,*,#869,.T.);
#1067=ORIENTED_EDGE('',*,*,#870,.T.);
#1068=ORIENTED_EDGE('',*,*,#871,.T.);
#1069=ORIENTED_EDGE('',*,*,#872,.T.);
#1070=ORIENTED_EDGE('',*,*,#873,.T.);
#1071=ORIENTED_EDGE('',*,*,#874,.T.);
#1072=ORIENTED_EDGE('',*,*,#875,.T.);
#1073=ORIENTED_EDGE('',*,*,#876,.T.);
#1074=ORIENTED_EDGE('',*,*,#877,.T.);
#1075=ORIENTED_EDGE('',*,*,#878,.T.);
#1076=ORIENTED_EDGE('',*,*,#879,.T.);
#1077=ORIENTED_EDGE('',*,*,#880,.T.);
#1078=ORIENTED_EDGE('',*,*,#881,.T.);
#1079=ORIENTED_EDGE('',*,*,#882,.T.);
#1080=ORIENTED_EDGE('',*,*,#883,.T.);
#1081=ORIENTED_EDGE('',*,*,#884,.T.);
#1082=ORIENTED_EDGE('',*,*,#885,.T.);
#1083=ORIENTED_EDGE('',*,*,#886,.T.);
#1084=ORIENTED_EDGE('',*,*,#887,.T.);
#1085=ORIENTED_EDGE('',*,*,#888,.T.);
#1086=ORIENTED_EDGE('',*,*,#889,.T.);
#1087=ORIENTED_EDGE('',*,*,#890,.T.);
#1088=ORIENTED_EDGE('',*,*,#891,.T.);
#1089=ORIENTED_EDGE('',*,*,#892,.T.);
#1090=ORIENTED_EDGE('',*,*,#893,.T.);
#1091=ORIENTED_EDGE('',*,*,#894,.T.);
#1092=ORIENTED_EDGE('',*,*,#895,.T.);
#1093=ORIENTED_EDGE('',*,*,#896,.T.);
#1094=ORIENTED_EDGE('',*,*,#897,.T.);
#1095=ORIENTED_EDGE('',*,*,#898,.T.);
#1096=ORIENTED_EDGE('',*,*,#899,.T.);
#1097=ORIENTED_EDGE('',*,*,#900,.T.);
#1098=ORIENTED_EDGE('',*,*,#901,.T.);
#1099=ORIENTED_EDGE('',*,*,#902,.T.);
#1100=ORIENTED_EDGE('',*,*,#903,.T.);
#1101=ORIENTED_EDGE('',*,*,#904,.T.);
#1102=ORIENTED_EDGE('',*,*,#905,.T.);
#1103=ORIENTED_EDGE('',*,*,#906,.T.);
#1104=ORIENTED_EDGE('',*,*,#907,.T.);
#1105=ORIENTED_EDGE('',*,*,#908,.T.);
#1106=ORIENTED_EDGE('',*,*,#909,.T.);
#1107=ORIENTED_EDGE('',*,*,#910,.T.);
#1108=ORIENTED_EDGE('',*,*,#911,.T.);
#1109=ORIENTED_EDGE('',*,*,#912,.T.);
#1110=ORIENTED_EDGE('',*,*,#913,.T.);
#1111=ORIENTED_EDGE('',*,*,#914,.T.);
#1112=ORIENTED_EDGE('',*,*,#915,.T.);
#1113=ORIENTED_EDGE('',*,*,#794,.T.);
#1114=ORIENTED_EDGE('',*,*,#856,.T.);
#1115=ORIENTED_EDGE('',*,*,#790,.F.);
#1116=ORIENTED_EDGE('',*,*,#796,.F.);
#1117=ORIENTED_EDGE('',*,*,#857,.F.);
#1118=ORIENTED_EDGE('',*,*,#916,.T.);
#1119=ORIENTED_EDGE('',*,*,#797,.T.);
#1120=ORIENTED_EDGE('',*,*,#916,.F.);
#1121=ORIENTED_EDGE('',*,*,#858,.F.);
#1122=ORIENTED_EDGE('',*,*,#917,.T.);
#1123=ORIENTED_EDGE('',*,*,#798,.T.);
#1124=ORIENTED_EDGE('',*,*,#917,.F.);
#1125=ORIENTED_EDGE('',*,*,#859,.F.);
#1126=ORIENTED_EDGE('',*,*,#918,.T.);
#1127=ORIENTED_EDGE('',*,*,#799,.T.);
#1128=ORIENTED_EDGE('',*,*,#918,.F.);
#1129=ORIENTED_EDGE('',*,*,#860,.F.);
#1130=ORIENTED_EDGE('',*,*,#919,.T.);
#1131=ORIENTED_EDGE('',*,*,#800,.T.);
#1132=ORIENTED_EDGE('',*,*,#919,.F.);
#1133=ORIENTED_EDGE('',*,*,#861,.F.);
#1134=ORIENTED_EDGE('',*,*,#920,.T.);
#1135=ORIENTED_EDGE('',*,*,#801,.T.);
#1136=ORIENTED_EDGE('',*,*,#920,.F.);
#1137=ORIENTED_EDGE('',*,*,#862,.F.);
#1138=ORIENTED_EDGE('',*,*,#921,.T.);
#1139=ORIENTED_EDGE('',*,*,#802,.T.);
#1140=ORIENTED_EDGE('',*,*,#921,.F.);
#1141=ORIENTED_EDGE('',*,*,#863,.F.);
#1142=ORIENTED_EDGE('',*,*,#922,.T.);
#1143=ORIENTED_EDGE('',*,*,#803,.T.);
#1144=ORIENTED_EDGE('',*,*,#922,.F.);
#1145=ORIENTED_EDGE('',*,*,#864,.F.);
#1146=ORIENTED_EDGE('',*,*,#923,.T.);
#1147=ORIENTED_EDGE('',*,*,#804,.T.);
#1148=ORIENTED_EDGE('',*,*,#923,.F.);
#1149=ORIENTED_EDGE('',*,*,#865,.F.);
#1150=ORIENTED_EDGE('',*,*,#924,.T.);
#1151=ORIENTED_EDGE('',*,*,#805,.T.);
#1152=ORIENTED_EDGE('',*,*,#924,.F.);
#1153=ORIENTED_EDGE('',*,*,#866,.F.);
#1154=ORIENTED_EDGE('',*,*,#925,.T.);
#1155=ORIENTED_EDGE('',*,*,#806,.T.);
#1156=ORIENTED_EDGE('',*,*,#925,.F.);
#1157=ORIENTED_EDGE('',*,*,#867,.F.);
#1158=ORIENTED_EDGE('',*,*,#926,.T.);
#1159=ORIENTED_EDGE('',*,*,#807,.T.);
#1160=ORIENTED_EDGE('',*,*,#926,.F.);
#1161=ORIENTED_EDGE('',*,*,#868,.F.);
#1162=ORIENTED_EDGE('',*,*,#927,.T.);
#1163=ORIENTED_EDGE('',*,*,#808,.T.);
#1164=ORIENTED_EDGE('',*,*,#927,.F.);
#1165=ORIENTED_EDGE('',*,*,#869,.F.);
#1166=ORIENTED_EDGE('',*,*,#928,.T.);
#1167=ORIENTED_EDGE('',*,*,#809,.T.);
#1168=ORIENTED_EDGE('',*,*,#928,.F.);
#1169=ORIENTED_EDGE('',*,*,#870,.F.);
#1170=ORIENTED_EDGE('',*,*,#929,.T.);
#1171=ORIENTED_EDGE('',*,*,#810,.T.);
#1172=ORIENTED_EDGE('',*,*,#929,.F.);
#1173=ORIENTED_EDGE('',*,*,#871,.F.);
#1174=ORIENTED_EDGE('',*,*,#930,.T.);
#1175=ORIENTED_EDGE('',*,*,#811,.T.);
#1176=ORIENTED_EDGE('',*,*,#930,.F.);
#1177=ORIENTED_EDGE('',*,*,#872,.F.);
#1178=ORIENTED_EDGE('',*,*,#931,.T.);
#1179=ORIENTED_EDGE('',*,*,#812,.T.);
#1180=ORIENTED_EDGE('',*,*,#931,.F.);
#1181=ORIENTED_EDGE('',*,*,#873,.F.);
#1182=ORIENTED_EDGE('',*,*,#932,.T.);
#1183=ORIENTED_EDGE('',*,*,#813,.T.);
#1184=ORIENTED_EDGE('',*,*,#932,.F.);
#1185=ORIENTED_EDGE('',*,*,#874,.F.);
#1186=ORIENTED_EDGE('',*,*,#933,.T.);
#1187=ORIENTED_EDGE('',*,*,#814,.T.);
#1188=ORIENTED_EDGE('',*,*,#933,.F.);
#1189=ORIENTED_EDGE('',*,*,#875,.F.);
#1190=ORIENTED_EDGE('',*,*,#934,.T.);
#1191=ORIENTED_EDGE('',*,*,#815,.T.);
#1192=ORIENTED_EDGE('',*,*,#934,.F.);
#1193=ORIENTED_EDGE('',*,*,#876,.F.);
#1194=ORIENTED_EDGE('',*,*,#935,.T.);
#1195=ORIENTED_EDGE('',*,*,#816,.T.);
#1196=ORIENTED_EDGE('',*,*,#935,.F.);
#1197=ORIENTED_EDGE('',*,*,#877,.F.);
#1198=ORIENTED_EDGE('',*,*,#936,.T.);
#1199=ORIENTED_EDGE('',*,*,#817,.T.);
#1200=ORIENTED_EDGE('',*,*,#936,.F.);
#1201=ORIENTED_EDGE('',*,*,#878,.F.);
#1202=ORIENTED_EDGE('',*,*,#937,.T.);
#1203=ORIENTED_EDGE('',*,*,#818,.T.);
#1204=ORIENTED_EDGE('',*,*,#937,.F.);
#1205=ORIENTED_EDGE('',*,*,#879,.F.);
#1206=ORIENTED_EDGE('',*,*,#938,.T.);
#1207=ORIENTED_EDGE('',*,*,#819,.T.);
#1208=ORIENTED_EDGE('',*,*,#938,.F.);
#1209=ORIENTED_EDGE('',*,*,#880,.F.);
#1210=ORIENTED_EDGE('',*,*,#939,.T.);
#1211=ORIENTED_EDGE('',*,*,#820,.T.);
#1212=ORIENTED_EDGE('',*,*,#939,.F.);
#1213=ORIENTED_EDGE('',*,*,#881,.F.);
#1214=ORIENTED_EDGE('',*,*,#940,.T.);
#1215=ORIENTED_EDGE('',*,*,#821,.T.);
#1216=ORIENTED_EDGE('',*,*,#940,.F.);
#1217=ORIENTED_EDGE('',*,*,#882,.F.);
#1218=ORIENTED_EDGE('',*,*,#941,.T.);
#1219=ORIENTED_EDGE('',*,*,#822,.T.);
#1220=ORIENTED_EDGE('',*,*,#941,.F.);
#1221=ORIENTED_EDGE('',*,*,#883,.F.);
#1222=ORIENTED_EDGE('',*,*,#942,.T.);
#1223=ORIENTED_EDGE('',*,*,#823,.T.);
#1224=ORIENTED_EDGE('',*,*,#942,.F.);
#1225=ORIENTED_EDGE('',*,*,#884,.F.);
#1226=ORIENTED_EDGE('',*,*,#943,.T.);
#1227=ORIENTED_EDGE('',*,*,#824,.T.);
#1228=ORIENTED_EDGE('',*,*,#943,.F.);
#1229=ORIENTED_EDGE('',*,*,#885,.F.);
#1230=ORIENTED_EDGE('',*,*,#944,.T.);
#1231=ORIENTED_EDGE('',*,*,#825,.T.);
#1232=ORIENTED_EDGE('',*,*,#944,.F.);
#1233=ORIENTED_EDGE('',*,*,#886,.F.);
#1234=ORIENTED_EDGE('',*,*,#945,.T.);
#1235=ORIENTED_EDGE('',*,*,#826,.T.);
#1236=ORIENTED_EDGE('',*,*,#945,.F.);
#1237=ORIENTED_EDGE('',*,*,#887,.F.);
#1238=ORIENTED_EDGE('',*,*,#946,.T.);
#1239=ORIENTED_EDGE('',*,*,#827,.T.);
#1240=ORIENTED_EDGE('',*,*,#946,.F.);
#1241=ORIENTED_EDGE('',*,*,#888,.F.);
#1242=ORIENTED_EDGE('',*,*,#947,.T.);
#1243=ORIENTED_EDGE('',*,*,#828,.T.);
#1244=ORIENTED_EDGE('',*,*,#947,.F.);
#1245=ORIENTED_EDGE('',*,*,#889,.F.);
#1246=ORIENTED_EDGE('',*,*,#948,.T.);
#1247=ORIENTED_EDGE('',*,*,#829,.T.);
#1248=ORIENTED_EDGE('',*,*,#948,.F.);
#1249=ORIENTED_EDGE('',*,*,#890,.F.);
#1250=ORIENTED_EDGE('',*,*,#949,.T.);
#1251=ORIENTED_EDGE('',*,*,#830,.T.);
#1252=ORIENTED_EDGE('',*,*,#949,.F.);
#1253=ORIENTED_EDGE('',*,*,#891,.F.);
#1254=ORIENTED_EDGE('',*,*,#950,.T.);
#1255=ORIENTED_EDGE('',*,*,#831,.T.);
#1256=ORIENTED_EDGE('',*,*,#950,.F.);
#1257=ORIENTED_EDGE('',*,*,#892,.F.);
#1258=ORIENTED_EDGE('',*,*,#951,.T.);
#1259=ORIENTED_EDGE('',*,*,#832,.T.);
#1260=ORIENTED_EDGE('',*,*,#951,.F.);
#1261=ORIENTED_EDGE('',*,*,#893,.F.);
#1262=ORIENTED_EDGE('',*,*,#952,.T.);
#1263=ORIENTED_EDGE('',*,*,#833,.T.);
#1264=ORIENTED_EDGE('',*,*,#952,.F.);
#1265=ORIENTED_EDGE('',*,*,#894,.F.);
#1266=ORIENTED_EDGE('',*,*,#953,.T.);
#1267=ORIENTED_EDGE('',*,*,#834,.T.);
#1268=ORIENTED_EDGE('',*,*,#953,.F.);
#1269=ORIENTED_EDGE('',*,*,#895,.F.);
#1270=ORIENTED_EDGE('',*,*,#954,.T.);
#1271=ORIENTED_EDGE('',*,*,#835,.T.);
#1272=ORIENTED_EDGE('',*,*,#954,.F.);
#1273=ORIENTED_EDGE('',*,*,#896,.F.);
#1274=ORIENTED_EDGE('',*,*,#955,.T.);
#1275=ORIENTED_EDGE('',*,*,#836,.T.);
#1276=ORIENTED_EDGE('',*,*,#955,.F.);
#1277=ORIENTED_EDGE('',*,*,#897,.F.);
#1278=ORIENTED_EDGE('',*,*,#956,.T.);
#1279=ORIENTED_EDGE('',*,*,#837,.T.);
#1280=ORIENTED_EDGE('',*,*,#956,.F.);
#1281=ORIENTED_EDGE('',*,*,#838,.T.);
#1282=ORIENTED_EDGE('',*,*,#957,.T.);
#1283=ORIENTED_EDGE('',*,*,#898,.F.);
#1284=ORIENTED_EDGE('',*,*,#958,.F.);
#1285=ORIENTED_EDGE('',*,*,#839,.T.);
#1286=ORIENTED_EDGE('',*,*,#958,.T.);
#1287=ORIENTED_EDGE('',*,*,#901,.F.);
#1288=ORIENTED_EDGE('',*,*,#959,.F.);
#1289=ORIENTED_EDGE('',*,*,#840,.T.);
#1290=ORIENTED_EDGE('',*,*,#959,.T.);
#1291=ORIENTED_EDGE('',*,*,#900,.F.);
#1292=ORIENTED_EDGE('',*,*,#960,.F.);
#1293=ORIENTED_EDGE('',*,*,#841,.T.);
#1294=ORIENTED_EDGE('',*,*,#960,.T.);
#1295=ORIENTED_EDGE('',*,*,#899,.F.);
#1296=ORIENTED_EDGE('',*,*,#957,.F.);
#1297=ORIENTED_EDGE('',*,*,#842,.T.);
#1298=ORIENTED_EDGE('',*,*,#961,.T.);
#1299=ORIENTED_EDGE('',*,*,#902,.F.);
#1300=ORIENTED_EDGE('',*,*,#962,.F.);
#1301=ORIENTED_EDGE('',*,*,#843,.T.);
#1302=ORIENTED_EDGE('',*,*,#962,.T.);
#1303=ORIENTED_EDGE('',*,*,#905,.F.);
#1304=ORIENTED_EDGE('',*,*,#963,.F.);
#1305=ORIENTED_EDGE('',*,*,#844,.T.);
#1306=ORIENTED_EDGE('',*,*,#963,.T.);
#1307=ORIENTED_EDGE('',*,*,#904,.F.);
#1308=ORIENTED_EDGE('',*,*,#964,.F.);
#1309=ORIENTED_EDGE('',*,*,#845,.T.);
#1310=ORIENTED_EDGE('',*,*,#964,.T.);
#1311=ORIENTED_EDGE('',*,*,#903,.F.);
#1312=ORIENTED_EDGE('',*,*,#961,.F.);
#1313=ORIENTED_EDGE('',*,*,#906,.F.);
#1314=ORIENTED_EDGE('',*,*,#965,.T.);
#1315=ORIENTED_EDGE('',*,*,#846,.T.);
#1316=ORIENTED_EDGE('',*,*,#965,.F.);
#1317=ORIENTED_EDGE('',*,*,#847,.T.);
#1318=ORIENTED_EDGE('',*,*,#966,.T.);
#1319=ORIENTED_EDGE('',*,*,#907,.F.);
#1320=ORIENTED_EDGE('',*,*,#967,.F.);
#1321=ORIENTED_EDGE('',*,*,#848,.T.);
#1322=ORIENTED_EDGE('',*,*,#967,.T.);
#1323=ORIENTED_EDGE('',*,*,#910,.F.);
#1324=ORIENTED_EDGE('',*,*,#968,.F.);
#1325=ORIENTED_EDGE('',*,*,#849,.T.);
#1326=ORIENTED_EDGE('',*,*,#968,.T.);
#1327=ORIENTED_EDGE('',*,*,#909,.F.);
#1328=ORIENTED_EDGE('',*,*,#969,.F.);
#1329=ORIENTED_EDGE('',*,*,#850,.T.);
#1330=ORIENTED_EDGE('',*,*,#969,.T.);
#1331=ORIENTED_EDGE('',*,*,#908,.F.);
#1332=ORIENTED_EDGE('',*,*,#966,.F.);
#1333=ORIENTED_EDGE('',*,*,#911,.F.);
#1334=ORIENTED_EDGE('',*,*,#970,.T.);
#1335=ORIENTED_EDGE('',*,*,#851,.T.);
#1336=ORIENTED_EDGE('',*,*,#970,.F.);
#1337=ORIENTED_EDGE('',*,*,#852,.T.);
#1338=ORIENTED_EDGE('',*,*,#971,.T.);
#1339=ORIENTED_EDGE('',*,*,#912,.F.);
#1340=ORIENTED_EDGE('',*,*,#972,.F.);
#1341=ORIENTED_EDGE('',*,*,#853,.T.);
#1342=ORIENTED_EDGE('',*,*,#972,.T.);
#1343=ORIENTED_EDGE('',*,*,#915,.F.);
#1344=ORIENTED_EDGE('',*,*,#973,.F.);
#1345=ORIENTED_EDGE('',*,*,#854,.T.);
#1346=ORIENTED_EDGE('',*,*,#973,.T.);
#1347=ORIENTED_EDGE('',*,*,#914,.F.);
#1348=ORIENTED_EDGE('',*,*,#974,.F.);
#1349=ORIENTED_EDGE('',*,*,#855,.T.);
#1350=ORIENTED_EDGE('',*,*,#974,.T.);
#1351=ORIENTED_EDGE('',*,*,#913,.F.);
#1352=ORIENTED_EDGE('',*,*,#971,.F.);
#1353=PLANE('',#1446);
#1354=PLANE('',#1447);
#1355=PLANE('',#1448);
#1356=PLANE('',#1449);
#1357=PLANE('',#1501);
#1358=PLANE('',#1553);
#1359=PLANE('',#1596);
#1360=PLANE('',#1598);
#1361=PLANE('',#1600);
#1362=PLANE('',#1602);
#1363=PLANE('',#1605);
#1364=PLANE('',#1607);
#1365=PLANE('',#1610);
#1366=PLANE('',#1612);
#1367=ADVANCED_FACE('',(#262),#1353,.T.);
#1368=ADVANCED_FACE('',(#263),#1354,.T.);
#1369=ADVANCED_FACE('',(#264),#1355,.T.);
#1370=ADVANCED_FACE('',(#265,#66,#67,#68,#69,#70,#71,#72,#73,#74,#75,#76,
#77,#78,#79,#80,#81,#82,#83,#84,#85,#86,#87,#88,#89,#90,#91,#92,#93,#94,
#95,#96,#97,#98,#99,#100,#101,#102,#103,#104,#105,#106,#107,#108,#109,#110,
#111,#112),#1356,.F.);
#1371=ADVANCED_FACE('',(#266,#113,#114,#115,#116,#117,#118,#119,#120,#121,
#122,#123,#124,#125,#126,#127,#128,#129,#130,#131,#132,#133,#134,#135,#136,
#137,#138,#139,#140,#141,#142,#143,#144,#145,#146,#147,#148,#149,#150,#151,
#152,#153,#154,#155,#156,#157,#158,#159),#1357,.T.);
#1372=ADVANCED_FACE('',(#267),#1358,.T.);
#1373=ADVANCED_FACE('',(#268),#15,.F.);
#1374=ADVANCED_FACE('',(#269),#16,.F.);
#1375=ADVANCED_FACE('',(#270),#17,.F.);
#1376=ADVANCED_FACE('',(#271),#18,.F.);
#1377=ADVANCED_FACE('',(#272),#19,.F.);
#1378=ADVANCED_FACE('',(#273),#20,.F.);
#1379=ADVANCED_FACE('',(#274),#21,.F.);
#1380=ADVANCED_FACE('',(#275),#22,.F.);
#1381=ADVANCED_FACE('',(#276),#23,.F.);
#1382=ADVANCED_FACE('',(#277),#24,.F.);
#1383=ADVANCED_FACE('',(#278),#25,.F.);
#1384=ADVANCED_FACE('',(#279),#26,.F.);
#1385=ADVANCED_FACE('',(#280),#27,.F.);
#1386=ADVANCED_FACE('',(#281),#28,.F.);
#1387=ADVANCED_FACE('',(#282),#29,.F.);
#1388=ADVANCED_FACE('',(#283),#30,.F.);
#1389=ADVANCED_FACE('',(#284),#31,.F.);
#1390=ADVANCED_FACE('',(#285),#32,.F.);
#1391=ADVANCED_FACE('',(#286),#33,.F.);
#1392=ADVANCED_FACE('',(#287),#34,.F.);
#1393=ADVANCED_FACE('',(#288),#35,.F.);
#1394=ADVANCED_FACE('',(#289),#36,.F.);
#1395=ADVANCED_FACE('',(#290),#37,.F.);
#1396=ADVANCED_FACE('',(#291),#38,.F.);
#1397=ADVANCED_FACE('',(#292),#39,.F.);
#1398=ADVANCED_FACE('',(#293),#40,.F.);
#1399=ADVANCED_FACE('',(#294),#41,.F.);
#1400=ADVANCED_FACE('',(#295),#42,.F.);
#1401=ADVANCED_FACE('',(#296),#43,.F.);
#1402=ADVANCED_FACE('',(#297),#44,.F.);
#1403=ADVANCED_FACE('',(#298),#45,.F.);
#1404=ADVANCED_FACE('',(#299),#46,.F.);
#1405=ADVANCED_FACE('',(#300),#47,.F.);
#1406=ADVANCED_FACE('',(#301),#48,.F.);
#1407=ADVANCED_FACE('',(#302),#49,.F.);
#1408=ADVANCED_FACE('',(#303),#50,.F.);
#1409=ADVANCED_FACE('',(#304),#51,.F.);
#1410=ADVANCED_FACE('',(#305),#52,.F.);
#1411=ADVANCED_FACE('',(#306),#53,.F.);
#1412=ADVANCED_FACE('',(#307),#54,.F.);
#1413=ADVANCED_FACE('',(#308),#55,.F.);
#1414=ADVANCED_FACE('',(#309),#56,.F.);
#1415=ADVANCED_FACE('',(#310),#1359,.T.);
#1416=ADVANCED_FACE('',(#311),#57,.F.);
#1417=ADVANCED_FACE('',(#312),#1360,.T.);
#1418=ADVANCED_FACE('',(#313),#58,.F.);
#1419=ADVANCED_FACE('',(#314),#1361,.T.);
#1420=ADVANCED_FACE('',(#315),#59,.F.);
#1421=ADVANCED_FACE('',(#316),#1362,.T.);
#1422=ADVANCED_FACE('',(#317),#60,.F.);
#1423=ADVANCED_FACE('',(#318),#61,.F.);
#1424=ADVANCED_FACE('',(#319),#1363,.T.);
#1425=ADVANCED_FACE('',(#320),#62,.F.);
#1426=ADVANCED_FACE('',(#321),#1364,.T.);
#1427=ADVANCED_FACE('',(#322),#63,.F.);
#1428=ADVANCED_FACE('',(#323),#64,.F.);
#1429=ADVANCED_FACE('',(#324),#1365,.T.);
#1430=ADVANCED_FACE('',(#325),#65,.F.);
#1431=ADVANCED_FACE('',(#326),#1366,.T.);
#1432=CLOSED_SHELL('',(#1367,#1368,#1369,#1370,#1371,#1372,#1373,#1374,
#1375,#1376,#1377,#1378,#1379,#1380,#1381,#1382,#1383,#1384,#1385,#1386,
#1387,#1388,#1389,#1390,#1391,#1392,#1393,#1394,#1395,#1396,#1397,#1398,
#1399,#1400,#1401,#1402,#1403,#1404,#1405,#1406,#1407,#1408,#1409,#1410,
#1411,#1412,#1413,#1414,#1415,#1416,#1417,#1418,#1419,#1420,#1421,#1422,
#1423,#1424,#1425,#1426,#1427,#1428,#1429,#1430,#1431));
#1433=DERIVED_UNIT_ELEMENT(#1435,1.);
#1434=DERIVED_UNIT_ELEMENT(#2422,-3.);
#1435=(
MASS_UNIT()
NAMED_UNIT(*)
SI_UNIT(.KILO.,.GRAM.)
);
#1436=DERIVED_UNIT((#1433,#1434));
#1437=MEASURE_REPRESENTATION_ITEM('density measure',
POSITIVE_RATIO_MEASURE(7850.),#1436);
#1438=PROPERTY_DEFINITION_REPRESENTATION(#1443,#1440);
#1439=PROPERTY_DEFINITION_REPRESENTATION(#1444,#1441);
#1440=REPRESENTATION('material name',(#1442),#2419);
#1441=REPRESENTATION('density',(#1437),#2419);
#1442=DESCRIPTIVE_REPRESENTATION_ITEM('Steel','Steel');
#1443=PROPERTY_DEFINITION('material property','material name',#2429);
#1444=PROPERTY_DEFINITION('material property','density of part',#2429);
#1445=AXIS2_PLACEMENT_3D('',#2036,#1613,#1614);
#1446=AXIS2_PLACEMENT_3D('',#2037,#1615,#1616);
#1447=AXIS2_PLACEMENT_3D('',#2046,#1621,#1622);
#1448=AXIS2_PLACEMENT_3D('',#2052,#1626,#1627);
#1449=AXIS2_PLACEMENT_3D('',#2058,#1631,#1632);
#1450=AXIS2_PLACEMENT_3D('',#2061,#1634,#1635);
#1451=AXIS2_PLACEMENT_3D('',#2063,#1636,#1637);
#1452=AXIS2_PLACEMENT_3D('',#2065,#1638,#1639);
#1453=AXIS2_PLACEMENT_3D('',#2067,#1640,#1641);
#1454=AXIS2_PLACEMENT_3D('',#2069,#1642,#1643);
#1455=AXIS2_PLACEMENT_3D('',#2071,#1644,#1645);
#1456=AXIS2_PLACEMENT_3D('',#2073,#1646,#1647);
#1457=AXIS2_PLACEMENT_3D('',#2075,#1648,#1649);
#1458=AXIS2_PLACEMENT_3D('',#2077,#1650,#1651);
#1459=AXIS2_PLACEMENT_3D('',#2079,#1652,#1653);
#1460=AXIS2_PLACEMENT_3D('',#2081,#1654,#1655);
#1461=AXIS2_PLACEMENT_3D('',#2083,#1656,#1657);
#1462=AXIS2_PLACEMENT_3D('',#2085,#1658,#1659);
#1463=AXIS2_PLACEMENT_3D('',#2087,#1660,#1661);
#1464=AXIS2_PLACEMENT_3D('',#2089,#1662,#1663);
#1465=AXIS2_PLACEMENT_3D('',#2091,#1664,#1665);
#1466=AXIS2_PLACEMENT_3D('',#2093,#1666,#1667);
#1467=AXIS2_PLACEMENT_3D('',#2095,#1668,#1669);
#1468=AXIS2_PLACEMENT_3D('',#2097,#1670,#1671);
#1469=AXIS2_PLACEMENT_3D('',#2099,#1672,#1673);
#1470=AXIS2_PLACEMENT_3D('',#2101,#1674,#1675);
#1471=AXIS2_PLACEMENT_3D('',#2103,#1676,#1677);
#1472=AXIS2_PLACEMENT_3D('',#2105,#1678,#1679);
#1473=AXIS2_PLACEMENT_3D('',#2107,#1680,#1681);
#1474=AXIS2_PLACEMENT_3D('',#2109,#1682,#1683);
#1475=AXIS2_PLACEMENT_3D('',#2111,#1684,#1685);
#1476=AXIS2_PLACEMENT_3D('',#2113,#1686,#1687);
#1477=AXIS2_PLACEMENT_3D('',#2115,#1688,#1689);
#1478=AXIS2_PLACEMENT_3D('',#2117,#1690,#1691);
#1479=AXIS2_PLACEMENT_3D('',#2119,#1692,#1693);
#1480=AXIS2_PLACEMENT_3D('',#2121,#1694,#1695);
#1481=AXIS2_PLACEMENT_3D('',#2123,#1696,#1697);
#1482=AXIS2_PLACEMENT_3D('',#2125,#1698,#1699);
#1483=AXIS2_PLACEMENT_3D('',#2127,#1700,#1701);
#1484=AXIS2_PLACEMENT_3D('',#2129,#1702,#1703);
#1485=AXIS2_PLACEMENT_3D('',#2131,#1704,#1705);
#1486=AXIS2_PLACEMENT_3D('',#2133,#1706,#1707);
#1487=AXIS2_PLACEMENT_3D('',#2135,#1708,#1709);
#1488=AXIS2_PLACEMENT_3D('',#2137,#1710,#1711);
#1489=AXIS2_PLACEMENT_3D('',#2139,#1712,#1713);
#1490=AXIS2_PLACEMENT_3D('',#2141,#1714,#1715);
#1491=AXIS2_PLACEMENT_3D('',#2144,#1716,#1717);
#1492=AXIS2_PLACEMENT_3D('',#2148,#1719,#1720);
#1493=AXIS2_PLACEMENT_3D('',#2152,#1722,#1723);
#1494=AXIS2_PLACEMENT_3D('',#2156,#1725,#1726);
#1495=AXIS2_PLACEMENT_3D('',#2159,#1728,#1729);
#1496=AXIS2_PLACEMENT_3D('',#2162,#1730,#1731);
#1497=AXIS2_PLACEMENT_3D('',#2166,#1733,#1734);
#1498=AXIS2_PLACEMENT_3D('',#2169,#1736,#1737);
#1499=AXIS2_PLACEMENT_3D('',#2172,#1738,#1739);
#1500=AXIS2_PLACEMENT_3D('',#2176,#1741,#1742);
#1501=AXIS2_PLACEMENT_3D('',#2178,#1744,#1745);
#1502=AXIS2_PLACEMENT_3D('',#2181,#1747,#1748);
#1503=AXIS2_PLACEMENT_3D('',#2183,#1749,#1750);
#1504=AXIS2_PLACEMENT_3D('',#2185,#1751,#1752);
#1505=AXIS2_PLACEMENT_3D('',#2187,#1753,#1754);
#1506=AXIS2_PLACEMENT_3D('',#2189,#1755,#1756);
#1507=AXIS2_PLACEMENT_3D('',#2191,#1757,#1758);
#1508=AXIS2_PLACEMENT_3D('',#2193,#1759,#1760);
#1509=AXIS2_PLACEMENT_3D('',#2195,#1761,#1762);
#1510=AXIS2_PLACEMENT_3D('',#2197,#1763,#1764);
#1511=AXIS2_PLACEMENT_3D('',#2199,#1765,#1766);
#1512=AXIS2_PLACEMENT_3D('',#2201,#1767,#1768);
#1513=AXIS2_PLACEMENT_3D('',#2203,#1769,#1770);
#1514=AXIS2_PLACEMENT_3D('',#2205,#1771,#1772);
#1515=AXIS2_PLACEMENT_3D('',#2207,#1773,#1774);
#1516=AXIS2_PLACEMENT_3D('',#2209,#1775,#1776);
#1517=AXIS2_PLACEMENT_3D('',#2211,#1777,#1778);
#1518=AXIS2_PLACEMENT_3D('',#2213,#1779,#1780);
#1519=AXIS2_PLACEMENT_3D('',#2215,#1781,#1782);
#1520=AXIS2_PLACEMENT_3D('',#2217,#1783,#1784);
#1521=AXIS2_PLACEMENT_3D('',#2219,#1785,#1786);
#1522=AXIS2_PLACEMENT_3D('',#2221,#1787,#1788);
#1523=AXIS2_PLACEMENT_3D('',#2223,#1789,#1790);
#1524=AXIS2_PLACEMENT_3D('',#2225,#1791,#1792);
#1525=AXIS2_PLACEMENT_3D('',#2227,#1793,#1794);
#1526=AXIS2_PLACEMENT_3D('',#2229,#1795,#1796);
#1527=AXIS2_PLACEMENT_3D('',#2231,#1797,#1798);
#1528=AXIS2_PLACEMENT_3D('',#2233,#1799,#1800);
#1529=AXIS2_PLACEMENT_3D('',#2235,#1801,#1802);
#1530=AXIS2_PLACEMENT_3D('',#2237,#1803,#1804);
#1531=AXIS2_PLACEMENT_3D('',#2239,#1805,#1806);
#1532=AXIS2_PLACEMENT_3D('',#2241,#1807,#1808);
#1533=AXIS2_PLACEMENT_3D('',#2243,#1809,#1810);
#1534=AXIS2_PLACEMENT_3D('',#2245,#1811,#1812);
#1535=AXIS2_PLACEMENT_3D('',#2247,#1813,#1814);
#1536=AXIS2_PLACEMENT_3D('',#2249,#1815,#1816);
#1537=AXIS2_PLACEMENT_3D('',#2251,#1817,#1818);
#1538=AXIS2_PLACEMENT_3D('',#2253,#1819,#1820);
#1539=AXIS2_PLACEMENT_3D('',#2255,#1821,#1822);
#1540=AXIS2_PLACEMENT_3D('',#2257,#1823,#1824);
#1541=AXIS2_PLACEMENT_3D('',#2259,#1825,#1826);
#1542=AXIS2_PLACEMENT_3D('',#2261,#1827,#1828);
#1543=AXIS2_PLACEMENT_3D('',#2264,#1829,#1830);
#1544=AXIS2_PLACEMENT_3D('',#2268,#1832,#1833);
#1545=AXIS2_PLACEMENT_3D('',#2272,#1835,#1836);
#1546=AXIS2_PLACEMENT_3D('',#2276,#1838,#1839);
#1547=AXIS2_PLACEMENT_3D('',#2279,#1841,#1842);
#1548=AXIS2_PLACEMENT_3D('',#2282,#1843,#1844);
#1549=AXIS2_PLACEMENT_3D('',#2286,#1846,#1847);
#1550=AXIS2_PLACEMENT_3D('',#2289,#1849,#1850);
#1551=AXIS2_PLACEMENT_3D('',#2292,#1851,#1852);
#1552=AXIS2_PLACEMENT_3D('',#2296,#1854,#1855);
#1553=AXIS2_PLACEMENT_3D('',#2298,#1857,#1858);
#1554=AXIS2_PLACEMENT_3D('',#2299,#1859,#1860);
#1555=AXIS2_PLACEMENT_3D('',#2301,#1862,#1863);
#1556=AXIS2_PLACEMENT_3D('',#2303,#1865,#1866);
#1557=AXIS2_PLACEMENT_3D('',#2305,#1868,#1869);
#1558=AXIS2_PLACEMENT_3D('',#2307,#1871,#1872);
#1559=AXIS2_PLACEMENT_3D('',#2309,#1874,#1875);
#1560=AXIS2_PLACEMENT_3D('',#2311,#1877,#1878);
#1561=AXIS2_PLACEMENT_3D('',#2313,#1880,#1881);
#1562=AXIS2_PLACEMENT_3D('',#2315,#1883,#1884);
#1563=AXIS2_PLACEMENT_3D('',#2317,#1886,#1887);
#1564=AXIS2_PLACEMENT_3D('',#2319,#1889,#1890);
#1565=AXIS2_PLACEMENT_3D('',#2321,#1892,#1893);
#1566=AXIS2_PLACEMENT_3D('',#2323,#1895,#1896);
#1567=AXIS2_PLACEMENT_3D('',#2325,#1898,#1899);
#1568=AXIS2_PLACEMENT_3D('',#2327,#1901,#1902);
#1569=AXIS2_PLACEMENT_3D('',#2329,#1904,#1905);
#1570=AXIS2_PLACEMENT_3D('',#2331,#1907,#1908);
#1571=AXIS2_PLACEMENT_3D('',#2333,#1910,#1911);
#1572=AXIS2_PLACEMENT_3D('',#2335,#1913,#1914);
#1573=AXIS2_PLACEMENT_3D('',#2337,#1916,#1917);
#1574=AXIS2_PLACEMENT_3D('',#2339,#1919,#1920);
#1575=AXIS2_PLACEMENT_3D('',#2341,#1922,#1923);
#1576=AXIS2_PLACEMENT_3D('',#2343,#1925,#1926);
#1577=AXIS2_PLACEMENT_3D('',#2345,#1928,#1929);
#1578=AXIS2_PLACEMENT_3D('',#2347,#1931,#1932);
#1579=AXIS2_PLACEMENT_3D('',#2349,#1934,#1935);
#1580=AXIS2_PLACEMENT_3D('',#2351,#1937,#1938);
#1581=AXIS2_PLACEMENT_3D('',#2353,#1940,#1941);
#1582=AXIS2_PLACEMENT_3D('',#2355,#1943,#1944);
#1583=AXIS2_PLACEMENT_3D('',#2357,#1946,#1947);
#1584=AXIS2_PLACEMENT_3D('',#2359,#1949,#1950);
#1585=AXIS2_PLACEMENT_3D('',#2361,#1952,#1953);
#1586=AXIS2_PLACEMENT_3D('',#2363,#1955,#1956);
#1587=AXIS2_PLACEMENT_3D('',#2365,#1958,#1959);
#1588=AXIS2_PLACEMENT_3D('',#2367,#1961,#1962);
#1589=AXIS2_PLACEMENT_3D('',#2369,#1964,#1965);
#1590=AXIS2_PLACEMENT_3D('',#2371,#1967,#1968);
#1591=AXIS2_PLACEMENT_3D('',#2373,#1970,#1971);
#1592=AXIS2_PLACEMENT_3D('',#2375,#1973,#1974);
#1593=AXIS2_PLACEMENT_3D('',#2377,#1976,#1977);
#1594=AXIS2_PLACEMENT_3D('',#2379,#1979,#1980);
#1595=AXIS2_PLACEMENT_3D('',#2381,#1982,#1983);
#1596=AXIS2_PLACEMENT_3D('',#2384,#1986,#1987);
#1597=AXIS2_PLACEMENT_3D('',#2386,#1989,#1990);
#1598=AXIS2_PLACEMENT_3D('',#2388,#1992,#1993);
#1599=AXIS2_PLACEMENT_3D('',#2389,#1994,#1995);
#1600=AXIS2_PLACEMENT_3D('',#2392,#1998,#1999);
#1601=AXIS2_PLACEMENT_3D('',#2394,#2001,#2002);
#1602=AXIS2_PLACEMENT_3D('',#2396,#2004,#2005);
#1603=AXIS2_PLACEMENT_3D('',#2397,#2006,#2007);
#1604=AXIS2_PLACEMENT_3D('',#2399,#2009,#2010);
#1605=AXIS2_PLACEMENT_3D('',#2402,#2013,#2014);
#1606=AXIS2_PLACEMENT_3D('',#2404,#2016,#2017);
#1607=AXIS2_PLACEMENT_3D('',#2406,#2019,#2020);
#1608=AXIS2_PLACEMENT_3D('',#2407,#2021,#2022);
#1609=AXIS2_PLACEMENT_3D('',#2409,#2024,#2025);
#1610=AXIS2_PLACEMENT_3D('',#2412,#2028,#2029);
#1611=AXIS2_PLACEMENT_3D('',#2414,#2031,#2032);
#1612=AXIS2_PLACEMENT_3D('',#2416,#2034,#2035);
#1613=DIRECTION('axis',(0.,0.,1.));
#1614=DIRECTION('refdir',(1.,0.,0.));
#1615=DIRECTION('center_axis',(0.,-1.,0.));
#1616=DIRECTION('ref_axis',(-1.,0.,0.));
#1617=DIRECTION('',(0.,0.,1.));
#1618=DIRECTION('',(-1.,0.,0.));
#1619=DIRECTION('',(0.,0.,1.));
#1620=DIRECTION('',(-1.,0.,0.));
#1621=DIRECTION('center_axis',(1.,0.,0.));
#1622=DIRECTION('ref_axis',(0.,-1.,0.));
#1623=DIRECTION('',(0.,0.,1.));
#1624=DIRECTION('',(0.,-1.,0.));
#1625=DIRECTION('',(0.,-1.,0.));
#1626=DIRECTION('center_axis',(-1.,0.,0.));
#1627=DIRECTION('ref_axis',(0.,1.,0.));
#1628=DIRECTION('',(0.,1.,0.));
#1629=DIRECTION('',(0.,0.,1.));
#1630=DIRECTION('',(0.,1.,0.));
#1631=DIRECTION('center_axis',(0.,0.,1.));
#1632=DIRECTION('ref_axis',(1.,0.,0.));
#1633=DIRECTION('',(1.,0.,0.));
#1634=DIRECTION('center_axis',(0.,0.,-1.));
#1635=DIRECTION('ref_axis',(0.,-1.,0.));
#1636=DIRECTION('center_axis',(0.,0.,-1.));
#1637=DIRECTION('ref_axis',(0.,-1.,0.));
#1638=DIRECTION('center_axis',(0.,0.,-1.));
#1639=DIRECTION('ref_axis',(0.,-1.,0.));
#1640=DIRECTION('center_axis',(0.,0.,-1.));
#1641=DIRECTION('ref_axis',(0.,-1.,0.));
#1642=DIRECTION('center_axis',(0.,0.,-1.));
#1643=DIRECTION('ref_axis',(0.,-1.,0.));
#1644=DIRECTION('center_axis',(0.,0.,-1.));
#1645=DIRECTION('ref_axis',(0.,-1.,0.));
#1646=DIRECTION('center_axis',(0.,0.,-1.));
#1647=DIRECTION('ref_axis',(0.,-1.,0.));
#1648=DIRECTION('center_axis',(0.,0.,-1.));
#1649=DIRECTION('ref_axis',(0.,-1.,0.));
#1650=DIRECTION('center_axis',(0.,0.,-1.));
#1651=DIRECTION('ref_axis',(0.,-1.,0.));
#1652=DIRECTION('center_axis',(0.,0.,-1.));
#1653=DIRECTION('ref_axis',(0.,-1.,0.));
#1654=DIRECTION('center_axis',(0.,0.,-1.));
#1655=DIRECTION('ref_axis',(0.,-1.,0.));
#1656=DIRECTION('center_axis',(0.,0.,-1.));
#1657=DIRECTION('ref_axis',(0.,-1.,0.));
#1658=DIRECTION('center_axis',(0.,0.,-1.));
#1659=DIRECTION('ref_axis',(0.,-1.,0.));
#1660=DIRECTION('center_axis',(0.,0.,-1.));
#1661=DIRECTION('ref_axis',(0.,-1.,0.));
#1662=DIRECTION('center_axis',(0.,0.,-1.));
#1663=DIRECTION('ref_axis',(0.,-1.,0.));
#1664=DIRECTION('center_axis',(0.,0.,-1.));
#1665=DIRECTION('ref_axis',(0.,-1.,0.));
#1666=DIRECTION('center_axis',(0.,0.,-1.));
#1667=DIRECTION('ref_axis',(0.,-1.,0.));
#1668=DIRECTION('center_axis',(0.,0.,-1.));
#1669=DIRECTION('ref_axis',(0.,-1.,0.));
#1670=DIRECTION('center_axis',(0.,0.,-1.));
#1671=DIRECTION('ref_axis',(0.,-1.,0.));
#1672=DIRECTION('center_axis',(0.,0.,-1.));
#1673=DIRECTION('ref_axis',(0.,-1.,0.));
#1674=DIRECTION('center_axis',(0.,0.,-1.));
#1675=DIRECTION('ref_axis',(0.,-1.,0.));
#1676=DIRECTION('center_axis',(0.,0.,-1.));
#1677=DIRECTION('ref_axis',(0.,-1.,0.));
#1678=DIRECTION('center_axis',(0.,0.,-1.));
#1679=DIRECTION('ref_axis',(0.,-1.,0.));
#1680=DIRECTION('center_axis',(0.,0.,-1.));
#1681=DIRECTION('ref_axis',(0.,-1.,0.));
#1682=DIRECTION('center_axis',(0.,0.,-1.));
#1683=DIRECTION('ref_axis',(0.,-1.,0.));
#1684=DIRECTION('center_axis',(0.,0.,-1.));
#1685=DIRECTION('ref_axis',(0.,-1.,0.));
#1686=DIRECTION('center_axis',(0.,0.,-1.));
#1687=DIRECTION('ref_axis',(0.,-1.,0.));
#1688=DIRECTION('center_axis',(0.,0.,-1.));
#1689=DIRECTION('ref_axis',(0.,-1.,0.));
#1690=DIRECTION('center_axis',(0.,0.,-1.));
#1691=DIRECTION('ref_axis',(0.,-1.,0.));
#1692=DIRECTION('center_axis',(0.,0.,-1.));
#1693=DIRECTION('ref_axis',(0.,-1.,0.));
#1694=DIRECTION('center_axis',(0.,0.,-1.));
#1695=DIRECTION('ref_axis',(0.,-1.,0.));
#1696=DIRECTION('center_axis',(0.,0.,-1.));
#1697=DIRECTION('ref_axis',(0.,-1.,0.));
#1698=DIRECTION('center_axis',(0.,0.,-1.));
#1699=DIRECTION('ref_axis',(0.,-1.,0.));
#1700=DIRECTION('center_axis',(0.,0.,-1.));
#1701=DIRECTION('ref_axis',(0.,-1.,0.));
#1702=DIRECTION('center_axis',(0.,0.,-1.));
#1703=DIRECTION('ref_axis',(0.,-1.,0.));
#1704=DIRECTION('center_axis',(0.,0.,-1.));
#1705=DIRECTION('ref_axis',(0.,-1.,0.));
#1706=DIRECTION('center_axis',(0.,0.,-1.));
#1707=DIRECTION('ref_axis',(0.,-1.,0.));
#1708=DIRECTION('center_axis',(0.,0.,-1.));
#1709=DIRECTION('ref_axis',(0.,-1.,0.));
#1710=DIRECTION('center_axis',(0.,0.,-1.));
#1711=DIRECTION('ref_axis',(0.,-1.,0.));
#1712=DIRECTION('center_axis',(0.,0.,-1.));
#1713=DIRECTION('ref_axis',(0.,-1.,0.));
#1714=DIRECTION('center_axis',(0.,0.,-1.));
#1715=DIRECTION('ref_axis',(0.,-1.,0.));
#1716=DIRECTION('center_axis',(0.,0.,-1.));
#1717=DIRECTION('ref_axis',(-1.,0.,0.));
#1718=DIRECTION('',(0.,-1.,0.));
#1719=DIRECTION('center_axis',(0.,0.,-1.));
#1720=DIRECTION('ref_axis',(1.,0.,0.));
#1721=DIRECTION('',(0.,1.,0.));
#1722=DIRECTION('center_axis',(0.,0.,-1.));
#1723=DIRECTION('ref_axis',(-1.,0.,0.));
#1724=DIRECTION('',(0.,-1.,0.));
#1725=DIRECTION('center_axis',(0.,0.,-1.));
#1726=DIRECTION('ref_axis',(1.,0.,0.));
#1727=DIRECTION('',(0.,1.,0.));
#1728=DIRECTION('center_axis',(0.,0.,-1.));
#1729=DIRECTION('ref_axis',(0.,-1.,0.));
#1730=DIRECTION('center_axis',(0.,0.,-1.));
#1731=DIRECTION('ref_axis',(-1.,0.,0.));
#1732=DIRECTION('',(0.,-1.,0.));
#1733=DIRECTION('center_axis',(0.,0.,-1.));
#1734=DIRECTION('ref_axis',(1.,0.,0.));
#1735=DIRECTION('',(0.,1.,0.));
#1736=DIRECTION('center_axis',(0.,0.,-1.));
#1737=DIRECTION('ref_axis',(0.,-1.,0.));
#1738=DIRECTION('center_axis',(0.,0.,-1.));
#1739=DIRECTION('ref_axis',(-1.,0.,0.));
#1740=DIRECTION('',(0.,-1.,0.));
#1741=DIRECTION('center_axis',(0.,0.,-1.));
#1742=DIRECTION('ref_axis',(1.,0.,0.));
#1743=DIRECTION('',(0.,1.,0.));
#1744=DIRECTION('center_axis',(0.,0.,1.));
#1745=DIRECTION('ref_axis',(1.,0.,0.));
#1746=DIRECTION('',(1.,0.,0.));
#1747=DIRECTION('center_axis',(0.,0.,-1.));
#1748=DIRECTION('ref_axis',(0.,-1.,0.));
#1749=DIRECTION('center_axis',(0.,0.,-1.));
#1750=DIRECTION('ref_axis',(0.,-1.,0.));
#1751=DIRECTION('center_axis',(0.,0.,-1.));
#1752=DIRECTION('ref_axis',(0.,-1.,0.));
#1753=DIRECTION('center_axis',(0.,0.,-1.));
#1754=DIRECTION('ref_axis',(0.,-1.,0.));
#1755=DIRECTION('center_axis',(0.,0.,-1.));
#1756=DIRECTION('ref_axis',(0.,-1.,0.));
#1757=DIRECTION('center_axis',(0.,0.,-1.));
#1758=DIRECTION('ref_axis',(0.,-1.,0.));
#1759=DIRECTION('center_axis',(0.,0.,-1.));
#1760=DIRECTION('ref_axis',(0.,-1.,0.));
#1761=DIRECTION('center_axis',(0.,0.,-1.));
#1762=DIRECTION('ref_axis',(0.,-1.,0.));
#1763=DIRECTION('center_axis',(0.,0.,-1.));
#1764=DIRECTION('ref_axis',(0.,-1.,0.));
#1765=DIRECTION('center_axis',(0.,0.,-1.));
#1766=DIRECTION('ref_axis',(0.,-1.,0.));
#1767=DIRECTION('center_axis',(0.,0.,-1.));
#1768=DIRECTION('ref_axis',(0.,-1.,0.));
#1769=DIRECTION('center_axis',(0.,0.,-1.));
#1770=DIRECTION('ref_axis',(0.,-1.,0.));
#1771=DIRECTION('center_axis',(0.,0.,-1.));
#1772=DIRECTION('ref_axis',(0.,-1.,0.));
#1773=DIRECTION('center_axis',(0.,0.,-1.));
#1774=DIRECTION('ref_axis',(0.,-1.,0.));
#1775=DIRECTION('center_axis',(0.,0.,-1.));
#1776=DIRECTION('ref_axis',(0.,-1.,0.));
#1777=DIRECTION('center_axis',(0.,0.,-1.));
#1778=DIRECTION('ref_axis',(0.,-1.,0.));
#1779=DIRECTION('center_axis',(0.,0.,-1.));
#1780=DIRECTION('ref_axis',(0.,-1.,0.));
#1781=DIRECTION('center_axis',(0.,0.,-1.));
#1782=DIRECTION('ref_axis',(0.,-1.,0.));
#1783=DIRECTION('center_axis',(0.,0.,-1.));
#1784=DIRECTION('ref_axis',(0.,-1.,0.));
#1785=DIRECTION('center_axis',(0.,0.,-1.));
#1786=DIRECTION('ref_axis',(0.,-1.,0.));
#1787=DIRECTION('center_axis',(0.,0.,-1.));
#1788=DIRECTION('ref_axis',(0.,-1.,0.));
#1789=DIRECTION('center_axis',(0.,0.,-1.));
#1790=DIRECTION('ref_axis',(0.,-1.,0.));
#1791=DIRECTION('center_axis',(0.,0.,-1.));
#1792=DIRECTION('ref_axis',(0.,-1.,0.));
#1793=DIRECTION('center_axis',(0.,0.,-1.));
#1794=DIRECTION('ref_axis',(0.,-1.,0.));
#1795=DIRECTION('center_axis',(0.,0.,-1.));
#1796=DIRECTION('ref_axis',(0.,-1.,0.));
#1797=DIRECTION('center_axis',(0.,0.,-1.));
#1798=DIRECTION('ref_axis',(0.,-1.,0.));
#1799=DIRECTION('center_axis',(0.,0.,-1.));
#1800=DIRECTION('ref_axis',(0.,-1.,0.));
#1801=DIRECTION('center_axis',(0.,0.,-1.));
#1802=DIRECTION('ref_axis',(0.,-1.,0.));
#1803=DIRECTION('center_axis',(0.,0.,-1.));
#1804=DIRECTION('ref_axis',(0.,-1.,0.));
#1805=DIRECTION('center_axis',(0.,0.,-1.));
#1806=DIRECTION('ref_axis',(0.,-1.,0.));
#1807=DIRECTION('center_axis',(0.,0.,-1.));
#1808=DIRECTION('ref_axis',(0.,-1.,0.));
#1809=DIRECTION('center_axis',(0.,0.,-1.));
#1810=DIRECTION('ref_axis',(0.,-1.,0.));
#1811=DIRECTION('center_axis',(0.,0.,-1.));
#1812=DIRECTION('ref_axis',(0.,-1.,0.));
#1813=DIRECTION('center_axis',(0.,0.,-1.));
#1814=DIRECTION('ref_axis',(0.,-1.,0.));
#1815=DIRECTION('center_axis',(0.,0.,-1.));
#1816=DIRECTION('ref_axis',(0.,-1.,0.));
#1817=DIRECTION('center_axis',(0.,0.,-1.));
#1818=DIRECTION('ref_axis',(0.,-1.,0.));
#1819=DIRECTION('center_axis',(0.,0.,-1.));
#1820=DIRECTION('ref_axis',(0.,-1.,0.));
#1821=DIRECTION('center_axis',(0.,0.,-1.));
#1822=DIRECTION('ref_axis',(0.,-1.,0.));
#1823=DIRECTION('center_axis',(0.,0.,-1.));
#1824=DIRECTION('ref_axis',(0.,-1.,0.));
#1825=DIRECTION('center_axis',(0.,0.,-1.));
#1826=DIRECTION('ref_axis',(0.,-1.,0.));
#1827=DIRECTION('center_axis',(0.,0.,-1.));
#1828=DIRECTION('ref_axis',(0.,-1.,0.));
#1829=DIRECTION('center_axis',(0.,0.,-1.));
#1830=DIRECTION('ref_axis',(-1.,0.,0.));
#1831=DIRECTION('',(0.,1.,0.));
#1832=DIRECTION('center_axis',(0.,0.,-1.));
#1833=DIRECTION('ref_axis',(1.,0.,0.));
#1834=DIRECTION('',(0.,-1.,0.));
#1835=DIRECTION('center_axis',(0.,0.,-1.));
#1836=DIRECTION('ref_axis',(-1.,0.,0.));
#1837=DIRECTION('',(0.,1.,0.));
#1838=DIRECTION('center_axis',(0.,0.,-1.));
#1839=DIRECTION('ref_axis',(1.,0.,0.));
#1840=DIRECTION('',(0.,-1.,0.));
#1841=DIRECTION('center_axis',(0.,0.,-1.));
#1842=DIRECTION('ref_axis',(0.,-1.,0.));
#1843=DIRECTION('center_axis',(0.,0.,-1.));
#1844=DIRECTION('ref_axis',(-1.,0.,0.));
#1845=DIRECTION('',(0.,1.,0.));
#1846=DIRECTION('center_axis',(0.,0.,-1.));
#1847=DIRECTION('ref_axis',(1.,0.,0.));
#1848=DIRECTION('',(0.,-1.,0.));
#1849=DIRECTION('center_axis',(0.,0.,-1.));
#1850=DIRECTION('ref_axis',(0.,-1.,0.));
#1851=DIRECTION('center_axis',(0.,0.,-1.));
#1852=DIRECTION('ref_axis',(-1.,0.,0.));
#1853=DIRECTION('',(0.,1.,0.));
#1854=DIRECTION('center_axis',(0.,0.,-1.));
#1855=DIRECTION('ref_axis',(1.,0.,0.));
#1856=DIRECTION('',(0.,-1.,0.));
#1857=DIRECTION('center_axis',(0.,1.,0.));
#1858=DIRECTION('ref_axis',(1.,0.,0.));
#1859=DIRECTION('center_axis',(0.,0.,-1.));
#1860=DIRECTION('ref_axis',(0.,-1.,0.));
#1861=DIRECTION('',(0.,0.,-1.));
#1862=DIRECTION('center_axis',(0.,0.,-1.));
#1863=DIRECTION('ref_axis',(0.,-1.,0.));
#1864=DIRECTION('',(0.,0.,-1.));
#1865=DIRECTION('center_axis',(0.,0.,-1.));
#1866=DIRECTION('ref_axis',(0.,-1.,0.));
#1867=DIRECTION('',(0.,0.,-1.));
#1868=DIRECTION('center_axis',(0.,0.,-1.));
#1869=DIRECTION('ref_axis',(0.,-1.,0.));
#1870=DIRECTION('',(0.,0.,-1.));
#1871=DIRECTION('center_axis',(0.,0.,-1.));
#1872=DIRECTION('ref_axis',(0.,-1.,0.));
#1873=DIRECTION('',(0.,0.,-1.));
#1874=DIRECTION('center_axis',(0.,0.,-1.));
#1875=DIRECTION('ref_axis',(0.,-1.,0.));
#1876=DIRECTION('',(0.,0.,-1.));
#1877=DIRECTION('center_axis',(0.,0.,-1.));
#1878=DIRECTION('ref_axis',(0.,-1.,0.));
#1879=DIRECTION('',(0.,0.,-1.));
#1880=DIRECTION('center_axis',(0.,0.,-1.));
#1881=DIRECTION('ref_axis',(0.,-1.,0.));
#1882=DIRECTION('',(0.,0.,-1.));
#1883=DIRECTION('center_axis',(0.,0.,-1.));
#1884=DIRECTION('ref_axis',(0.,-1.,0.));
#1885=DIRECTION('',(0.,0.,-1.));
#1886=DIRECTION('center_axis',(0.,0.,-1.));
#1887=DIRECTION('ref_axis',(0.,-1.,0.));
#1888=DIRECTION('',(0.,0.,-1.));
#1889=DIRECTION('center_axis',(0.,0.,-1.));
#1890=DIRECTION('ref_axis',(0.,-1.,0.));
#1891=DIRECTION('',(0.,0.,-1.));
#1892=DIRECTION('center_axis',(0.,0.,-1.));
#1893=DIRECTION('ref_axis',(0.,-1.,0.));
#1894=DIRECTION('',(0.,0.,-1.));
#1895=DIRECTION('center_axis',(0.,0.,-1.));
#1896=DIRECTION('ref_axis',(0.,-1.,0.));
#1897=DIRECTION('',(0.,0.,-1.));
#1898=DIRECTION('center_axis',(0.,0.,-1.));
#1899=DIRECTION('ref_axis',(0.,-1.,0.));
#1900=DIRECTION('',(0.,0.,-1.));
#1901=DIRECTION('center_axis',(0.,0.,-1.));
#1902=DIRECTION('ref_axis',(0.,-1.,0.));
#1903=DIRECTION('',(0.,0.,-1.));
#1904=DIRECTION('center_axis',(0.,0.,-1.));
#1905=DIRECTION('ref_axis',(0.,-1.,0.));
#1906=DIRECTION('',(0.,0.,-1.));
#1907=DIRECTION('center_axis',(0.,0.,-1.));
#1908=DIRECTION('ref_axis',(0.,-1.,0.));
#1909=DIRECTION('',(0.,0.,-1.));
#1910=DIRECTION('center_axis',(0.,0.,-1.));
#1911=DIRECTION('ref_axis',(0.,-1.,0.));
#1912=DIRECTION('',(0.,0.,-1.));
#1913=DIRECTION('center_axis',(0.,0.,-1.));
#1914=DIRECTION('ref_axis',(0.,-1.,0.));
#1915=DIRECTION('',(0.,0.,-1.));
#1916=DIRECTION('center_axis',(0.,0.,-1.));
#1917=DIRECTION('ref_axis',(0.,-1.,0.));
#1918=DIRECTION('',(0.,0.,-1.));
#1919=DIRECTION('center_axis',(0.,0.,-1.));
#1920=DIRECTION('ref_axis',(0.,-1.,0.));
#1921=DIRECTION('',(0.,0.,-1.));
#1922=DIRECTION('center_axis',(0.,0.,-1.));
#1923=DIRECTION('ref_axis',(0.,-1.,0.));
#1924=DIRECTION('',(0.,0.,-1.));
#1925=DIRECTION('center_axis',(0.,0.,-1.));
#1926=DIRECTION('ref_axis',(0.,-1.,0.));
#1927=DIRECTION('',(0.,0.,-1.));
#1928=DIRECTION('center_axis',(0.,0.,-1.));
#1929=DIRECTION('ref_axis',(0.,-1.,0.));
#1930=DIRECTION('',(0.,0.,-1.));
#1931=DIRECTION('center_axis',(0.,0.,-1.));
#1932=DIRECTION('ref_axis',(0.,-1.,0.));
#1933=DIRECTION('',(0.,0.,-1.));
#1934=DIRECTION('center_axis',(0.,0.,-1.));
#1935=DIRECTION('ref_axis',(0.,-1.,0.));
#1936=DIRECTION('',(0.,0.,-1.));
#1937=DIRECTION('center_axis',(0.,0.,-1.));
#1938=DIRECTION('ref_axis',(0.,-1.,0.));
#1939=DIRECTION('',(0.,0.,-1.));
#1940=DIRECTION('center_axis',(0.,0.,-1.));
#1941=DIRECTION('ref_axis',(0.,-1.,0.));
#1942=DIRECTION('',(0.,0.,-1.));
#1943=DIRECTION('center_axis',(0.,0.,-1.));
#1944=DIRECTION('ref_axis',(0.,-1.,0.));
#1945=DIRECTION('',(0.,0.,-1.));
#1946=DIRECTION('center_axis',(0.,0.,-1.));
#1947=DIRECTION('ref_axis',(0.,-1.,0.));
#1948=DIRECTION('',(0.,0.,-1.));
#1949=DIRECTION('center_axis',(0.,0.,-1.));
#1950=DIRECTION('ref_axis',(0.,-1.,0.));
#1951=DIRECTION('',(0.,0.,-1.));
#1952=DIRECTION('center_axis',(0.,0.,-1.));
#1953=DIRECTION('ref_axis',(0.,-1.,0.));
#1954=DIRECTION('',(0.,0.,-1.));
#1955=DIRECTION('center_axis',(0.,0.,-1.));
#1956=DIRECTION('ref_axis',(0.,-1.,0.));
#1957=DIRECTION('',(0.,0.,-1.));
#1958=DIRECTION('center_axis',(0.,0.,-1.));
#1959=DIRECTION('ref_axis',(0.,-1.,0.));
#1960=DIRECTION('',(0.,0.,-1.));
#1961=DIRECTION('center_axis',(0.,0.,-1.));
#1962=DIRECTION('ref_axis',(0.,-1.,0.));
#1963=DIRECTION('',(0.,0.,-1.));
#1964=DIRECTION('center_axis',(0.,0.,-1.));
#1965=DIRECTION('ref_axis',(0.,-1.,0.));
#1966=DIRECTION('',(0.,0.,-1.));
#1967=DIRECTION('center_axis',(0.,0.,-1.));
#1968=DIRECTION('ref_axis',(0.,-1.,0.));
#1969=DIRECTION('',(0.,0.,-1.));
#1970=DIRECTION('center_axis',(0.,0.,-1.));
#1971=DIRECTION('ref_axis',(0.,-1.,0.));
#1972=DIRECTION('',(0.,0.,-1.));
#1973=DIRECTION('center_axis',(0.,0.,-1.));
#1974=DIRECTION('ref_axis',(0.,-1.,0.));
#1975=DIRECTION('',(0.,0.,-1.));
#1976=DIRECTION('center_axis',(0.,0.,-1.));
#1977=DIRECTION('ref_axis',(0.,-1.,0.));
#1978=DIRECTION('',(0.,0.,-1.));
#1979=DIRECTION('center_axis',(0.,0.,-1.));
#1980=DIRECTION('ref_axis',(0.,-1.,0.));
#1981=DIRECTION('',(0.,0.,-1.));
#1982=DIRECTION('center_axis',(0.,0.,-1.));
#1983=DIRECTION('ref_axis',(-1.,0.,0.));
#1984=DIRECTION('',(0.,0.,1.));
#1985=DIRECTION('',(0.,0.,1.));
#1986=DIRECTION('center_axis',(-1.,0.,0.));
#1987=DIRECTION('ref_axis',(0.,1.,0.));
#1988=DIRECTION('',(0.,0.,1.));
#1989=DIRECTION('center_axis',(0.,0.,-1.));
#1990=DIRECTION('ref_axis',(1.,0.,0.));
#1991=DIRECTION('',(0.,0.,1.));
#1992=DIRECTION('center_axis',(1.,0.,0.));
#1993=DIRECTION('ref_axis',(0.,-1.,0.));
#1994=DIRECTION('center_axis',(0.,0.,-1.));
#1995=DIRECTION('ref_axis',(-1.,0.,0.));
#1996=DIRECTION('',(0.,0.,1.));
#1997=DIRECTION('',(0.,0.,1.));
#1998=DIRECTION('center_axis',(-1.,0.,0.));
#1999=DIRECTION('ref_axis',(0.,1.,0.));
#2000=DIRECTION('',(0.,0.,1.));
#2001=DIRECTION('center_axis',(0.,0.,-1.));
#2002=DIRECTION('ref_axis',(1.,0.,0.));
#2003=DIRECTION('',(0.,0.,1.));
#2004=DIRECTION('center_axis',(1.,0.,0.));
#2005=DIRECTION('ref_axis',(0.,-1.,0.));
#2006=DIRECTION('center_axis',(0.,0.,-1.));
#2007=DIRECTION('ref_axis',(0.,-1.,0.));
#2008=DIRECTION('',(0.,0.,-1.));
#2009=DIRECTION('center_axis',(0.,0.,-1.));
#2010=DIRECTION('ref_axis',(-1.,0.,0.));
#2011=DIRECTION('',(0.,0.,1.));
#2012=DIRECTION('',(0.,0.,1.));
#2013=DIRECTION('center_axis',(-1.,0.,0.));
#2014=DIRECTION('ref_axis',(0.,1.,0.));
#2015=DIRECTION('',(0.,0.,1.));
#2016=DIRECTION('center_axis',(0.,0.,-1.));
#2017=DIRECTION('ref_axis',(1.,0.,0.));
#2018=DIRECTION('',(0.,0.,1.));
#2019=DIRECTION('center_axis',(1.,0.,0.));
#2020=DIRECTION('ref_axis',(0.,-1.,0.));
#2021=DIRECTION('center_axis',(0.,0.,-1.));
#2022=DIRECTION('ref_axis',(0.,-1.,0.));
#2023=DIRECTION('',(0.,0.,-1.));
#2024=DIRECTION('center_axis',(0.,0.,-1.));
#2025=DIRECTION('ref_axis',(-1.,0.,0.));
#2026=DIRECTION('',(0.,0.,1.));
#2027=DIRECTION('',(0.,0.,1.));
#2028=DIRECTION('center_axis',(-1.,0.,0.));
#2029=DIRECTION('ref_axis',(0.,1.,0.));
#2030=DIRECTION('',(0.,0.,1.));
#2031=DIRECTION('center_axis',(0.,0.,-1.));
#2032=DIRECTION('ref_axis',(1.,0.,0.));
#2033=DIRECTION('',(0.,0.,1.));
#2034=DIRECTION('center_axis',(1.,0.,0.));
#2035=DIRECTION('ref_axis',(0.,-1.,0.));
#2036=CARTESIAN_POINT('',(0.,0.,0.));
#2037=CARTESIAN_POINT('Origin',(60.2,-60.5,0.));
#2038=CARTESIAN_POINT('',(60.2,-60.5,0.));
#2039=CARTESIAN_POINT('',(60.2,-60.5,1.51));
#2040=CARTESIAN_POINT('',(60.2,-60.5,0.));
#2041=CARTESIAN_POINT('',(-60.2,-60.5,1.51));
#2042=CARTESIAN_POINT('',(60.2,-60.5,1.51));
#2043=CARTESIAN_POINT('',(-60.2,-60.5,0.));
#2044=CARTESIAN_POINT('',(-60.2,-60.5,0.));
#2045=CARTESIAN_POINT('',(60.2,-60.5,0.));
#2046=CARTESIAN_POINT('Origin',(60.2,60.5,0.));
#2047=CARTESIAN_POINT('',(60.2,60.5,0.));
#2048=CARTESIAN_POINT('',(60.2,60.5,1.51));
#2049=CARTESIAN_POINT('',(60.2,60.5,0.));
#2050=CARTESIAN_POINT('',(60.2,60.5,1.51));
#2051=CARTESIAN_POINT('',(60.2,60.5,0.));
#2052=CARTESIAN_POINT('Origin',(-60.2,-60.5,0.));
#2053=CARTESIAN_POINT('',(-60.2,60.5,1.51));
#2054=CARTESIAN_POINT('',(-60.2,-60.5,1.51));
#2055=CARTESIAN_POINT('',(-60.2,60.5,0.));
#2056=CARTESIAN_POINT('',(-60.2,60.5,0.));
#2057=CARTESIAN_POINT('',(-60.2,-60.5,0.));
#2058=CARTESIAN_POINT('Origin',(0.,0.,0.));
#2059=CARTESIAN_POINT('',(-60.2,60.5,0.));
#2060=CARTESIAN_POINT('',(-46.2,-30.48,0.));
#2061=CARTESIAN_POINT('Origin',(-46.2,-30.98,0.));
#2062=CARTESIAN_POINT('',(-46.2,-27.94,0.));
#2063=CARTESIAN_POINT('Origin',(-46.2,-28.44,0.));
#2064=CARTESIAN_POINT('',(-46.2,-25.4,0.));
#2065=CARTESIAN_POINT('Origin',(-46.2,-25.9,0.));
#2066=CARTESIAN_POINT('',(-46.2,-22.86,0.));
#2067=CARTESIAN_POINT('Origin',(-46.2,-23.36,0.));
#2068=CARTESIAN_POINT('',(-46.2,-20.32,0.));
#2069=CARTESIAN_POINT('Origin',(-46.2,-20.82,0.));
#2070=CARTESIAN_POINT('',(-46.2,-17.78,0.));
#2071=CARTESIAN_POINT('Origin',(-46.2,-18.28,0.));
#2072=CARTESIAN_POINT('',(-46.2,-15.24,0.));
#2073=CARTESIAN_POINT('Origin',(-46.2,-15.74,0.));
#2074=CARTESIAN_POINT('',(-46.2,-12.7,0.));
#2075=CARTESIAN_POINT('Origin',(-46.2,-13.2,0.));
#2076=CARTESIAN_POINT('',(-46.2,-10.16,0.));
#2077=CARTESIAN_POINT('Origin',(-46.2,-10.66,0.));
#2078=CARTESIAN_POINT('',(-46.2,-7.62,0.));
#2079=CARTESIAN_POINT('Origin',(-46.2,-8.12,0.));
#2080=CARTESIAN_POINT('',(-46.2,-5.08,0.));
#2081=CARTESIAN_POINT('Origin',(-46.2,-5.58,0.));
#2082=CARTESIAN_POINT('',(-46.2,-2.54,0.));
#2083=CARTESIAN_POINT('Origin',(-46.2,-3.04,0.));
#2084=CARTESIAN_POINT('',(-46.2,0.,0.));
#2085=CARTESIAN_POINT('Origin',(-46.2,-0.5,0.));
#2086=CARTESIAN_POINT('',(-46.2,2.54,0.));
#2087=CARTESIAN_POINT('Origin',(-46.2,2.04,0.));
#2088=CARTESIAN_POINT('',(-30.05,28.8,0.));
#2089=CARTESIAN_POINT('Origin',(-30.05,28.25,0.));
#2090=CARTESIAN_POINT('',(-30.05,35.3,0.));
#2091=CARTESIAN_POINT('Origin',(-30.05,34.75,0.));
#2092=CARTESIAN_POINT('',(-25.55,28.8,0.));
#2093=CARTESIAN_POINT('Origin',(-25.55,28.25,0.));
#2094=CARTESIAN_POINT('',(-25.55,35.3,0.));
#2095=CARTESIAN_POINT('Origin',(-25.55,34.75,0.));
#2096=CARTESIAN_POINT('',(-13.5,27.2,0.));
#2097=CARTESIAN_POINT('Origin',(-13.5,27.1,0.));
#2098=CARTESIAN_POINT('',(-14.2,27.9,0.));
#2099=CARTESIAN_POINT('Origin',(-14.2,27.8,0.));
#2100=CARTESIAN_POINT('',(-12.1,27.2,0.));
#2101=CARTESIAN_POINT('Origin',(-12.1,27.1,0.));
#2102=CARTESIAN_POINT('',(-12.8,27.9,0.));
#2103=CARTESIAN_POINT('Origin',(-12.8,27.8,0.));
#2104=CARTESIAN_POINT('',(-11.4,27.9,0.));
#2105=CARTESIAN_POINT('Origin',(-11.4,27.8,0.));
#2106=CARTESIAN_POINT('',(-13.5,28.6,0.));
#2107=CARTESIAN_POINT('Origin',(-13.5,28.5,0.));
#2108=CARTESIAN_POINT('',(-14.2,29.3,0.));
#2109=CARTESIAN_POINT('Origin',(-14.2,29.2,0.));
#2110=CARTESIAN_POINT('',(-12.1,28.6,0.));
#2111=CARTESIAN_POINT('Origin',(-12.1,28.5,0.));
#2112=CARTESIAN_POINT('',(-12.8,29.3,0.));
#2113=CARTESIAN_POINT('Origin',(-12.8,29.2,0.));
#2114=CARTESIAN_POINT('',(-13.5,30.,0.));
#2115=CARTESIAN_POINT('Origin',(-13.5,29.9,0.));
#2116=CARTESIAN_POINT('',(-12.1,30.,0.));
#2117=CARTESIAN_POINT('Origin',(-12.1,29.9,0.));
#2118=CARTESIAN_POINT('',(-11.4,29.3,0.));
#2119=CARTESIAN_POINT('Origin',(-11.4,29.2,0.));
#2120=CARTESIAN_POINT('',(-47.4,53.,0.));
#2121=CARTESIAN_POINT('Origin',(-47.4,52.5,0.));
#2122=CARTESIAN_POINT('',(-39.8,53.,0.));
#2123=CARTESIAN_POINT('Origin',(-39.8,52.5,0.));
#2124=CARTESIAN_POINT('',(16.55,50.8,0.));
#2125=CARTESIAN_POINT('Origin',(16.55,50.25,0.));
#2126=CARTESIAN_POINT('',(16.55,57.3,0.));
#2127=CARTESIAN_POINT('Origin',(16.55,56.75,0.));
#2128=CARTESIAN_POINT('',(27.86,44.95,0.));
#2129=CARTESIAN_POINT('Origin',(27.86,44.5,0.));
#2130=CARTESIAN_POINT('',(30.4,44.95,0.));
#2131=CARTESIAN_POINT('Origin',(30.4,44.5,0.));
#2132=CARTESIAN_POINT('',(35.4,43.475,0.));
#2133=CARTESIAN_POINT('Origin',(35.4,43.1,0.));
#2134=CARTESIAN_POINT('',(36.67,43.475,0.));
#2135=CARTESIAN_POINT('Origin',(36.67,43.1,0.));
#2136=CARTESIAN_POINT('',(37.94,43.475,0.));
#2137=CARTESIAN_POINT('Origin',(37.94,43.1,0.));
#2138=CARTESIAN_POINT('',(21.05,50.8,0.));
#2139=CARTESIAN_POINT('Origin',(21.05,50.25,0.));
#2140=CARTESIAN_POINT('',(21.05,57.3,0.));
#2141=CARTESIAN_POINT('Origin',(21.05,56.75,0.));
#2142=CARTESIAN_POINT('',(31.98,54.125,0.));
#2143=CARTESIAN_POINT('',(31.38,54.125,0.));
#2144=CARTESIAN_POINT('Origin',(31.68,54.125,0.));
#2145=CARTESIAN_POINT('',(31.98,54.725,0.));
#2146=CARTESIAN_POINT('',(31.98,27.0625,0.));
#2147=CARTESIAN_POINT('',(31.38,54.725,0.));
#2148=CARTESIAN_POINT('Origin',(31.68,54.725,0.));
#2149=CARTESIAN_POINT('',(31.38,27.3625,0.));
#2150=CARTESIAN_POINT('',(31.98,58.055,0.));
#2151=CARTESIAN_POINT('',(31.38,58.055,0.));
#2152=CARTESIAN_POINT('Origin',(31.68,58.055,0.));
#2153=CARTESIAN_POINT('',(31.98,59.155,0.));
#2154=CARTESIAN_POINT('',(31.98,29.0275,0.));
#2155=CARTESIAN_POINT('',(31.38,59.155,0.));
#2156=CARTESIAN_POINT('Origin',(31.68,59.155,0.));
#2157=CARTESIAN_POINT('',(31.38,29.5775,0.));
#2158=CARTESIAN_POINT('',(33.11,58.43,0.));
#2159=CARTESIAN_POINT('Origin',(33.11,58.105,0.));
#2160=CARTESIAN_POINT('',(40.62,54.125,0.));
#2161=CARTESIAN_POINT('',(40.02,54.125,0.));
#2162=CARTESIAN_POINT('Origin',(40.32,54.125,0.));
#2163=CARTESIAN_POINT('',(40.62,54.725,0.));
#2164=CARTESIAN_POINT('',(40.62,27.0625,0.));
#2165=CARTESIAN_POINT('',(40.02,54.725,0.));
#2166=CARTESIAN_POINT('Origin',(40.32,54.725,0.));
#2167=CARTESIAN_POINT('',(40.02,27.3625,0.));
#2168=CARTESIAN_POINT('',(38.89,58.43,0.));
#2169=CARTESIAN_POINT('Origin',(38.89,58.105,0.));
#2170=CARTESIAN_POINT('',(40.62,58.055,0.));
#2171=CARTESIAN_POINT('',(40.02,58.055,0.));
#2172=CARTESIAN_POINT('Origin',(40.32,58.055,0.));
#2173=CARTESIAN_POINT('',(40.62,59.155,0.));
#2174=CARTESIAN_POINT('',(40.62,29.0275,0.));
#2175=CARTESIAN_POINT('',(40.02,59.155,0.));
#2176=CARTESIAN_POINT('Origin',(40.32,59.155,0.));
#2177=CARTESIAN_POINT('',(40.02,29.5775,0.));
#2178=CARTESIAN_POINT('Origin',(0.,0.,1.51));
#2179=CARTESIAN_POINT('',(-60.2,60.5,1.51));
#2180=CARTESIAN_POINT('',(-46.2,-30.48,1.51));
#2181=CARTESIAN_POINT('Origin',(-46.2,-30.98,1.51));
#2182=CARTESIAN_POINT('',(-46.2,-27.94,1.51));
#2183=CARTESIAN_POINT('Origin',(-46.2,-28.44,1.51));
#2184=CARTESIAN_POINT('',(-46.2,-25.4,1.51));
#2185=CARTESIAN_POINT('Origin',(-46.2,-25.9,1.51));
#2186=CARTESIAN_POINT('',(-46.2,-22.86,1.51));
#2187=CARTESIAN_POINT('Origin',(-46.2,-23.36,1.51));
#2188=CARTESIAN_POINT('',(-46.2,-20.32,1.51));
#2189=CARTESIAN_POINT('Origin',(-46.2,-20.82,1.51));
#2190=CARTESIAN_POINT('',(-46.2,-17.78,1.51));
#2191=CARTESIAN_POINT('Origin',(-46.2,-18.28,1.51));
#2192=CARTESIAN_POINT('',(-46.2,-15.24,1.51));
#2193=CARTESIAN_POINT('Origin',(-46.2,-15.74,1.51));
#2194=CARTESIAN_POINT('',(-46.2,-12.7,1.51));
#2195=CARTESIAN_POINT('Origin',(-46.2,-13.2,1.51));
#2196=CARTESIAN_POINT('',(-46.2,-10.16,1.51));
#2197=CARTESIAN_POINT('Origin',(-46.2,-10.66,1.51));
#2198=CARTESIAN_POINT('',(-46.2,-7.62,1.51));
#2199=CARTESIAN_POINT('Origin',(-46.2,-8.12,1.51));
#2200=CARTESIAN_POINT('',(-46.2,-5.08,1.51));
#2201=CARTESIAN_POINT('Origin',(-46.2,-5.58,1.51));
#2202=CARTESIAN_POINT('',(-46.2,-2.54,1.51));
#2203=CARTESIAN_POINT('Origin',(-46.2,-3.04,1.51));
#2204=CARTESIAN_POINT('',(-46.2,0.,1.51));
#2205=CARTESIAN_POINT('Origin',(-46.2,-0.5,1.51));
#2206=CARTESIAN_POINT('',(-46.2,2.54,1.51));
#2207=CARTESIAN_POINT('Origin',(-46.2,2.04,1.51));
#2208=CARTESIAN_POINT('',(-30.05,28.8,1.51));
#2209=CARTESIAN_POINT('Origin',(-30.05,28.25,1.51));
#2210=CARTESIAN_POINT('',(-30.05,35.3,1.51));
#2211=CARTESIAN_POINT('Origin',(-30.05,34.75,1.51));
#2212=CARTESIAN_POINT('',(-25.55,28.8,1.51));
#2213=CARTESIAN_POINT('Origin',(-25.55,28.25,1.51));
#2214=CARTESIAN_POINT('',(-25.55,35.3,1.51));
#2215=CARTESIAN_POINT('Origin',(-25.55,34.75,1.51));
#2216=CARTESIAN_POINT('',(-13.5,27.2,1.51));
#2217=CARTESIAN_POINT('Origin',(-13.5,27.1,1.51));
#2218=CARTESIAN_POINT('',(-14.2,27.9,1.51));
#2219=CARTESIAN_POINT('Origin',(-14.2,27.8,1.51));
#2220=CARTESIAN_POINT('',(-12.1,27.2,1.51));
#2221=CARTESIAN_POINT('Origin',(-12.1,27.1,1.51));
#2222=CARTESIAN_POINT('',(-12.8,27.9,1.51));
#2223=CARTESIAN_POINT('Origin',(-12.8,27.8,1.51));
#2224=CARTESIAN_POINT('',(-11.4,27.9,1.51));
#2225=CARTESIAN_POINT('Origin',(-11.4,27.8,1.51));
#2226=CARTESIAN_POINT('',(-13.5,28.6,1.51));
#2227=CARTESIAN_POINT('Origin',(-13.5,28.5,1.51));
#2228=CARTESIAN_POINT('',(-14.2,29.3,1.51));
#2229=CARTESIAN_POINT('Origin',(-14.2,29.2,1.51));
#2230=CARTESIAN_POINT('',(-12.1,28.6,1.51));
#2231=CARTESIAN_POINT('Origin',(-12.1,28.5,1.51));
#2232=CARTESIAN_POINT('',(-12.8,29.3,1.51));
#2233=CARTESIAN_POINT('Origin',(-12.8,29.2,1.51));
#2234=CARTESIAN_POINT('',(-13.5,30.,1.51));
#2235=CARTESIAN_POINT('Origin',(-13.5,29.9,1.51));
#2236=CARTESIAN_POINT('',(-12.1,30.,1.51));
#2237=CARTESIAN_POINT('Origin',(-12.1,29.9,1.51));
#2238=CARTESIAN_POINT('',(-11.4,29.3,1.51));
#2239=CARTESIAN_POINT('Origin',(-11.4,29.2,1.51));
#2240=CARTESIAN_POINT('',(-47.4,53.,1.51));
#2241=CARTESIAN_POINT('Origin',(-47.4,52.5,1.51));
#2242=CARTESIAN_POINT('',(-39.8,53.,1.51));
#2243=CARTESIAN_POINT('Origin',(-39.8,52.5,1.51));
#2244=CARTESIAN_POINT('',(16.55,50.8,1.51));
#2245=CARTESIAN_POINT('Origin',(16.55,50.25,1.51));
#2246=CARTESIAN_POINT('',(16.55,57.3,1.51));
#2247=CARTESIAN_POINT('Origin',(16.55,56.75,1.51));
#2248=CARTESIAN_POINT('',(27.86,44.95,1.51));
#2249=CARTESIAN_POINT('Origin',(27.86,44.5,1.51));
#2250=CARTESIAN_POINT('',(30.4,44.95,1.51));
#2251=CARTESIAN_POINT('Origin',(30.4,44.5,1.51));
#2252=CARTESIAN_POINT('',(35.4,43.475,1.51));
#2253=CARTESIAN_POINT('Origin',(35.4,43.1,1.51));
#2254=CARTESIAN_POINT('',(36.67,43.475,1.51));
#2255=CARTESIAN_POINT('Origin',(36.67,43.1,1.51));
#2256=CARTESIAN_POINT('',(37.94,43.475,1.51));
#2257=CARTESIAN_POINT('Origin',(37.94,43.1,1.51));
#2258=CARTESIAN_POINT('',(21.05,50.8,1.51));
#2259=CARTESIAN_POINT('Origin',(21.05,50.25,1.51));
#2260=CARTESIAN_POINT('',(21.05,57.3,1.51));
#2261=CARTESIAN_POINT('Origin',(21.05,56.75,1.51));
#2262=CARTESIAN_POINT('',(31.98,54.125,1.51));
#2263=CARTESIAN_POINT('',(31.38,54.125,1.51));
#2264=CARTESIAN_POINT('Origin',(31.68,54.125,1.51));
#2265=CARTESIAN_POINT('',(31.38,54.725,1.51));
#2266=CARTESIAN_POINT('',(31.38,27.3625,1.51));
#2267=CARTESIAN_POINT('',(31.98,54.725,1.51));
#2268=CARTESIAN_POINT('Origin',(31.68,54.725,1.51));
#2269=CARTESIAN_POINT('',(31.98,27.0625,1.51));
#2270=CARTESIAN_POINT('',(31.98,58.055,1.51));
#2271=CARTESIAN_POINT('',(31.38,58.055,1.51));
#2272=CARTESIAN_POINT('Origin',(31.68,58.055,1.51));
#2273=CARTESIAN_POINT('',(31.38,59.155,1.51));
#2274=CARTESIAN_POINT('',(31.38,29.5775,1.51));
#2275=CARTESIAN_POINT('',(31.98,59.155,1.51));
#2276=CARTESIAN_POINT('Origin',(31.68,59.155,1.51));
#2277=CARTESIAN_POINT('',(31.98,29.0275,1.51));
#2278=CARTESIAN_POINT('',(33.11,58.43,1.51));
#2279=CARTESIAN_POINT('Origin',(33.11,58.105,1.51));
#2280=CARTESIAN_POINT('',(40.62,54.125,1.51));
#2281=CARTESIAN_POINT('',(40.02,54.125,1.51));
#2282=CARTESIAN_POINT('Origin',(40.32,54.125,1.51));
#2283=CARTESIAN_POINT('',(40.02,54.725,1.51));
#2284=CARTESIAN_POINT('',(40.02,27.3625,1.51));
#2285=CARTESIAN_POINT('',(40.62,54.725,1.51));
#2286=CARTESIAN_POINT('Origin',(40.32,54.725,1.51));
#2287=CARTESIAN_POINT('',(40.62,27.0625,1.51));
#2288=CARTESIAN_POINT('',(38.89,58.43,1.51));
#2289=CARTESIAN_POINT('Origin',(38.89,58.105,1.51));
#2290=CARTESIAN_POINT('',(40.62,58.055,1.51));
#2291=CARTESIAN_POINT('',(40.02,58.055,1.51));
#2292=CARTESIAN_POINT('Origin',(40.32,58.055,1.51));
#2293=CARTESIAN_POINT('',(40.02,59.155,1.51));
#2294=CARTESIAN_POINT('',(40.02,29.5775,1.51));
#2295=CARTESIAN_POINT('',(40.62,59.155,1.51));
#2296=CARTESIAN_POINT('Origin',(40.32,59.155,1.51));
#2297=CARTESIAN_POINT('',(40.62,29.0275,1.51));
#2298=CARTESIAN_POINT('Origin',(-60.2,60.5,0.));
#2299=CARTESIAN_POINT('Origin',(-46.2,-30.98,-0.046));
#2300=CARTESIAN_POINT('',(-46.2,-30.48,-0.046));
#2301=CARTESIAN_POINT('Origin',(-46.2,-28.44,-0.046));
#2302=CARTESIAN_POINT('',(-46.2,-27.94,-0.046));
#2303=CARTESIAN_POINT('Origin',(-46.2,-25.9,-0.046));
#2304=CARTESIAN_POINT('',(-46.2,-25.4,-0.046));
#2305=CARTESIAN_POINT('Origin',(-46.2,-23.36,-0.046));
#2306=CARTESIAN_POINT('',(-46.2,-22.86,-0.046));
#2307=CARTESIAN_POINT('Origin',(-46.2,-20.82,-0.046));
#2308=CARTESIAN_POINT('',(-46.2,-20.32,-0.046));
#2309=CARTESIAN_POINT('Origin',(-46.2,-18.28,-0.046));
#2310=CARTESIAN_POINT('',(-46.2,-17.78,-0.046));
#2311=CARTESIAN_POINT('Origin',(-46.2,-15.74,-0.046));
#2312=CARTESIAN_POINT('',(-46.2,-15.24,-0.046));
#2313=CARTESIAN_POINT('Origin',(-46.2,-13.2,-0.046));
#2314=CARTESIAN_POINT('',(-46.2,-12.7,-0.046));
#2315=CARTESIAN_POINT('Origin',(-46.2,-10.66,-0.046));
#2316=CARTESIAN_POINT('',(-46.2,-10.16,-0.046));
#2317=CARTESIAN_POINT('Origin',(-46.2,-8.12,-0.046));
#2318=CARTESIAN_POINT('',(-46.2,-7.62,-0.046));
#2319=CARTESIAN_POINT('Origin',(-46.2,-5.58,-0.046));
#2320=CARTESIAN_POINT('',(-46.2,-5.08,-0.046));
#2321=CARTESIAN_POINT('Origin',(-46.2,-3.04,-0.046));
#2322=CARTESIAN_POINT('',(-46.2,-2.54,-0.046));
#2323=CARTESIAN_POINT('Origin',(-46.2,-0.5,-0.046));
#2324=CARTESIAN_POINT('',(-46.2,0.,-0.046));
#2325=CARTESIAN_POINT('Origin',(-46.2,2.04,-0.046));
#2326=CARTESIAN_POINT('',(-46.2,2.54,-0.046));
#2327=CARTESIAN_POINT('Origin',(-30.05,28.25,-0.046));
#2328=CARTESIAN_POINT('',(-30.05,28.8,-0.046));
#2329=CARTESIAN_POINT('Origin',(-30.05,34.75,-0.046));
#2330=CARTESIAN_POINT('',(-30.05,35.3,-0.046));
#2331=CARTESIAN_POINT('Origin',(-25.55,28.25,-0.046));
#2332=CARTESIAN_POINT('',(-25.55,28.8,-0.046));
#2333=CARTESIAN_POINT('Origin',(-25.55,34.75,-0.046));
#2334=CARTESIAN_POINT('',(-25.55,35.3,-0.046));
#2335=CARTESIAN_POINT('Origin',(-13.5,27.1,-0.046));
#2336=CARTESIAN_POINT('',(-13.5,27.2,-0.046));
#2337=CARTESIAN_POINT('Origin',(-14.2,27.8,-0.046));
#2338=CARTESIAN_POINT('',(-14.2,27.9,-0.046));
#2339=CARTESIAN_POINT('Origin',(-12.1,27.1,-0.046));
#2340=CARTESIAN_POINT('',(-12.1,27.2,-0.046));
#2341=CARTESIAN_POINT('Origin',(-12.8,27.8,-0.046));
#2342=CARTESIAN_POINT('',(-12.8,27.9,-0.046));
#2343=CARTESIAN_POINT('Origin',(-11.4,27.8,-0.046));
#2344=CARTESIAN_POINT('',(-11.4,27.9,-0.046));
#2345=CARTESIAN_POINT('Origin',(-13.5,28.5,-0.046));
#2346=CARTESIAN_POINT('',(-13.5,28.6,-0.046));
#2347=CARTESIAN_POINT('Origin',(-14.2,29.2,-0.046));
#2348=CARTESIAN_POINT('',(-14.2,29.3,-0.046));
#2349=CARTESIAN_POINT('Origin',(-12.1,28.5,-0.046));
#2350=CARTESIAN_POINT('',(-12.1,28.6,-0.046));
#2351=CARTESIAN_POINT('Origin',(-12.8,29.2,-0.046));
#2352=CARTESIAN_POINT('',(-12.8,29.3,-0.046));
#2353=CARTESIAN_POINT('Origin',(-13.5,29.9,-0.046));
#2354=CARTESIAN_POINT('',(-13.5,30.,-0.046));
#2355=CARTESIAN_POINT('Origin',(-12.1,29.9,-0.046));
#2356=CARTESIAN_POINT('',(-12.1,30.,-0.046));
#2357=CARTESIAN_POINT('Origin',(-11.4,29.2,-0.046));
#2358=CARTESIAN_POINT('',(-11.4,29.3,-0.046));
#2359=CARTESIAN_POINT('Origin',(-47.4,52.5,-0.046));
#2360=CARTESIAN_POINT('',(-47.4,53.,-0.046));
#2361=CARTESIAN_POINT('Origin',(-39.8,52.5,-0.046));
#2362=CARTESIAN_POINT('',(-39.8,53.,-0.046));
#2363=CARTESIAN_POINT('Origin',(16.55,50.25,-0.046));
#2364=CARTESIAN_POINT('',(16.55,50.8,-0.046));
#2365=CARTESIAN_POINT('Origin',(16.55,56.75,-0.046));
#2366=CARTESIAN_POINT('',(16.55,57.3,-0.046));
#2367=CARTESIAN_POINT('Origin',(27.86,44.5,-0.046));
#2368=CARTESIAN_POINT('',(27.86,44.95,-0.046));
#2369=CARTESIAN_POINT('Origin',(30.4,44.5,-0.046));
#2370=CARTESIAN_POINT('',(30.4,44.95,-0.046));
#2371=CARTESIAN_POINT('Origin',(35.4,43.1,-0.046));
#2372=CARTESIAN_POINT('',(35.4,43.475,-0.046));
#2373=CARTESIAN_POINT('Origin',(36.67,43.1,-0.046));
#2374=CARTESIAN_POINT('',(36.67,43.475,-0.046));
#2375=CARTESIAN_POINT('Origin',(37.94,43.1,-0.046));
#2376=CARTESIAN_POINT('',(37.94,43.475,-0.046));
#2377=CARTESIAN_POINT('Origin',(21.05,50.25,-0.046));
#2378=CARTESIAN_POINT('',(21.05,50.8,-0.046));
#2379=CARTESIAN_POINT('Origin',(21.05,56.75,-0.046));
#2380=CARTESIAN_POINT('',(21.05,57.3,-0.046));
#2381=CARTESIAN_POINT('Origin',(31.68,54.125,-0.046));
#2382=CARTESIAN_POINT('',(31.38,54.125,-0.046));
#2383=CARTESIAN_POINT('',(31.98,54.125,-0.046));
#2384=CARTESIAN_POINT('Origin',(31.98,54.125,-0.046));
#2385=CARTESIAN_POINT('',(31.98,54.725,-0.046));
#2386=CARTESIAN_POINT('Origin',(31.68,54.725,-0.046));
#2387=CARTESIAN_POINT('',(31.38,54.725,-0.046));
#2388=CARTESIAN_POINT('Origin',(31.38,54.725,-0.046));
#2389=CARTESIAN_POINT('Origin',(31.68,58.055,-0.046));
#2390=CARTESIAN_POINT('',(31.38,58.055,-0.046));
#2391=CARTESIAN_POINT('',(31.98,58.055,-0.046));
#2392=CARTESIAN_POINT('Origin',(31.98,58.055,-0.046));
#2393=CARTESIAN_POINT('',(31.98,59.155,-0.046));
#2394=CARTESIAN_POINT('Origin',(31.68,59.155,-0.046));
#2395=CARTESIAN_POINT('',(31.38,59.155,-0.046));
#2396=CARTESIAN_POINT('Origin',(31.38,59.155,-0.046));
#2397=CARTESIAN_POINT('Origin',(33.11,58.105,-0.046));
#2398=CARTESIAN_POINT('',(33.11,58.43,-0.046));
#2399=CARTESIAN_POINT('Origin',(40.32,54.125,-0.046));
#2400=CARTESIAN_POINT('',(40.02,54.125,-0.046));
#2401=CARTESIAN_POINT('',(40.62,54.125,-0.046));
#2402=CARTESIAN_POINT('Origin',(40.62,54.125,-0.046));
#2403=CARTESIAN_POINT('',(40.62,54.725,-0.046));
#2404=CARTESIAN_POINT('Origin',(40.32,54.725,-0.046));
#2405=CARTESIAN_POINT('',(40.02,54.725,-0.046));
#2406=CARTESIAN_POINT('Origin',(40.02,54.725,-0.046));
#2407=CARTESIAN_POINT('Origin',(38.89,58.105,-0.046));
#2408=CARTESIAN_POINT('',(38.89,58.43,-0.046));
#2409=CARTESIAN_POINT('Origin',(40.32,58.055,-0.046));
#2410=CARTESIAN_POINT('',(40.02,58.055,-0.046));
#2411=CARTESIAN_POINT('',(40.62,58.055,-0.046));
#2412=CARTESIAN_POINT('Origin',(40.62,58.055,-0.046));
#2413=CARTESIAN_POINT('',(40.62,59.155,-0.046));
#2414=CARTESIAN_POINT('Origin',(40.32,59.155,-0.046));
#2415=CARTESIAN_POINT('',(40.02,59.155,-0.046));
#2416=CARTESIAN_POINT('Origin',(40.02,59.155,-0.046));
#2417=UNCERTAINTY_MEASURE_WITH_UNIT(LENGTH_MEASURE(0.01),#2421,
'DISTANCE_ACCURACY_VALUE',
'Maximum model space distance between geometric entities at asserted c
onnectivities');
#2418=UNCERTAINTY_MEASURE_WITH_UNIT(LENGTH_MEASURE(0.01),#2421,
'DISTANCE_ACCURACY_VALUE',
'Maximum model space distance between geometric entities at asserted c
onnectivities');
#2419=(
GEOMETRIC_REPRESENTATION_CONTEXT(3)
GLOBAL_UNCERTAINTY_ASSIGNED_CONTEXT((#2417))
GLOBAL_UNIT_ASSIGNED_CONTEXT((#2421,#2423,#2424))
REPRESENTATION_CONTEXT('','3D')
);
#2420=(
GEOMETRIC_REPRESENTATION_CONTEXT(3)
GLOBAL_UNCERTAINTY_ASSIGNED_CONTEXT((#2418))
GLOBAL_UNIT_ASSIGNED_CONTEXT((#2421,#2423,#2424))
REPRESENTATION_CONTEXT('','3D')
);
#2421=(
LENGTH_UNIT()
NAMED_UNIT(*)
SI_UNIT(.MILLI.,.METRE.)
);
#2422=(
LENGTH_UNIT()
NAMED_UNIT(*)
SI_UNIT($,.METRE.)
);
#2423=(
NAMED_UNIT(*)
PLANE_ANGLE_UNIT()
SI_UNIT($,.RADIAN.)
);
#2424=(
NAMED_UNIT(*)
SI_UNIT($,.STERADIAN.)
SOLID_ANGLE_UNIT()
);
#2425=SHAPE_DEFINITION_REPRESENTATION(#2426,#2427);
#2426=PRODUCT_DEFINITION_SHAPE('',$,#2429);
#2427=SHAPE_REPRESENTATION('',(#1445),#2419);
#2428=PRODUCT_DEFINITION_CONTEXT('part definition',#2433,'design');
#2429=PRODUCT_DEFINITION('2026-05-13-01-41-06-807','Touch_PCB',#2430,#2428);
#2430=PRODUCT_DEFINITION_FORMATION('',$,#2435);
#2431=PRODUCT_RELATED_PRODUCT_CATEGORY('Touch_PCB','Touch_PCB',(#2435));
#2432=APPLICATION_PROTOCOL_DEFINITION('international standard',
'automotive_design',2009,#2433);
#2433=APPLICATION_CONTEXT(
'Core Data for Automotive Mechanical Design Process');
#2434=PRODUCT_CONTEXT('part definition',#2433,'mechanical');
#2435=PRODUCT('2026-05-13-01-41-06-807','Touch_PCB',$,(#2434));
#2436=PRESENTATION_STYLE_ASSIGNMENT((#2438));
#2437=PRESENTATION_STYLE_ASSIGNMENT((#2439));
#2438=SURFACE_STYLE_USAGE(.BOTH.,#2440);
#2439=SURFACE_STYLE_USAGE(.BOTH.,#2441);
#2440=SURFACE_SIDE_STYLE('',(#2442));
#2441=SURFACE_SIDE_STYLE('',(#2443));
#2442=SURFACE_STYLE_FILL_AREA(#2444);
#2443=SURFACE_STYLE_FILL_AREA(#2445);
#2444=FILL_AREA_STYLE('Steel - Satin',(#2446));
#2445=FILL_AREA_STYLE('Opaque(80,124,105)',(#2447));
#2446=FILL_AREA_STYLE_COLOUR('Steel - Satin',#2448);
#2447=FILL_AREA_STYLE_COLOUR('Opaque(80,124,105)',#2449);
#2448=COLOUR_RGB('Steel - Satin',0.627450980392157,0.627450980392157,0.627450980392157);
#2449=COLOUR_RGB('Opaque(80,124,105)',0.313725490196078,0.486274509803922,
0.411764705882353);
ENDSEC;
END-ISO-10303-21;
