ISO-10303-21;
HEADER;
/* Generated by software containing ST-Developer
 * from STEP Tools, Inc. (www.steptools.com) 
 */

FILE_DESCRIPTION(
/* description */ (''),
/* implementation_level */ '2;1');

FILE_NAME(
/* name */ 'LED_D5.0mm.step',
/* time_stamp */ '2026-05-13T01:38:44+05:30',
/* author */ (''),
/* organization */ (''),
/* preprocessor_version */ 'ST-DEVELOPER v20.1',
/* originating_system */ 'Autodesk Translation Framework v15.8.0.0',
/* authorisation */ '');

FILE_SCHEMA (('AUTOMOTIVE_DESIGN { 1 0 10303 214 3 1 1 }'));
ENDSEC;

DATA;
#10=MECHANICAL_DESIGN_GEOMETRIC_PRESENTATION_REPRESENTATION('',(#25,#26,
#27,#28,#29,#30,#31),#464);
#11=SHAPE_REPRESENTATION_RELATIONSHIP('SRR','None',#471,#12);
#12=ADVANCED_BREP_SHAPE_REPRESENTATION('',(#13),#463);
#13=MANIFOLD_SOLID_BREP('Body1',#279);
#14=SPHERICAL_SURFACE('',#310,2.45);
#15=CYLINDRICAL_SURFACE('',#306,2.9);
#16=CYLINDRICAL_SURFACE('',#313,2.45);
#17=FACE_BOUND('',#59,.T.);
#18=FACE_BOUND('',#60,.T.);
#19=FACE_BOUND('',#64,.T.);
#20=CIRCLE('',#304,2.9);
#21=CIRCLE('',#307,2.9);
#22=CIRCLE('',#309,2.45);
#23=CIRCLE('',#311,2.45);
#24=CIRCLE('',#312,2.45);
#25=STYLED_ITEM('',(#482),#273);
#26=STYLED_ITEM('',(#482),#274);
#27=STYLED_ITEM('',(#482),#275);
#28=STYLED_ITEM('',(#482),#276);
#29=STYLED_ITEM('',(#482),#277);
#30=STYLED_ITEM('',(#482),#278);
#31=STYLED_ITEM('',(#481),#13);
#32=FACE_OUTER_BOUND('',#48,.T.);
#33=FACE_OUTER_BOUND('',#49,.T.);
#34=FACE_OUTER_BOUND('',#50,.T.);
#35=FACE_OUTER_BOUND('',#51,.T.);
#36=FACE_OUTER_BOUND('',#52,.T.);
#37=FACE_OUTER_BOUND('',#53,.T.);
#38=FACE_OUTER_BOUND('',#54,.T.);
#39=FACE_OUTER_BOUND('',#55,.T.);
#40=FACE_OUTER_BOUND('',#56,.T.);
#41=FACE_OUTER_BOUND('',#57,.T.);
#42=FACE_OUTER_BOUND('',#58,.T.);
#43=FACE_OUTER_BOUND('',#61,.T.);
#44=FACE_OUTER_BOUND('',#62,.T.);
#45=FACE_OUTER_BOUND('',#63,.T.);
#46=FACE_OUTER_BOUND('',#65,.T.);
#47=FACE_OUTER_BOUND('',#66,.T.);
#48=EDGE_LOOP('',(#182,#183,#184,#185));
#49=EDGE_LOOP('',(#186,#187,#188,#189));
#50=EDGE_LOOP('',(#190,#191,#192,#193));
#51=EDGE_LOOP('',(#194,#195,#196,#197));
#52=EDGE_LOOP('',(#198,#199,#200,#201));
#53=EDGE_LOOP('',(#202,#203,#204,#205));
#54=EDGE_LOOP('',(#206,#207,#208,#209));
#55=EDGE_LOOP('',(#210,#211,#212,#213));
#56=EDGE_LOOP('',(#214,#215,#216,#217));
#57=EDGE_LOOP('',(#218,#219,#220,#221));
#58=EDGE_LOOP('',(#222,#223));
#59=EDGE_LOOP('',(#224,#225,#226,#227));
#60=EDGE_LOOP('',(#228,#229,#230,#231));
#61=EDGE_LOOP('',(#232,#233,#234,#235));
#62=EDGE_LOOP('',(#236,#237,#238,#239));
#63=EDGE_LOOP('',(#240,#241));
#64=EDGE_LOOP('',(#242));
#65=EDGE_LOOP('',(#243,#244,#245));
#66=EDGE_LOOP('',(#246,#247,#248,#249));
#67=LINE('',#391,#96);
#68=LINE('',#393,#97);
#69=LINE('',#395,#98);
#70=LINE('',#396,#99);
#71=LINE('',#400,#100);
#72=LINE('',#402,#101);
#73=LINE('',#404,#102);
#74=LINE('',#405,#103);
#75=LINE('',#409,#104);
#76=LINE('',#410,#105);
#77=LINE('',#411,#106);
#78=LINE('',#414,#107);
#79=LINE('',#415,#108);
#80=LINE('',#418,#109);
#81=LINE('',#419,#110);
#82=LINE('',#421,#111);
#83=LINE('',#425,#112);
#84=LINE('',#426,#113);
#85=LINE('',#427,#114);
#86=LINE('',#430,#115);
#87=LINE('',#431,#116);
#88=LINE('',#434,#117);
#89=LINE('',#435,#118);
#90=LINE('',#437,#119);
#91=LINE('',#442,#120);
#92=LINE('',#445,#121);
#93=LINE('',#447,#122);
#94=LINE('',#448,#123);
#95=LINE('',#460,#124);
#96=VECTOR('',#318,1.);
#97=VECTOR('',#319,1.);
#98=VECTOR('',#320,1.);
#99=VECTOR('',#321,1.);
#100=VECTOR('',#324,1.);
#101=VECTOR('',#325,1.);
#102=VECTOR('',#326,1.);
#103=VECTOR('',#327,1.);
#104=VECTOR('',#330,1.);
#105=VECTOR('',#331,1.);
#106=VECTOR('',#332,1.);
#107=VECTOR('',#335,1.);
#108=VECTOR('',#336,1.);
#109=VECTOR('',#339,1.);
#110=VECTOR('',#340,1.);
#111=VECTOR('',#343,1.);
#112=VECTOR('',#346,1.);
#113=VECTOR('',#347,1.);
#114=VECTOR('',#348,1.);
#115=VECTOR('',#351,1.);
#116=VECTOR('',#352,1.);
#117=VECTOR('',#355,1.);
#118=VECTOR('',#356,1.);
#119=VECTOR('',#359,1.);
#120=VECTOR('',#364,1.);
#121=VECTOR('',#367,1.);
#122=VECTOR('',#368,1.);
#123=VECTOR('',#369,1.);
#124=VECTOR('',#386,2.45);
#125=VERTEX_POINT('',#389);
#126=VERTEX_POINT('',#390);
#127=VERTEX_POINT('',#392);
#128=VERTEX_POINT('',#394);
#129=VERTEX_POINT('',#398);
#130=VERTEX_POINT('',#399);
#131=VERTEX_POINT('',#401);
#132=VERTEX_POINT('',#403);
#133=VERTEX_POINT('',#407);
#134=VERTEX_POINT('',#408);
#135=VERTEX_POINT('',#413);
#136=VERTEX_POINT('',#417);
#137=VERTEX_POINT('',#423);
#138=VERTEX_POINT('',#424);
#139=VERTEX_POINT('',#429);
#140=VERTEX_POINT('',#433);
#141=VERTEX_POINT('',#439);
#142=VERTEX_POINT('',#440);
#143=VERTEX_POINT('',#444);
#144=VERTEX_POINT('',#446);
#145=VERTEX_POINT('',#452);
#146=VERTEX_POINT('',#455);
#147=VERTEX_POINT('',#457);
#148=EDGE_CURVE('',#125,#126,#67,.T.);
#149=EDGE_CURVE('',#126,#127,#68,.T.);
#150=EDGE_CURVE('',#127,#128,#69,.T.);
#151=EDGE_CURVE('',#128,#125,#70,.T.);
#152=EDGE_CURVE('',#129,#130,#71,.T.);
#153=EDGE_CURVE('',#130,#131,#72,.T.);
#154=EDGE_CURVE('',#131,#132,#73,.T.);
#155=EDGE_CURVE('',#132,#129,#74,.T.);
#156=EDGE_CURVE('',#133,#134,#75,.T.);
#157=EDGE_CURVE('',#133,#128,#76,.T.);
#158=EDGE_CURVE('',#134,#127,#77,.T.);
#159=EDGE_CURVE('',#134,#135,#78,.T.);
#160=EDGE_CURVE('',#135,#126,#79,.T.);
#161=EDGE_CURVE('',#135,#136,#80,.T.);
#162=EDGE_CURVE('',#136,#125,#81,.T.);
#163=EDGE_CURVE('',#136,#133,#82,.T.);
#164=EDGE_CURVE('',#137,#138,#83,.T.);
#165=EDGE_CURVE('',#137,#131,#84,.T.);
#166=EDGE_CURVE('',#138,#130,#85,.T.);
#167=EDGE_CURVE('',#138,#139,#86,.T.);
#168=EDGE_CURVE('',#139,#129,#87,.T.);
#169=EDGE_CURVE('',#139,#140,#88,.T.);
#170=EDGE_CURVE('',#140,#132,#89,.T.);
#171=EDGE_CURVE('',#140,#137,#90,.T.);
#172=EDGE_CURVE('',#141,#142,#20,.T.);
#173=EDGE_CURVE('',#141,#142,#91,.T.);
#174=EDGE_CURVE('',#141,#143,#92,.T.);
#175=EDGE_CURVE('',#143,#144,#93,.T.);
#176=EDGE_CURVE('',#142,#144,#94,.T.);
#177=EDGE_CURVE('',#143,#144,#21,.T.);
#178=EDGE_CURVE('',#145,#145,#22,.T.);
#179=EDGE_CURVE('',#146,#146,#23,.T.);
#180=EDGE_CURVE('',#147,#146,#24,.T.);
#181=EDGE_CURVE('',#145,#146,#95,.T.);
#182=ORIENTED_EDGE('',*,*,#148,.T.);
#183=ORIENTED_EDGE('',*,*,#149,.T.);
#184=ORIENTED_EDGE('',*,*,#150,.T.);
#185=ORIENTED_EDGE('',*,*,#151,.T.);
#186=ORIENTED_EDGE('',*,*,#152,.T.);
#187=ORIENTED_EDGE('',*,*,#153,.T.);
#188=ORIENTED_EDGE('',*,*,#154,.T.);
#189=ORIENTED_EDGE('',*,*,#155,.T.);
#190=ORIENTED_EDGE('',*,*,#156,.F.);
#191=ORIENTED_EDGE('',*,*,#157,.T.);
#192=ORIENTED_EDGE('',*,*,#150,.F.);
#193=ORIENTED_EDGE('',*,*,#158,.F.);
#194=ORIENTED_EDGE('',*,*,#159,.F.);
#195=ORIENTED_EDGE('',*,*,#158,.T.);
#196=ORIENTED_EDGE('',*,*,#149,.F.);
#197=ORIENTED_EDGE('',*,*,#160,.F.);
#198=ORIENTED_EDGE('',*,*,#161,.F.);
#199=ORIENTED_EDGE('',*,*,#160,.T.);
#200=ORIENTED_EDGE('',*,*,#148,.F.);
#201=ORIENTED_EDGE('',*,*,#162,.F.);
#202=ORIENTED_EDGE('',*,*,#163,.F.);
#203=ORIENTED_EDGE('',*,*,#162,.T.);
#204=ORIENTED_EDGE('',*,*,#151,.F.);
#205=ORIENTED_EDGE('',*,*,#157,.F.);
#206=ORIENTED_EDGE('',*,*,#164,.F.);
#207=ORIENTED_EDGE('',*,*,#165,.T.);
#208=ORIENTED_EDGE('',*,*,#153,.F.);
#209=ORIENTED_EDGE('',*,*,#166,.F.);
#210=ORIENTED_EDGE('',*,*,#167,.F.);
#211=ORIENTED_EDGE('',*,*,#166,.T.);
#212=ORIENTED_EDGE('',*,*,#152,.F.);
#213=ORIENTED_EDGE('',*,*,#168,.F.);
#214=ORIENTED_EDGE('',*,*,#169,.F.);
#215=ORIENTED_EDGE('',*,*,#168,.T.);
#216=ORIENTED_EDGE('',*,*,#155,.F.);
#217=ORIENTED_EDGE('',*,*,#170,.F.);
#218=ORIENTED_EDGE('',*,*,#171,.F.);
#219=ORIENTED_EDGE('',*,*,#170,.T.);
#220=ORIENTED_EDGE('',*,*,#154,.F.);
#221=ORIENTED_EDGE('',*,*,#165,.F.);
#222=ORIENTED_EDGE('',*,*,#172,.F.);
#223=ORIENTED_EDGE('',*,*,#173,.T.);
#224=ORIENTED_EDGE('',*,*,#171,.T.);
#225=ORIENTED_EDGE('',*,*,#164,.T.);
#226=ORIENTED_EDGE('',*,*,#167,.T.);
#227=ORIENTED_EDGE('',*,*,#169,.T.);
#228=ORIENTED_EDGE('',*,*,#163,.T.);
#229=ORIENTED_EDGE('',*,*,#156,.T.);
#230=ORIENTED_EDGE('',*,*,#159,.T.);
#231=ORIENTED_EDGE('',*,*,#161,.T.);
#232=ORIENTED_EDGE('',*,*,#174,.T.);
#233=ORIENTED_EDGE('',*,*,#175,.T.);
#234=ORIENTED_EDGE('',*,*,#176,.F.);
#235=ORIENTED_EDGE('',*,*,#173,.F.);
#236=ORIENTED_EDGE('',*,*,#172,.T.);
#237=ORIENTED_EDGE('',*,*,#176,.T.);
#238=ORIENTED_EDGE('',*,*,#177,.F.);
#239=ORIENTED_EDGE('',*,*,#174,.F.);
#240=ORIENTED_EDGE('',*,*,#177,.T.);
#241=ORIENTED_EDGE('',*,*,#175,.F.);
#242=ORIENTED_EDGE('',*,*,#178,.T.);
#243=ORIENTED_EDGE('',*,*,#179,.F.);
#244=ORIENTED_EDGE('',*,*,#180,.F.);
#245=ORIENTED_EDGE('',*,*,#180,.T.);
#246=ORIENTED_EDGE('',*,*,#178,.F.);
#247=ORIENTED_EDGE('',*,*,#181,.T.);
#248=ORIENTED_EDGE('',*,*,#179,.T.);
#249=ORIENTED_EDGE('',*,*,#181,.F.);
#250=PLANE('',#293);
#251=PLANE('',#294);
#252=PLANE('',#295);
#253=PLANE('',#296);
#254=PLANE('',#297);
#255=PLANE('',#298);
#256=PLANE('',#299);
#257=PLANE('',#300);
#258=PLANE('',#301);
#259=PLANE('',#302);
#260=PLANE('',#303);
#261=PLANE('',#305);
#262=PLANE('',#308);
#263=ADVANCED_FACE('',(#32),#250,.F.);
#264=ADVANCED_FACE('',(#33),#251,.F.);
#265=ADVANCED_FACE('',(#34),#252,.F.);
#266=ADVANCED_FACE('',(#35),#253,.F.);
#267=ADVANCED_FACE('',(#36),#254,.F.);
#268=ADVANCED_FACE('',(#37),#255,.F.);
#269=ADVANCED_FACE('',(#38),#256,.F.);
#270=ADVANCED_FACE('',(#39),#257,.F.);
#271=ADVANCED_FACE('',(#40),#258,.F.);
#272=ADVANCED_FACE('',(#41),#259,.F.);
#273=ADVANCED_FACE('',(#42,#17,#18),#260,.T.);
#274=ADVANCED_FACE('',(#43),#261,.T.);
#275=ADVANCED_FACE('',(#44),#15,.T.);
#276=ADVANCED_FACE('',(#45,#19),#262,.F.);
#277=ADVANCED_FACE('',(#46),#14,.T.);
#278=ADVANCED_FACE('',(#47),#16,.T.);
#279=CLOSED_SHELL('',(#263,#264,#265,#266,#267,#268,#269,#270,#271,#272,
#273,#274,#275,#276,#277,#278));
#280=DERIVED_UNIT_ELEMENT(#282,1.);
#281=DERIVED_UNIT_ELEMENT(#466,-3.);
#282=(
MASS_UNIT()
NAMED_UNIT(*)
SI_UNIT(.KILO.,.GRAM.)
);
#283=DERIVED_UNIT((#280,#281));
#284=MEASURE_REPRESENTATION_ITEM('density measure',
POSITIVE_RATIO_MEASURE(7850.),#283);
#285=PROPERTY_DEFINITION_REPRESENTATION(#290,#287);
#286=PROPERTY_DEFINITION_REPRESENTATION(#291,#288);
#287=REPRESENTATION('material name',(#289),#463);
#288=REPRESENTATION('density',(#284),#463);
#289=DESCRIPTIVE_REPRESENTATION_ITEM('Steel','Steel');
#290=PROPERTY_DEFINITION('material property','material name',#473);
#291=PROPERTY_DEFINITION('material property','density of part',#473);
#292=AXIS2_PLACEMENT_3D('',#387,#314,#315);
#293=AXIS2_PLACEMENT_3D('',#388,#316,#317);
#294=AXIS2_PLACEMENT_3D('',#397,#322,#323);
#295=AXIS2_PLACEMENT_3D('',#406,#328,#329);
#296=AXIS2_PLACEMENT_3D('',#412,#333,#334);
#297=AXIS2_PLACEMENT_3D('',#416,#337,#338);
#298=AXIS2_PLACEMENT_3D('',#420,#341,#342);
#299=AXIS2_PLACEMENT_3D('',#422,#344,#345);
#300=AXIS2_PLACEMENT_3D('',#428,#349,#350);
#301=AXIS2_PLACEMENT_3D('',#432,#353,#354);
#302=AXIS2_PLACEMENT_3D('',#436,#357,#358);
#303=AXIS2_PLACEMENT_3D('',#438,#360,#361);
#304=AXIS2_PLACEMENT_3D('',#441,#362,#363);
#305=AXIS2_PLACEMENT_3D('',#443,#365,#366);
#306=AXIS2_PLACEMENT_3D('',#449,#370,#371);
#307=AXIS2_PLACEMENT_3D('',#450,#372,#373);
#308=AXIS2_PLACEMENT_3D('',#451,#374,#375);
#309=AXIS2_PLACEMENT_3D('',#453,#376,#377);
#310=AXIS2_PLACEMENT_3D('',#454,#378,#379);
#311=AXIS2_PLACEMENT_3D('',#456,#380,#381);
#312=AXIS2_PLACEMENT_3D('',#458,#382,#383);
#313=AXIS2_PLACEMENT_3D('',#459,#384,#385);
#314=DIRECTION('axis',(0.,0.,1.));
#315=DIRECTION('refdir',(1.,0.,0.));
#316=DIRECTION('center_axis',(0.,0.,1.));
#317=DIRECTION('ref_axis',(1.,0.,0.));
#318=DIRECTION('',(1.,0.,0.));
#319=DIRECTION('',(0.,-1.,0.));
#320=DIRECTION('',(-1.,0.,0.));
#321=DIRECTION('',(0.,1.,0.));
#322=DIRECTION('center_axis',(0.,0.,1.));
#323=DIRECTION('ref_axis',(1.,0.,0.));
#324=DIRECTION('',(1.,0.,0.));
#325=DIRECTION('',(0.,-1.,0.));
#326=DIRECTION('',(-1.,0.,0.));
#327=DIRECTION('',(0.,1.,0.));
#328=DIRECTION('center_axis',(0.,1.,0.));
#329=DIRECTION('ref_axis',(-1.,0.,0.));
#330=DIRECTION('',(1.,0.,0.));
#331=DIRECTION('',(0.,0.,-1.));
#332=DIRECTION('',(0.,0.,-1.));
#333=DIRECTION('center_axis',(-1.,0.,0.));
#334=DIRECTION('ref_axis',(0.,-1.,0.));
#335=DIRECTION('',(0.,1.,0.));
#336=DIRECTION('',(0.,0.,-1.));
#337=DIRECTION('center_axis',(0.,-1.,0.));
#338=DIRECTION('ref_axis',(1.,0.,0.));
#339=DIRECTION('',(-1.,0.,0.));
#340=DIRECTION('',(0.,0.,-1.));
#341=DIRECTION('center_axis',(1.,0.,0.));
#342=DIRECTION('ref_axis',(0.,1.,0.));
#343=DIRECTION('',(0.,-1.,0.));
#344=DIRECTION('center_axis',(-1.,0.,0.));
#345=DIRECTION('ref_axis',(0.,-1.,0.));
#346=DIRECTION('',(0.,1.,0.));
#347=DIRECTION('',(0.,0.,-1.));
#348=DIRECTION('',(0.,0.,-1.));
#349=DIRECTION('center_axis',(0.,-1.,0.));
#350=DIRECTION('ref_axis',(1.,0.,0.));
#351=DIRECTION('',(-1.,0.,0.));
#352=DIRECTION('',(0.,0.,-1.));
#353=DIRECTION('center_axis',(1.,0.,0.));
#354=DIRECTION('ref_axis',(0.,1.,0.));
#355=DIRECTION('',(0.,-1.,0.));
#356=DIRECTION('',(0.,0.,-1.));
#357=DIRECTION('center_axis',(0.,1.,0.));
#358=DIRECTION('ref_axis',(-1.,0.,0.));
#359=DIRECTION('',(1.,0.,0.));
#360=DIRECTION('center_axis',(0.,0.,-1.));
#361=DIRECTION('ref_axis',(-1.,0.,0.));
#362=DIRECTION('center_axis',(0.,0.,1.));
#363=DIRECTION('ref_axis',(1.,0.,0.));
#364=DIRECTION('',(0.,1.,0.));
#365=DIRECTION('center_axis',(-1.,0.,0.));
#366=DIRECTION('ref_axis',(0.,1.,0.));
#367=DIRECTION('',(0.,0.,1.));
#368=DIRECTION('',(0.,1.,0.));
#369=DIRECTION('',(0.,0.,1.));
#370=DIRECTION('center_axis',(0.,0.,-1.));
#371=DIRECTION('ref_axis',(1.,0.,0.));
#372=DIRECTION('center_axis',(0.,0.,1.));
#373=DIRECTION('ref_axis',(1.,0.,0.));
#374=DIRECTION('center_axis',(0.,0.,-1.));
#375=DIRECTION('ref_axis',(-1.,0.,0.));
#376=DIRECTION('center_axis',(-2.189528850508E-47,-4.440892098501E-16,-1.));
#377=DIRECTION('ref_axis',(1.,3.625218039592E-16,-1.60992021473674E-31));
#378=DIRECTION('center_axis',(9.06304509898087E-17,4.440892098501E-16,1.));
#379=DIRECTION('ref_axis',(1.,1.394807543452E-15,0.));
#380=DIRECTION('center_axis',(-4.379057701015E-47,-4.440892098501E-16,-1.));
#381=DIRECTION('ref_axis',(1.,8.292686265567E-16,-3.68269249121043E-31));
#382=DIRECTION('center_axis',(1.51727222336674E-15,-1.,4.440892098501E-16));
#383=DIRECTION('ref_axis',(-1.,-1.51727222336674E-15,0.));
#384=DIRECTION('center_axis',(0.,-4.440892098501E-16,-1.));
#385=DIRECTION('ref_axis',(1.,8.292686265567E-16,-3.68269249121043E-31));
#386=DIRECTION('',(0.,4.440892098501E-16,1.));
#387=CARTESIAN_POINT('',(0.,0.,0.));
#388=CARTESIAN_POINT('Origin',(2.34,0.2,-2.5));
#389=CARTESIAN_POINT('',(2.34,0.2,-2.5));
#390=CARTESIAN_POINT('',(2.74,0.2,-2.5));
#391=CARTESIAN_POINT('',(2.34,0.2,-2.5));
#392=CARTESIAN_POINT('',(2.74,-0.2,-2.5));
#393=CARTESIAN_POINT('',(2.74,0.2,-2.5));
#394=CARTESIAN_POINT('',(2.34,-0.2,-2.5));
#395=CARTESIAN_POINT('',(2.74,-0.2,-2.5));
#396=CARTESIAN_POINT('',(2.34,-0.2,-2.5));
#397=CARTESIAN_POINT('Origin',(-0.2,0.2,-2.5));
#398=CARTESIAN_POINT('',(-0.2,0.2,-2.5));
#399=CARTESIAN_POINT('',(0.2,0.2,-2.5));
#400=CARTESIAN_POINT('',(-0.2,0.2,-2.5));
#401=CARTESIAN_POINT('',(0.2,-0.2,-2.5));
#402=CARTESIAN_POINT('',(0.2,0.2,-2.5));
#403=CARTESIAN_POINT('',(-0.2,-0.2,-2.5));
#404=CARTESIAN_POINT('',(0.2,-0.2,-2.5));
#405=CARTESIAN_POINT('',(-0.2,-0.2,-2.5));
#406=CARTESIAN_POINT('Origin',(2.74,-0.2,3.5));
#407=CARTESIAN_POINT('',(2.34,-0.2,3.));
#408=CARTESIAN_POINT('',(2.74,-0.2,3.));
#409=CARTESIAN_POINT('',(0.755,-0.2,3.));
#410=CARTESIAN_POINT('',(2.34,-0.2,3.5));
#411=CARTESIAN_POINT('',(2.74,-0.2,3.5));
#412=CARTESIAN_POINT('Origin',(2.74,0.2,3.5));
#413=CARTESIAN_POINT('',(2.74,0.2,3.));
#414=CARTESIAN_POINT('',(2.74,-0.634846922835,3.));
#415=CARTESIAN_POINT('',(2.74,0.2,3.5));
#416=CARTESIAN_POINT('Origin',(2.34,0.2,3.5));
#417=CARTESIAN_POINT('',(2.34,0.2,3.));
#418=CARTESIAN_POINT('',(0.555,0.2,3.));
#419=CARTESIAN_POINT('',(2.34,0.2,3.5));
#420=CARTESIAN_POINT('Origin',(2.34,-0.2,3.5));
#421=CARTESIAN_POINT('',(2.34,-0.834846922835,3.));
#422=CARTESIAN_POINT('Origin',(0.2,0.2,3.5));
#423=CARTESIAN_POINT('',(0.2,-0.2,3.));
#424=CARTESIAN_POINT('',(0.2,0.2,3.));
#425=CARTESIAN_POINT('',(0.2,-0.634846922835,3.));
#426=CARTESIAN_POINT('',(0.2,-0.2,3.5));
#427=CARTESIAN_POINT('',(0.2,0.2,3.5));
#428=CARTESIAN_POINT('Origin',(-0.2,0.2,3.5));
#429=CARTESIAN_POINT('',(-0.2,0.2,3.));
#430=CARTESIAN_POINT('',(-0.715,0.2,3.));
#431=CARTESIAN_POINT('',(-0.2,0.2,3.5));
#432=CARTESIAN_POINT('Origin',(-0.2,-0.2,3.5));
#433=CARTESIAN_POINT('',(-0.2,-0.2,3.));
#434=CARTESIAN_POINT('',(-0.2,-0.834846922835,3.));
#435=CARTESIAN_POINT('',(-0.2,-0.2,3.5));
#436=CARTESIAN_POINT('Origin',(0.2,-0.2,3.5));
#437=CARTESIAN_POINT('',(-0.515,-0.2,3.));
#438=CARTESIAN_POINT('Origin',(-1.229999999999,-1.469693845671,3.));
#439=CARTESIAN_POINT('',(-1.229999999999,-1.46969384567,3.));
#440=CARTESIAN_POINT('',(-1.23,1.469693845669,3.));
#441=CARTESIAN_POINT('Origin',(1.27,0.,3.));
#442=CARTESIAN_POINT('',(-1.229999999999,-1.46969384567,3.));
#443=CARTESIAN_POINT('Origin',(-1.229999999999,-1.46969384567,3.));
#444=CARTESIAN_POINT('',(-1.229999999999,-1.46969384567,4.));
#445=CARTESIAN_POINT('',(-1.229999999999,-1.46969384567,3.));
#446=CARTESIAN_POINT('',(-1.23,1.469693845669,4.));
#447=CARTESIAN_POINT('',(-1.229999999999,-1.46969384567,4.));
#448=CARTESIAN_POINT('',(-1.23,1.469693845669,3.));
#449=CARTESIAN_POINT('Origin',(1.27,0.,3.));
#450=CARTESIAN_POINT('Origin',(1.27,0.,4.));
#451=CARTESIAN_POINT('Origin',(-1.229999999999,-1.469693845671,4.));
#452=CARTESIAN_POINT('',(-1.18,4.46871701271715E-17,4.));
#453=CARTESIAN_POINT('Origin',(1.27,1.7763568394E-15,4.));
#454=CARTESIAN_POINT('Origin',(1.27,6.095124405192E-15,9.15));
#455=CARTESIAN_POINT('',(-1.18,2.3778074579435E-15,9.15));
#456=CARTESIAN_POINT('Origin',(1.27,4.063416270128E-15,9.15));
#457=CARTESIAN_POINT('',(1.27,7.18314296932475E-15,11.6));
#458=CARTESIAN_POINT('Origin',(1.27,6.095124405192E-15,9.15));
#459=CARTESIAN_POINT('Origin',(1.27,4.063416270128E-15,9.15));
#460=CARTESIAN_POINT('',(-1.18,2.33174660085519E-15,9.15));
#461=UNCERTAINTY_MEASURE_WITH_UNIT(LENGTH_MEASURE(0.01),#465,
'DISTANCE_ACCURACY_VALUE',
'Maximum model space distance between geometric entities at asserted c
onnectivities');
#462=UNCERTAINTY_MEASURE_WITH_UNIT(LENGTH_MEASURE(0.01),#465,
'DISTANCE_ACCURACY_VALUE',
'Maximum model space distance between geometric entities at asserted c
onnectivities');
#463=(
GEOMETRIC_REPRESENTATION_CONTEXT(3)
GLOBAL_UNCERTAINTY_ASSIGNED_CONTEXT((#461))
GLOBAL_UNIT_ASSIGNED_CONTEXT((#465,#467,#468))
REPRESENTATION_CONTEXT('','3D')
);
#464=(
GEOMETRIC_REPRESENTATION_CONTEXT(3)
GLOBAL_UNCERTAINTY_ASSIGNED_CONTEXT((#462))
GLOBAL_UNIT_ASSIGNED_CONTEXT((#465,#467,#468))
REPRESENTATION_CONTEXT('','3D')
);
#465=(
LENGTH_UNIT()
NAMED_UNIT(*)
SI_UNIT(.MILLI.,.METRE.)
);
#466=(
LENGTH_UNIT()
NAMED_UNIT(*)
SI_UNIT($,.METRE.)
);
#467=(
NAMED_UNIT(*)
PLANE_ANGLE_UNIT()
SI_UNIT($,.RADIAN.)
);
#468=(
NAMED_UNIT(*)
SI_UNIT($,.STERADIAN.)
SOLID_ANGLE_UNIT()
);
#469=SHAPE_DEFINITION_REPRESENTATION(#470,#471);
#470=PRODUCT_DEFINITION_SHAPE('',$,#473);
#471=SHAPE_REPRESENTATION('',(#292),#463);
#472=PRODUCT_DEFINITION_CONTEXT('part definition',#477,'design');
#473=PRODUCT_DEFINITION('2026-05-13-01-38-44-646','LED_D5.0mm',#474,#472);
#474=PRODUCT_DEFINITION_FORMATION('',$,#479);
#475=PRODUCT_RELATED_PRODUCT_CATEGORY('LED_D5.0mm','LED_D5.0mm',(#479));
#476=APPLICATION_PROTOCOL_DEFINITION('international standard',
'automotive_design',2009,#477);
#477=APPLICATION_CONTEXT(
'Core Data for Automotive Mechanical Design Process');
#478=PRODUCT_CONTEXT('part definition',#477,'mechanical');
#479=PRODUCT('2026-05-13-01-38-44-646','LED_D5.0mm',$,(#478));
#480=PRESENTATION_STYLE_ASSIGNMENT((#483));
#481=PRESENTATION_STYLE_ASSIGNMENT((#484));
#482=PRESENTATION_STYLE_ASSIGNMENT((#485));
#483=SURFACE_STYLE_USAGE(.BOTH.,#486);
#484=SURFACE_STYLE_USAGE(.BOTH.,#487);
#485=SURFACE_STYLE_USAGE(.BOTH.,#488);
#486=SURFACE_SIDE_STYLE('',(#489));
#487=SURFACE_SIDE_STYLE('',(#490));
#488=SURFACE_SIDE_STYLE('',(#491));
#489=SURFACE_STYLE_FILL_AREA(#492);
#490=SURFACE_STYLE_FILL_AREA(#493);
#491=SURFACE_STYLE_FILL_AREA(#494);
#492=FILL_AREA_STYLE('Steel - Satin',(#495));
#493=FILL_AREA_STYLE('Opaque(21,22,24)',(#496));
#494=FILL_AREA_STYLE('Opaque(178,25,13)',(#497));
#495=FILL_AREA_STYLE_COLOUR('Steel - Satin',#498);
#496=FILL_AREA_STYLE_COLOUR('Opaque(21,22,24)',#499);
#497=FILL_AREA_STYLE_COLOUR('Opaque(178,25,13)',#500);
#498=COLOUR_RGB('Steel - Satin',0.627450980392157,0.627450980392157,0.627450980392157);
#499=COLOUR_RGB('Opaque(21,22,24)',0.0823529411764706,0.0862745098039216,
0.0941176470588235);
#500=COLOUR_RGB('Opaque(178,25,13)',0.698039215686274,0.0980392156862745,
0.0509803921568627);
ENDSEC;
END-ISO-10303-21;
