%TF.GenerationSoftware,KiCad,Pcbnew,9.0.6*%
%TF.CreationDate,2026-05-12T19:16:37+05:30*%
%TF.ProjectId,TOUCHdeck,544f5543-4864-4656-936b-2e6b69636164,rev?*%
%TF.SameCoordinates,Original*%
%TF.FileFunction,Copper,L2,Bot*%
%TF.FilePolarity,Positive*%
%FSLAX46Y46*%
G04 Gerber Fmt 4.6, Leading zero omitted, Abs format (unit mm)*
G04 Created by KiCad (PCBNEW 9.0.6) date 2026-05-12 19:16:37*
%MOMM*%
%LPD*%
G01*
G04 APERTURE LIST*
%TA.AperFunction,HeatsinkPad*%
%ADD10C,0.600000*%
%TD*%
%TA.AperFunction,ComponentPad*%
%ADD11R,1.050000X1.500000*%
%TD*%
%TA.AperFunction,ComponentPad*%
%ADD12O,1.050000X1.500000*%
%TD*%
%TA.AperFunction,ComponentPad*%
%ADD13R,1.800000X1.800000*%
%TD*%
%TA.AperFunction,ComponentPad*%
%ADD14C,1.800000*%
%TD*%
%TA.AperFunction,ComponentPad*%
%ADD15C,2.000000*%
%TD*%
%TA.AperFunction,ComponentPad*%
%ADD16R,2.000000X2.000000*%
%TD*%
%TA.AperFunction,ComponentPad*%
%ADD17R,1.700000X1.700000*%
%TD*%
%TA.AperFunction,ComponentPad*%
%ADD18C,1.700000*%
%TD*%
%TA.AperFunction,HeatsinkPad*%
%ADD19O,1.000000X2.100000*%
%TD*%
%TA.AperFunction,HeatsinkPad*%
%ADD20O,1.000000X1.600000*%
%TD*%
%TA.AperFunction,ViaPad*%
%ADD21C,0.600000*%
%TD*%
%TA.AperFunction,ViaPad*%
%ADD22C,0.300000*%
%TD*%
%TA.AperFunction,Conductor*%
%ADD23C,0.200000*%
%TD*%
G04 APERTURE END LIST*
D10*
%TO.P,U1,41,GND*%
%TO.N,/gnd*%
X91000000Y-72900000D03*
X91000000Y-74300000D03*
X91700000Y-72200000D03*
X91700000Y-73600000D03*
X91700000Y-75000000D03*
X92400000Y-72900000D03*
X92400000Y-74300000D03*
X93100000Y-72200000D03*
X93100000Y-73600000D03*
X93100000Y-75000000D03*
X93800000Y-72900000D03*
X93800000Y-74300000D03*
%TD*%
D11*
%TO.P,Q1,1,E*%
%TO.N,/gnd*%
X140600000Y-59000000D03*
D12*
%TO.P,Q1,2,B*%
%TO.N,Net-(Q1-B)*%
X141870000Y-59000000D03*
%TO.P,Q1,3,C*%
%TO.N,/BUZZER-*%
X143140000Y-59000000D03*
%TD*%
D13*
%TO.P,D1,1,K*%
%TO.N,/gnd*%
X133060000Y-57600000D03*
D14*
%TO.P,D1,2,A*%
%TO.N,Net-(D1-A)*%
X135600000Y-57600000D03*
%TD*%
D15*
%TO.P,SW2,1,1*%
%TO.N,/IO0*%
X126250000Y-45350000D03*
X126250000Y-51850000D03*
%TO.P,SW2,2,2*%
%TO.N,/gnd*%
X121750000Y-45350000D03*
X121750000Y-51850000D03*
%TD*%
D16*
%TO.P,BZ1,1,+*%
%TO.N,/3V3*%
X57800000Y-49600000D03*
D15*
%TO.P,BZ1,2,-*%
%TO.N,/BUZZER-*%
X65400000Y-49600000D03*
%TD*%
%TO.P,SW1,1,1*%
%TO.N,/EN*%
X75150000Y-73850000D03*
X75150000Y-67350000D03*
%TO.P,SW1,2,2*%
%TO.N,/gnd*%
X79650000Y-73850000D03*
X79650000Y-67350000D03*
%TD*%
D17*
%TO.P,J2,1,VCC*%
%TO.N,/3V3*%
X59000000Y-133080000D03*
D18*
%TO.P,J2,2,GND*%
%TO.N,/gnd*%
X59000000Y-130540000D03*
%TO.P,J2,3,LCD_CS*%
%TO.N,/IO10*%
X59000000Y-128000000D03*
%TO.P,J2,4,LCD_RST*%
%TO.N,/IO14*%
X59000000Y-125460000D03*
%TO.P,J2,5,LCD_DC*%
%TO.N,/IO09*%
X59000000Y-122920000D03*
%TO.P,J2,6,LCD_MOSI*%
%TO.N,/IO11*%
X59000000Y-120380000D03*
%TO.P,J2,7,LCD_SCK*%
%TO.N,/IO12*%
X59000000Y-117840000D03*
%TO.P,J2,8,LCK_MISO*%
%TO.N,/IO13*%
X59000000Y-115300000D03*
%TO.P,J2,9,LCD_BL*%
%TO.N,/IO21*%
X59000000Y-112760000D03*
%TO.P,J2,10,TOUCH_CS*%
%TO.N,/IO8*%
X59000000Y-110220000D03*
%TO.P,J2,11,TOUCH_CLK*%
%TO.N,/IO12*%
X59000000Y-107680000D03*
%TO.P,J2,12,TOUCH_DIN*%
%TO.N,/IO11*%
X59000000Y-105140000D03*
%TO.P,J2,13,TOUCH_DO*%
%TO.N,/IO13*%
X59000000Y-102600000D03*
%TO.P,J2,14,TOUCH_IRQ*%
%TO.N,/IO7*%
X59000000Y-100060000D03*
%TD*%
D19*
%TO.P,J1,S1,SHIELD*%
%TO.N,/gnd*%
X136880000Y-43495000D03*
D20*
X136880000Y-47675000D03*
D19*
X145520000Y-43495000D03*
D20*
X145520000Y-47675000D03*
%TD*%
D21*
%TO.N,/3V3*%
X120462500Y-73240000D03*
X81800000Y-66480000D03*
X128400000Y-62600000D03*
X128400000Y-62600000D03*
X105800000Y-71614000D03*
X121800000Y-67976000D03*
X127600000Y-60800000D03*
X107000000Y-74000000D03*
X127800000Y-62350000D03*
X85150000Y-67150000D03*
%TO.N,/gnd*%
X85150000Y-65880000D03*
X107150000Y-81800000D03*
X133488235Y-48463235D03*
X104574672Y-72500611D03*
X147600000Y-43200000D03*
X118562500Y-73240000D03*
X137524264Y-46124265D03*
X148662500Y-45000000D03*
X139400000Y-50200000D03*
X147200000Y-43600000D03*
X134800000Y-45800000D03*
X118562500Y-73240000D03*
X148200000Y-47000000D03*
X117400000Y-71201000D03*
X137400000Y-46800000D03*
%TO.N,/5V*%
X143600000Y-42855000D03*
X146600000Y-42600000D03*
X123000000Y-65600000D03*
X124000000Y-61000000D03*
X138800000Y-42855000D03*
X118042185Y-67342185D03*
X146600000Y-57400000D03*
%TO.N,/EN*%
X104800000Y-76200000D03*
X121075000Y-57925000D03*
X85150000Y-68420000D03*
X76800000Y-70400000D03*
X84699000Y-68739998D03*
D22*
%TO.N,Net-(D1-A)*%
X124850000Y-67800000D03*
D21*
%TO.N,Net-(D2-DIN)*%
X125225000Y-74200000D03*
X111800000Y-71614000D03*
X110092185Y-75292185D03*
X117226985Y-75626985D03*
%TO.N,/D+*%
X90000000Y-94200000D03*
X142814000Y-44215473D03*
X90125000Y-100000000D03*
D22*
X150937500Y-44050000D03*
D21*
X148662500Y-44050000D03*
D22*
X140950000Y-42855000D03*
D21*
X149738999Y-42973501D03*
%TO.N,/D-*%
X91448247Y-80551833D03*
X140350000Y-44800000D03*
%TO.N,/CC2*%
X131524265Y-52124265D03*
X142424265Y-45775735D03*
X134624265Y-53024265D03*
X134000000Y-51000000D03*
X131975000Y-48600000D03*
%TO.N,/IO14*%
X72984265Y-109784265D03*
X57849000Y-87311108D03*
%TO.N,/IO13*%
X94535000Y-83640000D03*
%TO.N,/IO7*%
X85150000Y-73500000D03*
X78000000Y-76400000D03*
%TO.N,/IO11*%
X91995000Y-83640000D03*
X78000000Y-86000000D03*
%TO.N,/IO21*%
X97075000Y-83640000D03*
%TO.N,/IO8*%
X67963735Y-107430000D03*
X85150000Y-79850000D03*
%TO.N,/IO09*%
X78000000Y-92001000D03*
X89455000Y-83640000D03*
%TO.N,/IO0*%
X102275735Y-83675735D03*
X130000000Y-59800000D03*
D22*
X116623452Y-71764000D03*
D21*
X130475000Y-65925000D03*
X127175735Y-54775735D03*
%TO.N,/IO5*%
X108275528Y-79475529D03*
X87400000Y-73400000D03*
X87249294Y-70550707D03*
X98803305Y-84889933D03*
X86800000Y-75000000D03*
X87600000Y-77800000D03*
X119400000Y-70600000D03*
X88400000Y-71000000D03*
%TO.N,/IO6*%
X85507772Y-72549998D03*
X89572765Y-76027235D03*
%TD*%
D23*
%TO.N,/3V3*%
X57800000Y-52432836D02*
X57800000Y-49600000D01*
X105800000Y-71614000D02*
X107000000Y-72814000D01*
X69858164Y-64491000D02*
X57800000Y-52432836D01*
X127200000Y-60800000D02*
X127600000Y-60800000D01*
X121800000Y-71902500D02*
X120462500Y-73240000D01*
X101336000Y-67150000D02*
X85150000Y-67150000D01*
X79811000Y-64491000D02*
X69858164Y-64491000D01*
X121800000Y-67976000D02*
X121800000Y-71902500D01*
X81800000Y-66480000D02*
X79811000Y-64491000D01*
X105800000Y-71614000D02*
X101336000Y-67150000D01*
X127800000Y-62350000D02*
X127200000Y-61750000D01*
X127200000Y-61750000D02*
X127200000Y-60800000D01*
X107000000Y-72814000D02*
X107000000Y-74000000D01*
%TO.N,/gnd*%
X93800000Y-72900000D02*
X104175283Y-72900000D01*
X134800000Y-45800000D02*
X136880000Y-43720000D01*
X139400000Y-50000000D02*
X139400000Y-50200000D01*
X148200000Y-45462500D02*
X148662500Y-45000000D01*
X84901057Y-67751000D02*
X84549000Y-67398943D01*
X148200000Y-45462500D02*
X148200000Y-44600000D01*
X150750689Y-43599000D02*
X151124311Y-43599000D01*
X117400000Y-71201000D02*
X118562500Y-72363500D01*
X147600000Y-43837443D02*
X148413557Y-44651000D01*
X137400000Y-46248529D02*
X137524264Y-46124265D01*
X91700000Y-72200000D02*
X87251000Y-67751000D01*
X148200000Y-47000000D02*
X148200000Y-45462500D01*
X151124311Y-43599000D02*
X151388500Y-43863189D01*
X136880000Y-43720000D02*
X136880000Y-43495000D01*
X137400000Y-46800000D02*
X137400000Y-46248529D01*
X139600000Y-49800000D02*
X139400000Y-50000000D01*
X134800000Y-47151470D02*
X133488235Y-48463235D01*
X148413557Y-44651000D02*
X149698689Y-44651000D01*
X149698689Y-44651000D02*
X150750689Y-43599000D01*
X148200000Y-44600000D02*
X147200000Y-43600000D01*
X148767100Y-49800000D02*
X139600000Y-49800000D01*
X87251000Y-67751000D02*
X84901057Y-67751000D01*
X121750000Y-45350000D02*
X121750000Y-51850000D01*
X104175283Y-72900000D02*
X104574672Y-72500611D01*
X147600000Y-43200000D02*
X147600000Y-43837443D01*
X151388500Y-47178600D02*
X148767100Y-49800000D01*
X134800000Y-45800000D02*
X134800000Y-47151470D01*
X84549000Y-67398943D02*
X84549000Y-66481000D01*
X118562500Y-72363500D02*
X118562500Y-73240000D01*
X84549000Y-66481000D02*
X85150000Y-65880000D01*
X151388500Y-43863189D02*
X151388500Y-47178600D01*
%TO.N,/5V*%
X137474000Y-66526000D02*
X146600000Y-57400000D01*
X139251000Y-42404000D02*
X143149000Y-42404000D01*
X146600000Y-44097785D02*
X145851785Y-44846000D01*
X124000000Y-61000000D02*
X124000000Y-58800000D01*
X145851785Y-44846000D02*
X143984992Y-44846000D01*
X123926000Y-66526000D02*
X137474000Y-66526000D01*
X146600000Y-42600000D02*
X146600000Y-44097785D01*
X143414000Y-44275008D02*
X143414000Y-43041000D01*
X124000000Y-58800000D02*
X138129000Y-44671000D01*
X123000000Y-65600000D02*
X123926000Y-66526000D01*
X124000000Y-61000000D02*
X124000000Y-61384370D01*
X138986000Y-43041000D02*
X138800000Y-42855000D01*
X143984992Y-44846000D02*
X143414000Y-44275008D01*
X124000000Y-61384370D02*
X118042185Y-67342185D01*
X138986000Y-44275008D02*
X138986000Y-43041000D01*
X138590008Y-44671000D02*
X138986000Y-44275008D01*
X143414000Y-43041000D02*
X143600000Y-42855000D01*
X138129000Y-44671000D02*
X138590008Y-44671000D01*
X143149000Y-42404000D02*
X143600000Y-42855000D01*
X138800000Y-42855000D02*
X139251000Y-42404000D01*
%TO.N,/EN*%
X76800000Y-70400000D02*
X77200000Y-70000000D01*
X104800000Y-76200000D02*
X92050057Y-76200000D01*
X76539998Y-68739998D02*
X75150000Y-67350000D01*
X77200000Y-70000000D02*
X77200000Y-69400000D01*
X121075000Y-61357836D02*
X121075000Y-57925000D01*
X92050057Y-76200000D02*
X85150000Y-69299943D01*
X77200000Y-69400000D02*
X76539998Y-68739998D01*
X106232836Y-76200000D02*
X121075000Y-61357836D01*
X104800000Y-76200000D02*
X106232836Y-76200000D01*
X84699000Y-68739998D02*
X76539998Y-68739998D01*
X85150000Y-69299943D02*
X85150000Y-68420000D01*
%TO.N,Net-(D1-A)*%
X129001000Y-64399000D02*
X123351057Y-64399000D01*
X123351057Y-64399000D02*
X122399000Y-65351057D01*
X125000000Y-67600000D02*
X125000000Y-67650000D01*
X124150057Y-67600000D02*
X125000000Y-67600000D01*
X135600000Y-57600000D02*
X134001000Y-59199000D01*
X129001000Y-59949057D02*
X129001000Y-64399000D01*
X122399000Y-65351057D02*
X122399000Y-65848943D01*
X125000000Y-67650000D02*
X124850000Y-67800000D01*
X129751057Y-59199000D02*
X129001000Y-59949057D01*
X134001000Y-59199000D02*
X129751057Y-59199000D01*
X122399000Y-65848943D02*
X124150057Y-67600000D01*
%TO.N,Net-(D2-DIN)*%
X111800000Y-71614000D02*
X111800000Y-73584370D01*
X117226985Y-75626985D02*
X118653970Y-74200000D01*
X118653970Y-74200000D02*
X125225000Y-74200000D01*
X111800000Y-73584370D02*
X110092185Y-75292185D01*
%TO.N,/D+*%
X143818892Y-45247000D02*
X142814000Y-44242108D01*
X143818892Y-45247000D02*
X145597057Y-45247000D01*
X150400000Y-44587500D02*
X150937500Y-44050000D01*
X145597057Y-45247000D02*
X147950057Y-47600000D01*
X140950000Y-45850000D02*
X140950000Y-42855000D01*
X142814000Y-44242108D02*
X142814000Y-44215473D01*
X90000000Y-94200000D02*
X92600000Y-94200000D01*
X149738999Y-42973501D02*
X148662500Y-44050000D01*
X147950057Y-47600000D02*
X150400000Y-47600000D01*
X92600000Y-94200000D02*
X140950000Y-45850000D01*
X150400000Y-47600000D02*
X150400000Y-44587500D01*
%TO.N,/D-*%
X85001890Y-80551833D02*
X84549000Y-80098943D01*
X84549000Y-79601057D02*
X87349057Y-76801000D01*
X87349057Y-76801000D02*
X109431900Y-76801000D01*
X109431900Y-76801000D02*
X140350000Y-45882900D01*
X140350000Y-45882900D02*
X140350000Y-44800000D01*
X91448247Y-80551833D02*
X85001890Y-80551833D01*
X84549000Y-80098943D02*
X84549000Y-79601057D01*
%TO.N,/CC2*%
X135175735Y-53024265D02*
X134624265Y-53024265D01*
X132800000Y-51000000D02*
X131800000Y-52000000D01*
X131648530Y-52000000D02*
X131524265Y-52124265D01*
X134000000Y-51000000D02*
X132800000Y-51000000D01*
X131800000Y-52000000D02*
X131648530Y-52000000D01*
X142424265Y-45775735D02*
X135175735Y-53024265D01*
%TO.N,/IO14*%
X57448000Y-115375760D02*
X57448000Y-87712108D01*
X57448000Y-87712108D02*
X57849000Y-87311108D01*
X58523240Y-116451000D02*
X57448000Y-115375760D01*
X72984265Y-109784265D02*
X66317530Y-116451000D01*
X66317530Y-116451000D02*
X58523240Y-116451000D01*
%TO.N,/IO13*%
X59000000Y-102600000D02*
X78561000Y-83039000D01*
X59000000Y-115300000D02*
X57849000Y-114149000D01*
X57849000Y-114149000D02*
X57849000Y-103751000D01*
X78561000Y-83039000D02*
X93934000Y-83039000D01*
X57849000Y-103751000D02*
X59000000Y-102600000D01*
X93934000Y-83039000D02*
X94535000Y-83640000D01*
%TO.N,/IO7*%
X78000000Y-76400000D02*
X82250000Y-76400000D01*
X82250000Y-76400000D02*
X85150000Y-73500000D01*
%TO.N,/IO11*%
X77751057Y-92602000D02*
X83033000Y-92602000D01*
X77399000Y-92249943D02*
X77751057Y-92602000D01*
X77399000Y-86601000D02*
X77399000Y-92249943D01*
X78000000Y-86000000D02*
X77399000Y-86601000D01*
X83033000Y-92602000D02*
X91995000Y-83640000D01*
%TO.N,/IO21*%
X59000000Y-112760000D02*
X67955000Y-112760000D01*
X67955000Y-112760000D02*
X97075000Y-83640000D01*
%TO.N,/IO8*%
X67963735Y-107430000D02*
X71594943Y-107430000D01*
X91594943Y-79850000D02*
X85150000Y-79850000D01*
X71594943Y-107430000D02*
X95136000Y-83888943D01*
X95136000Y-83888943D02*
X95136000Y-83391057D01*
X95136000Y-83391057D02*
X91594943Y-79850000D01*
%TO.N,/IO09*%
X81094000Y-92001000D02*
X89455000Y-83640000D01*
X78000000Y-92001000D02*
X81094000Y-92001000D01*
%TO.N,/IO0*%
X89399000Y-94448943D02*
X89751057Y-94801000D01*
X89399000Y-93951057D02*
X89399000Y-94448943D01*
X126250000Y-51850000D02*
X126250000Y-53850000D01*
X116600000Y-71787452D02*
X116623452Y-71764000D01*
X107402000Y-81199000D02*
X116600000Y-72001000D01*
X116600000Y-72001000D02*
X116600000Y-71787452D01*
X126250000Y-45350000D02*
X126250000Y-51850000D01*
X89751057Y-93599000D02*
X89399000Y-93951057D01*
X89751057Y-94801000D02*
X93299057Y-94801000D01*
X93299057Y-94801000D02*
X106901057Y-81199000D01*
X130475000Y-60275000D02*
X130475000Y-65925000D01*
X102275735Y-83675735D02*
X92352470Y-93599000D01*
X92352470Y-93599000D02*
X89751057Y-93599000D01*
X106901057Y-81199000D02*
X107402000Y-81199000D01*
X130000000Y-59800000D02*
X130475000Y-60275000D01*
X126250000Y-53850000D02*
X127175735Y-54775735D01*
%TO.N,/IO5*%
X98803305Y-84889933D02*
X98803305Y-78603305D01*
X87698587Y-71000000D02*
X87249294Y-70550707D01*
X119400000Y-70600000D02*
X117151057Y-70600000D01*
X98803305Y-78603305D02*
X98000000Y-77800000D01*
X88400000Y-71000000D02*
X87698587Y-71000000D01*
X86800000Y-75000000D02*
X86800000Y-74000000D01*
X98000000Y-77800000D02*
X87600000Y-77800000D01*
X117151057Y-70600000D02*
X108275528Y-79475529D01*
X86800000Y-74000000D02*
X87400000Y-73400000D01*
%TO.N,/IO6*%
X91682957Y-76400000D02*
X89945530Y-76400000D01*
X87832955Y-72549998D02*
X91682957Y-76400000D01*
X85507772Y-72549998D02*
X87832955Y-72549998D01*
X89945530Y-76400000D02*
X89572765Y-76027235D01*
%TD*%
M02*
