%TF.GenerationSoftware,KiCad,Pcbnew,9.0.6*%
%TF.CreationDate,2026-05-12T19:16:37+05:30*%
%TF.ProjectId,TOUCHdeck,544f5543-4864-4656-936b-2e6b69636164,rev?*%
%TF.SameCoordinates,Original*%
%TF.FileFunction,Legend,Top*%
%TF.FilePolarity,Positive*%
%FSLAX46Y46*%
G04 Gerber Fmt 4.6, Leading zero omitted, Abs format (unit mm)*
G04 Created by KiCad (PCBNEW 9.0.6) date 2026-05-12 19:16:37*
%MOMM*%
%LPD*%
G01*
G04 APERTURE LIST*
%ADD10C,0.150000*%
%ADD11C,0.120000*%
G04 APERTURE END LIST*
D10*
X82854819Y-83301904D02*
X83664342Y-83301904D01*
X83664342Y-83301904D02*
X83759580Y-83254285D01*
X83759580Y-83254285D02*
X83807200Y-83206666D01*
X83807200Y-83206666D02*
X83854819Y-83111428D01*
X83854819Y-83111428D02*
X83854819Y-82920952D01*
X83854819Y-82920952D02*
X83807200Y-82825714D01*
X83807200Y-82825714D02*
X83759580Y-82778095D01*
X83759580Y-82778095D02*
X83664342Y-82730476D01*
X83664342Y-82730476D02*
X82854819Y-82730476D01*
X83854819Y-81730476D02*
X83854819Y-82301904D01*
X83854819Y-82016190D02*
X82854819Y-82016190D01*
X82854819Y-82016190D02*
X82997676Y-82111428D01*
X82997676Y-82111428D02*
X83092914Y-82206666D01*
X83092914Y-82206666D02*
X83140533Y-82301904D01*
X141774761Y-55990057D02*
X141679523Y-55942438D01*
X141679523Y-55942438D02*
X141584285Y-55847200D01*
X141584285Y-55847200D02*
X141441428Y-55704342D01*
X141441428Y-55704342D02*
X141346190Y-55656723D01*
X141346190Y-55656723D02*
X141250952Y-55656723D01*
X141298571Y-55894819D02*
X141203333Y-55847200D01*
X141203333Y-55847200D02*
X141108095Y-55751961D01*
X141108095Y-55751961D02*
X141060476Y-55561485D01*
X141060476Y-55561485D02*
X141060476Y-55228152D01*
X141060476Y-55228152D02*
X141108095Y-55037676D01*
X141108095Y-55037676D02*
X141203333Y-54942438D01*
X141203333Y-54942438D02*
X141298571Y-54894819D01*
X141298571Y-54894819D02*
X141489047Y-54894819D01*
X141489047Y-54894819D02*
X141584285Y-54942438D01*
X141584285Y-54942438D02*
X141679523Y-55037676D01*
X141679523Y-55037676D02*
X141727142Y-55228152D01*
X141727142Y-55228152D02*
X141727142Y-55561485D01*
X141727142Y-55561485D02*
X141679523Y-55751961D01*
X141679523Y-55751961D02*
X141584285Y-55847200D01*
X141584285Y-55847200D02*
X141489047Y-55894819D01*
X141489047Y-55894819D02*
X141298571Y-55894819D01*
X142679523Y-55894819D02*
X142108095Y-55894819D01*
X142393809Y-55894819D02*
X142393809Y-54894819D01*
X142393809Y-54894819D02*
X142298571Y-55037676D01*
X142298571Y-55037676D02*
X142203333Y-55132914D01*
X142203333Y-55132914D02*
X142108095Y-55180533D01*
X133591905Y-54094819D02*
X133591905Y-53094819D01*
X133591905Y-53094819D02*
X133830000Y-53094819D01*
X133830000Y-53094819D02*
X133972857Y-53142438D01*
X133972857Y-53142438D02*
X134068095Y-53237676D01*
X134068095Y-53237676D02*
X134115714Y-53332914D01*
X134115714Y-53332914D02*
X134163333Y-53523390D01*
X134163333Y-53523390D02*
X134163333Y-53666247D01*
X134163333Y-53666247D02*
X134115714Y-53856723D01*
X134115714Y-53856723D02*
X134068095Y-53951961D01*
X134068095Y-53951961D02*
X133972857Y-54047200D01*
X133972857Y-54047200D02*
X133830000Y-54094819D01*
X133830000Y-54094819D02*
X133591905Y-54094819D01*
X135115714Y-54094819D02*
X134544286Y-54094819D01*
X134830000Y-54094819D02*
X134830000Y-53094819D01*
X134830000Y-53094819D02*
X134734762Y-53237676D01*
X134734762Y-53237676D02*
X134639524Y-53332914D01*
X134639524Y-53332914D02*
X134544286Y-53380533D01*
X129499819Y-65266666D02*
X129023628Y-65599999D01*
X129499819Y-65838094D02*
X128499819Y-65838094D01*
X128499819Y-65838094D02*
X128499819Y-65457142D01*
X128499819Y-65457142D02*
X128547438Y-65361904D01*
X128547438Y-65361904D02*
X128595057Y-65314285D01*
X128595057Y-65314285D02*
X128690295Y-65266666D01*
X128690295Y-65266666D02*
X128833152Y-65266666D01*
X128833152Y-65266666D02*
X128928390Y-65314285D01*
X128928390Y-65314285D02*
X128976009Y-65361904D01*
X128976009Y-65361904D02*
X129023628Y-65457142D01*
X129023628Y-65457142D02*
X129023628Y-65838094D01*
X128499819Y-64409523D02*
X128499819Y-64599999D01*
X128499819Y-64599999D02*
X128547438Y-64695237D01*
X128547438Y-64695237D02*
X128595057Y-64742856D01*
X128595057Y-64742856D02*
X128737914Y-64838094D01*
X128737914Y-64838094D02*
X128928390Y-64885713D01*
X128928390Y-64885713D02*
X129309342Y-64885713D01*
X129309342Y-64885713D02*
X129404580Y-64838094D01*
X129404580Y-64838094D02*
X129452200Y-64790475D01*
X129452200Y-64790475D02*
X129499819Y-64695237D01*
X129499819Y-64695237D02*
X129499819Y-64504761D01*
X129499819Y-64504761D02*
X129452200Y-64409523D01*
X129452200Y-64409523D02*
X129404580Y-64361904D01*
X129404580Y-64361904D02*
X129309342Y-64314285D01*
X129309342Y-64314285D02*
X129071247Y-64314285D01*
X129071247Y-64314285D02*
X128976009Y-64361904D01*
X128976009Y-64361904D02*
X128928390Y-64409523D01*
X128928390Y-64409523D02*
X128880771Y-64504761D01*
X128880771Y-64504761D02*
X128880771Y-64695237D01*
X128880771Y-64695237D02*
X128928390Y-64790475D01*
X128928390Y-64790475D02*
X128976009Y-64838094D01*
X128976009Y-64838094D02*
X129071247Y-64885713D01*
X123858333Y-69624819D02*
X123525000Y-69148628D01*
X123286905Y-69624819D02*
X123286905Y-68624819D01*
X123286905Y-68624819D02*
X123667857Y-68624819D01*
X123667857Y-68624819D02*
X123763095Y-68672438D01*
X123763095Y-68672438D02*
X123810714Y-68720057D01*
X123810714Y-68720057D02*
X123858333Y-68815295D01*
X123858333Y-68815295D02*
X123858333Y-68958152D01*
X123858333Y-68958152D02*
X123810714Y-69053390D01*
X123810714Y-69053390D02*
X123763095Y-69101009D01*
X123763095Y-69101009D02*
X123667857Y-69148628D01*
X123667857Y-69148628D02*
X123286905Y-69148628D01*
X124429762Y-69053390D02*
X124334524Y-69005771D01*
X124334524Y-69005771D02*
X124286905Y-68958152D01*
X124286905Y-68958152D02*
X124239286Y-68862914D01*
X124239286Y-68862914D02*
X124239286Y-68815295D01*
X124239286Y-68815295D02*
X124286905Y-68720057D01*
X124286905Y-68720057D02*
X124334524Y-68672438D01*
X124334524Y-68672438D02*
X124429762Y-68624819D01*
X124429762Y-68624819D02*
X124620238Y-68624819D01*
X124620238Y-68624819D02*
X124715476Y-68672438D01*
X124715476Y-68672438D02*
X124763095Y-68720057D01*
X124763095Y-68720057D02*
X124810714Y-68815295D01*
X124810714Y-68815295D02*
X124810714Y-68862914D01*
X124810714Y-68862914D02*
X124763095Y-68958152D01*
X124763095Y-68958152D02*
X124715476Y-69005771D01*
X124715476Y-69005771D02*
X124620238Y-69053390D01*
X124620238Y-69053390D02*
X124429762Y-69053390D01*
X124429762Y-69053390D02*
X124334524Y-69101009D01*
X124334524Y-69101009D02*
X124286905Y-69148628D01*
X124286905Y-69148628D02*
X124239286Y-69243866D01*
X124239286Y-69243866D02*
X124239286Y-69434342D01*
X124239286Y-69434342D02*
X124286905Y-69529580D01*
X124286905Y-69529580D02*
X124334524Y-69577200D01*
X124334524Y-69577200D02*
X124429762Y-69624819D01*
X124429762Y-69624819D02*
X124620238Y-69624819D01*
X124620238Y-69624819D02*
X124715476Y-69577200D01*
X124715476Y-69577200D02*
X124763095Y-69529580D01*
X124763095Y-69529580D02*
X124810714Y-69434342D01*
X124810714Y-69434342D02*
X124810714Y-69243866D01*
X124810714Y-69243866D02*
X124763095Y-69148628D01*
X124763095Y-69148628D02*
X124715476Y-69101009D01*
X124715476Y-69101009D02*
X124620238Y-69053390D01*
X128657200Y-49933332D02*
X128704819Y-49790475D01*
X128704819Y-49790475D02*
X128704819Y-49552380D01*
X128704819Y-49552380D02*
X128657200Y-49457142D01*
X128657200Y-49457142D02*
X128609580Y-49409523D01*
X128609580Y-49409523D02*
X128514342Y-49361904D01*
X128514342Y-49361904D02*
X128419104Y-49361904D01*
X128419104Y-49361904D02*
X128323866Y-49409523D01*
X128323866Y-49409523D02*
X128276247Y-49457142D01*
X128276247Y-49457142D02*
X128228628Y-49552380D01*
X128228628Y-49552380D02*
X128181009Y-49742856D01*
X128181009Y-49742856D02*
X128133390Y-49838094D01*
X128133390Y-49838094D02*
X128085771Y-49885713D01*
X128085771Y-49885713D02*
X127990533Y-49933332D01*
X127990533Y-49933332D02*
X127895295Y-49933332D01*
X127895295Y-49933332D02*
X127800057Y-49885713D01*
X127800057Y-49885713D02*
X127752438Y-49838094D01*
X127752438Y-49838094D02*
X127704819Y-49742856D01*
X127704819Y-49742856D02*
X127704819Y-49504761D01*
X127704819Y-49504761D02*
X127752438Y-49361904D01*
X127704819Y-49028570D02*
X128704819Y-48790475D01*
X128704819Y-48790475D02*
X127990533Y-48599999D01*
X127990533Y-48599999D02*
X128704819Y-48409523D01*
X128704819Y-48409523D02*
X127704819Y-48171428D01*
X127800057Y-47838094D02*
X127752438Y-47790475D01*
X127752438Y-47790475D02*
X127704819Y-47695237D01*
X127704819Y-47695237D02*
X127704819Y-47457142D01*
X127704819Y-47457142D02*
X127752438Y-47361904D01*
X127752438Y-47361904D02*
X127800057Y-47314285D01*
X127800057Y-47314285D02*
X127895295Y-47266666D01*
X127895295Y-47266666D02*
X127990533Y-47266666D01*
X127990533Y-47266666D02*
X128133390Y-47314285D01*
X128133390Y-47314285D02*
X128704819Y-47885713D01*
X128704819Y-47885713D02*
X128704819Y-47266666D01*
X123575595Y-58804819D02*
X123575595Y-59614342D01*
X123575595Y-59614342D02*
X123623214Y-59709580D01*
X123623214Y-59709580D02*
X123670833Y-59757200D01*
X123670833Y-59757200D02*
X123766071Y-59804819D01*
X123766071Y-59804819D02*
X123956547Y-59804819D01*
X123956547Y-59804819D02*
X124051785Y-59757200D01*
X124051785Y-59757200D02*
X124099404Y-59709580D01*
X124099404Y-59709580D02*
X124147023Y-59614342D01*
X124147023Y-59614342D02*
X124147023Y-58804819D01*
X124527976Y-58804819D02*
X125147023Y-58804819D01*
X125147023Y-58804819D02*
X124813690Y-59185771D01*
X124813690Y-59185771D02*
X124956547Y-59185771D01*
X124956547Y-59185771D02*
X125051785Y-59233390D01*
X125051785Y-59233390D02*
X125099404Y-59281009D01*
X125099404Y-59281009D02*
X125147023Y-59376247D01*
X125147023Y-59376247D02*
X125147023Y-59614342D01*
X125147023Y-59614342D02*
X125099404Y-59709580D01*
X125099404Y-59709580D02*
X125051785Y-59757200D01*
X125051785Y-59757200D02*
X124956547Y-59804819D01*
X124956547Y-59804819D02*
X124670833Y-59804819D01*
X124670833Y-59804819D02*
X124575595Y-59757200D01*
X124575595Y-59757200D02*
X124527976Y-59709580D01*
X124233333Y-73224819D02*
X123900000Y-72748628D01*
X123661905Y-73224819D02*
X123661905Y-72224819D01*
X123661905Y-72224819D02*
X124042857Y-72224819D01*
X124042857Y-72224819D02*
X124138095Y-72272438D01*
X124138095Y-72272438D02*
X124185714Y-72320057D01*
X124185714Y-72320057D02*
X124233333Y-72415295D01*
X124233333Y-72415295D02*
X124233333Y-72558152D01*
X124233333Y-72558152D02*
X124185714Y-72653390D01*
X124185714Y-72653390D02*
X124138095Y-72701009D01*
X124138095Y-72701009D02*
X124042857Y-72748628D01*
X124042857Y-72748628D02*
X123661905Y-72748628D01*
X124709524Y-73224819D02*
X124900000Y-73224819D01*
X124900000Y-73224819D02*
X124995238Y-73177200D01*
X124995238Y-73177200D02*
X125042857Y-73129580D01*
X125042857Y-73129580D02*
X125138095Y-72986723D01*
X125138095Y-72986723D02*
X125185714Y-72796247D01*
X125185714Y-72796247D02*
X125185714Y-72415295D01*
X125185714Y-72415295D02*
X125138095Y-72320057D01*
X125138095Y-72320057D02*
X125090476Y-72272438D01*
X125090476Y-72272438D02*
X124995238Y-72224819D01*
X124995238Y-72224819D02*
X124804762Y-72224819D01*
X124804762Y-72224819D02*
X124709524Y-72272438D01*
X124709524Y-72272438D02*
X124661905Y-72320057D01*
X124661905Y-72320057D02*
X124614286Y-72415295D01*
X124614286Y-72415295D02*
X124614286Y-72653390D01*
X124614286Y-72653390D02*
X124661905Y-72748628D01*
X124661905Y-72748628D02*
X124709524Y-72796247D01*
X124709524Y-72796247D02*
X124804762Y-72843866D01*
X124804762Y-72843866D02*
X124995238Y-72843866D01*
X124995238Y-72843866D02*
X125090476Y-72796247D01*
X125090476Y-72796247D02*
X125138095Y-72748628D01*
X125138095Y-72748628D02*
X125185714Y-72653390D01*
X60719047Y-42331009D02*
X60861904Y-42378628D01*
X60861904Y-42378628D02*
X60909523Y-42426247D01*
X60909523Y-42426247D02*
X60957142Y-42521485D01*
X60957142Y-42521485D02*
X60957142Y-42664342D01*
X60957142Y-42664342D02*
X60909523Y-42759580D01*
X60909523Y-42759580D02*
X60861904Y-42807200D01*
X60861904Y-42807200D02*
X60766666Y-42854819D01*
X60766666Y-42854819D02*
X60385714Y-42854819D01*
X60385714Y-42854819D02*
X60385714Y-41854819D01*
X60385714Y-41854819D02*
X60719047Y-41854819D01*
X60719047Y-41854819D02*
X60814285Y-41902438D01*
X60814285Y-41902438D02*
X60861904Y-41950057D01*
X60861904Y-41950057D02*
X60909523Y-42045295D01*
X60909523Y-42045295D02*
X60909523Y-42140533D01*
X60909523Y-42140533D02*
X60861904Y-42235771D01*
X60861904Y-42235771D02*
X60814285Y-42283390D01*
X60814285Y-42283390D02*
X60719047Y-42331009D01*
X60719047Y-42331009D02*
X60385714Y-42331009D01*
X61290476Y-41854819D02*
X61957142Y-41854819D01*
X61957142Y-41854819D02*
X61290476Y-42854819D01*
X61290476Y-42854819D02*
X61957142Y-42854819D01*
X62861904Y-42854819D02*
X62290476Y-42854819D01*
X62576190Y-42854819D02*
X62576190Y-41854819D01*
X62576190Y-41854819D02*
X62480952Y-41997676D01*
X62480952Y-41997676D02*
X62385714Y-42092914D01*
X62385714Y-42092914D02*
X62290476Y-42140533D01*
X57409048Y-47133866D02*
X58170953Y-47133866D01*
X57790000Y-47514819D02*
X57790000Y-46752914D01*
X123858333Y-66824819D02*
X123525000Y-66348628D01*
X123286905Y-66824819D02*
X123286905Y-65824819D01*
X123286905Y-65824819D02*
X123667857Y-65824819D01*
X123667857Y-65824819D02*
X123763095Y-65872438D01*
X123763095Y-65872438D02*
X123810714Y-65920057D01*
X123810714Y-65920057D02*
X123858333Y-66015295D01*
X123858333Y-66015295D02*
X123858333Y-66158152D01*
X123858333Y-66158152D02*
X123810714Y-66253390D01*
X123810714Y-66253390D02*
X123763095Y-66301009D01*
X123763095Y-66301009D02*
X123667857Y-66348628D01*
X123667857Y-66348628D02*
X123286905Y-66348628D01*
X124191667Y-65824819D02*
X124858333Y-65824819D01*
X124858333Y-65824819D02*
X124429762Y-66824819D01*
X119483333Y-66679580D02*
X119435714Y-66727200D01*
X119435714Y-66727200D02*
X119292857Y-66774819D01*
X119292857Y-66774819D02*
X119197619Y-66774819D01*
X119197619Y-66774819D02*
X119054762Y-66727200D01*
X119054762Y-66727200D02*
X118959524Y-66631961D01*
X118959524Y-66631961D02*
X118911905Y-66536723D01*
X118911905Y-66536723D02*
X118864286Y-66346247D01*
X118864286Y-66346247D02*
X118864286Y-66203390D01*
X118864286Y-66203390D02*
X118911905Y-66012914D01*
X118911905Y-66012914D02*
X118959524Y-65917676D01*
X118959524Y-65917676D02*
X119054762Y-65822438D01*
X119054762Y-65822438D02*
X119197619Y-65774819D01*
X119197619Y-65774819D02*
X119292857Y-65774819D01*
X119292857Y-65774819D02*
X119435714Y-65822438D01*
X119435714Y-65822438D02*
X119483333Y-65870057D01*
X120435714Y-66774819D02*
X119864286Y-66774819D01*
X120150000Y-66774819D02*
X120150000Y-65774819D01*
X120150000Y-65774819D02*
X120054762Y-65917676D01*
X120054762Y-65917676D02*
X119959524Y-66012914D01*
X119959524Y-66012914D02*
X119864286Y-66060533D01*
X73557200Y-71933332D02*
X73604819Y-71790475D01*
X73604819Y-71790475D02*
X73604819Y-71552380D01*
X73604819Y-71552380D02*
X73557200Y-71457142D01*
X73557200Y-71457142D02*
X73509580Y-71409523D01*
X73509580Y-71409523D02*
X73414342Y-71361904D01*
X73414342Y-71361904D02*
X73319104Y-71361904D01*
X73319104Y-71361904D02*
X73223866Y-71409523D01*
X73223866Y-71409523D02*
X73176247Y-71457142D01*
X73176247Y-71457142D02*
X73128628Y-71552380D01*
X73128628Y-71552380D02*
X73081009Y-71742856D01*
X73081009Y-71742856D02*
X73033390Y-71838094D01*
X73033390Y-71838094D02*
X72985771Y-71885713D01*
X72985771Y-71885713D02*
X72890533Y-71933332D01*
X72890533Y-71933332D02*
X72795295Y-71933332D01*
X72795295Y-71933332D02*
X72700057Y-71885713D01*
X72700057Y-71885713D02*
X72652438Y-71838094D01*
X72652438Y-71838094D02*
X72604819Y-71742856D01*
X72604819Y-71742856D02*
X72604819Y-71504761D01*
X72604819Y-71504761D02*
X72652438Y-71361904D01*
X72604819Y-71028570D02*
X73604819Y-70790475D01*
X73604819Y-70790475D02*
X72890533Y-70599999D01*
X72890533Y-70599999D02*
X73604819Y-70409523D01*
X73604819Y-70409523D02*
X72604819Y-70171428D01*
X73604819Y-69266666D02*
X73604819Y-69838094D01*
X73604819Y-69552380D02*
X72604819Y-69552380D01*
X72604819Y-69552380D02*
X72747676Y-69647618D01*
X72747676Y-69647618D02*
X72842914Y-69742856D01*
X72842914Y-69742856D02*
X72890533Y-69838094D01*
X132658333Y-43224819D02*
X132325000Y-42748628D01*
X132086905Y-43224819D02*
X132086905Y-42224819D01*
X132086905Y-42224819D02*
X132467857Y-42224819D01*
X132467857Y-42224819D02*
X132563095Y-42272438D01*
X132563095Y-42272438D02*
X132610714Y-42320057D01*
X132610714Y-42320057D02*
X132658333Y-42415295D01*
X132658333Y-42415295D02*
X132658333Y-42558152D01*
X132658333Y-42558152D02*
X132610714Y-42653390D01*
X132610714Y-42653390D02*
X132563095Y-42701009D01*
X132563095Y-42701009D02*
X132467857Y-42748628D01*
X132467857Y-42748628D02*
X132086905Y-42748628D01*
X133610714Y-43224819D02*
X133039286Y-43224819D01*
X133325000Y-43224819D02*
X133325000Y-42224819D01*
X133325000Y-42224819D02*
X133229762Y-42367676D01*
X133229762Y-42367676D02*
X133134524Y-42462914D01*
X133134524Y-42462914D02*
X133039286Y-42510533D01*
X149038095Y-42054819D02*
X149038095Y-42864342D01*
X149038095Y-42864342D02*
X149085714Y-42959580D01*
X149085714Y-42959580D02*
X149133333Y-43007200D01*
X149133333Y-43007200D02*
X149228571Y-43054819D01*
X149228571Y-43054819D02*
X149419047Y-43054819D01*
X149419047Y-43054819D02*
X149514285Y-43007200D01*
X149514285Y-43007200D02*
X149561904Y-42959580D01*
X149561904Y-42959580D02*
X149609523Y-42864342D01*
X149609523Y-42864342D02*
X149609523Y-42054819D01*
X150514285Y-42388152D02*
X150514285Y-43054819D01*
X150276190Y-42007200D02*
X150038095Y-42721485D01*
X150038095Y-42721485D02*
X150657142Y-42721485D01*
X111061905Y-66354819D02*
X111061905Y-65354819D01*
X111061905Y-65354819D02*
X111300000Y-65354819D01*
X111300000Y-65354819D02*
X111442857Y-65402438D01*
X111442857Y-65402438D02*
X111538095Y-65497676D01*
X111538095Y-65497676D02*
X111585714Y-65592914D01*
X111585714Y-65592914D02*
X111633333Y-65783390D01*
X111633333Y-65783390D02*
X111633333Y-65926247D01*
X111633333Y-65926247D02*
X111585714Y-66116723D01*
X111585714Y-66116723D02*
X111538095Y-66211961D01*
X111538095Y-66211961D02*
X111442857Y-66307200D01*
X111442857Y-66307200D02*
X111300000Y-66354819D01*
X111300000Y-66354819D02*
X111061905Y-66354819D01*
X112014286Y-65450057D02*
X112061905Y-65402438D01*
X112061905Y-65402438D02*
X112157143Y-65354819D01*
X112157143Y-65354819D02*
X112395238Y-65354819D01*
X112395238Y-65354819D02*
X112490476Y-65402438D01*
X112490476Y-65402438D02*
X112538095Y-65450057D01*
X112538095Y-65450057D02*
X112585714Y-65545295D01*
X112585714Y-65545295D02*
X112585714Y-65640533D01*
X112585714Y-65640533D02*
X112538095Y-65783390D01*
X112538095Y-65783390D02*
X111966667Y-66354819D01*
X111966667Y-66354819D02*
X112585714Y-66354819D01*
X108028571Y-68162295D02*
X107571428Y-68162295D01*
X107800000Y-68162295D02*
X107800000Y-67362295D01*
X107800000Y-67362295D02*
X107723809Y-67476580D01*
X107723809Y-67476580D02*
X107647619Y-67552771D01*
X107647619Y-67552771D02*
X107571428Y-67590866D01*
X58666666Y-134914819D02*
X58666666Y-135629104D01*
X58666666Y-135629104D02*
X58619047Y-135771961D01*
X58619047Y-135771961D02*
X58523809Y-135867200D01*
X58523809Y-135867200D02*
X58380952Y-135914819D01*
X58380952Y-135914819D02*
X58285714Y-135914819D01*
X59095238Y-135010057D02*
X59142857Y-134962438D01*
X59142857Y-134962438D02*
X59238095Y-134914819D01*
X59238095Y-134914819D02*
X59476190Y-134914819D01*
X59476190Y-134914819D02*
X59571428Y-134962438D01*
X59571428Y-134962438D02*
X59619047Y-135010057D01*
X59619047Y-135010057D02*
X59666666Y-135105295D01*
X59666666Y-135105295D02*
X59666666Y-135200533D01*
X59666666Y-135200533D02*
X59619047Y-135343390D01*
X59619047Y-135343390D02*
X59047619Y-135914819D01*
X59047619Y-135914819D02*
X59666666Y-135914819D01*
X119345833Y-71919580D02*
X119298214Y-71967200D01*
X119298214Y-71967200D02*
X119155357Y-72014819D01*
X119155357Y-72014819D02*
X119060119Y-72014819D01*
X119060119Y-72014819D02*
X118917262Y-71967200D01*
X118917262Y-71967200D02*
X118822024Y-71871961D01*
X118822024Y-71871961D02*
X118774405Y-71776723D01*
X118774405Y-71776723D02*
X118726786Y-71586247D01*
X118726786Y-71586247D02*
X118726786Y-71443390D01*
X118726786Y-71443390D02*
X118774405Y-71252914D01*
X118774405Y-71252914D02*
X118822024Y-71157676D01*
X118822024Y-71157676D02*
X118917262Y-71062438D01*
X118917262Y-71062438D02*
X119060119Y-71014819D01*
X119060119Y-71014819D02*
X119155357Y-71014819D01*
X119155357Y-71014819D02*
X119298214Y-71062438D01*
X119298214Y-71062438D02*
X119345833Y-71110057D01*
X119726786Y-71110057D02*
X119774405Y-71062438D01*
X119774405Y-71062438D02*
X119869643Y-71014819D01*
X119869643Y-71014819D02*
X120107738Y-71014819D01*
X120107738Y-71014819D02*
X120202976Y-71062438D01*
X120202976Y-71062438D02*
X120250595Y-71110057D01*
X120250595Y-71110057D02*
X120298214Y-71205295D01*
X120298214Y-71205295D02*
X120298214Y-71300533D01*
X120298214Y-71300533D02*
X120250595Y-71443390D01*
X120250595Y-71443390D02*
X119679167Y-72014819D01*
X119679167Y-72014819D02*
X120298214Y-72014819D01*
X132633333Y-47624819D02*
X132300000Y-47148628D01*
X132061905Y-47624819D02*
X132061905Y-46624819D01*
X132061905Y-46624819D02*
X132442857Y-46624819D01*
X132442857Y-46624819D02*
X132538095Y-46672438D01*
X132538095Y-46672438D02*
X132585714Y-46720057D01*
X132585714Y-46720057D02*
X132633333Y-46815295D01*
X132633333Y-46815295D02*
X132633333Y-46958152D01*
X132633333Y-46958152D02*
X132585714Y-47053390D01*
X132585714Y-47053390D02*
X132538095Y-47101009D01*
X132538095Y-47101009D02*
X132442857Y-47148628D01*
X132442857Y-47148628D02*
X132061905Y-47148628D01*
X133014286Y-46720057D02*
X133061905Y-46672438D01*
X133061905Y-46672438D02*
X133157143Y-46624819D01*
X133157143Y-46624819D02*
X133395238Y-46624819D01*
X133395238Y-46624819D02*
X133490476Y-46672438D01*
X133490476Y-46672438D02*
X133538095Y-46720057D01*
X133538095Y-46720057D02*
X133585714Y-46815295D01*
X133585714Y-46815295D02*
X133585714Y-46910533D01*
X133585714Y-46910533D02*
X133538095Y-47053390D01*
X133538095Y-47053390D02*
X132966667Y-47624819D01*
X132966667Y-47624819D02*
X133585714Y-47624819D01*
X140866666Y-40409819D02*
X140866666Y-41124104D01*
X140866666Y-41124104D02*
X140819047Y-41266961D01*
X140819047Y-41266961D02*
X140723809Y-41362200D01*
X140723809Y-41362200D02*
X140580952Y-41409819D01*
X140580952Y-41409819D02*
X140485714Y-41409819D01*
X141866666Y-41409819D02*
X141295238Y-41409819D01*
X141580952Y-41409819D02*
X141580952Y-40409819D01*
X141580952Y-40409819D02*
X141485714Y-40552676D01*
X141485714Y-40552676D02*
X141390476Y-40647914D01*
X141390476Y-40647914D02*
X141295238Y-40695533D01*
X120099819Y-57266666D02*
X119623628Y-57599999D01*
X120099819Y-57838094D02*
X119099819Y-57838094D01*
X119099819Y-57838094D02*
X119099819Y-57457142D01*
X119099819Y-57457142D02*
X119147438Y-57361904D01*
X119147438Y-57361904D02*
X119195057Y-57314285D01*
X119195057Y-57314285D02*
X119290295Y-57266666D01*
X119290295Y-57266666D02*
X119433152Y-57266666D01*
X119433152Y-57266666D02*
X119528390Y-57314285D01*
X119528390Y-57314285D02*
X119576009Y-57361904D01*
X119576009Y-57361904D02*
X119623628Y-57457142D01*
X119623628Y-57457142D02*
X119623628Y-57838094D01*
X119099819Y-56361904D02*
X119099819Y-56838094D01*
X119099819Y-56838094D02*
X119576009Y-56885713D01*
X119576009Y-56885713D02*
X119528390Y-56838094D01*
X119528390Y-56838094D02*
X119480771Y-56742856D01*
X119480771Y-56742856D02*
X119480771Y-56504761D01*
X119480771Y-56504761D02*
X119528390Y-56409523D01*
X119528390Y-56409523D02*
X119576009Y-56361904D01*
X119576009Y-56361904D02*
X119671247Y-56314285D01*
X119671247Y-56314285D02*
X119909342Y-56314285D01*
X119909342Y-56314285D02*
X120004580Y-56361904D01*
X120004580Y-56361904D02*
X120052200Y-56409523D01*
X120052200Y-56409523D02*
X120099819Y-56504761D01*
X120099819Y-56504761D02*
X120099819Y-56742856D01*
X120099819Y-56742856D02*
X120052200Y-56838094D01*
X120052200Y-56838094D02*
X120004580Y-56885713D01*
X106033333Y-80479580D02*
X105985714Y-80527200D01*
X105985714Y-80527200D02*
X105842857Y-80574819D01*
X105842857Y-80574819D02*
X105747619Y-80574819D01*
X105747619Y-80574819D02*
X105604762Y-80527200D01*
X105604762Y-80527200D02*
X105509524Y-80431961D01*
X105509524Y-80431961D02*
X105461905Y-80336723D01*
X105461905Y-80336723D02*
X105414286Y-80146247D01*
X105414286Y-80146247D02*
X105414286Y-80003390D01*
X105414286Y-80003390D02*
X105461905Y-79812914D01*
X105461905Y-79812914D02*
X105509524Y-79717676D01*
X105509524Y-79717676D02*
X105604762Y-79622438D01*
X105604762Y-79622438D02*
X105747619Y-79574819D01*
X105747619Y-79574819D02*
X105842857Y-79574819D01*
X105842857Y-79574819D02*
X105985714Y-79622438D01*
X105985714Y-79622438D02*
X106033333Y-79670057D01*
X106366667Y-79574819D02*
X107033333Y-79574819D01*
X107033333Y-79574819D02*
X106604762Y-80574819D01*
D11*
%TO.C,U1*%
X84700000Y-58240000D02*
X84700000Y-64440000D01*
X84700000Y-58240000D02*
X103100000Y-58240000D01*
X84700000Y-83090000D02*
X84700000Y-84090000D01*
X84700000Y-84090000D02*
X86200000Y-84090000D01*
X103100000Y-58240000D02*
X103100000Y-64440000D01*
X103100000Y-84090000D02*
X101600000Y-84090000D01*
X103100000Y-84090000D02*
X103100000Y-83090000D01*
X84700000Y-65115000D02*
X84200000Y-65115000D01*
X84700000Y-64615000D01*
X84700000Y-65115000D01*
G36*
X84700000Y-65115000D02*
G01*
X84200000Y-65115000D01*
X84700000Y-64615000D01*
X84700000Y-65115000D01*
G37*
%TO.C,Q1*%
X140070000Y-60850000D02*
X143670000Y-60850000D01*
X140031522Y-60838478D02*
G75*
G02*
X141870000Y-56399999I1838478J1838478D01*
G01*
X141870000Y-56400000D02*
G75*
G02*
X143708478Y-60838478I0J-2600000D01*
G01*
%TO.C,D1*%
X131770000Y-56055000D02*
X131770000Y-59145000D01*
X131770000Y-56055170D02*
G75*
G02*
X137320000Y-57600000I2560000J-1544830D01*
G01*
X137320000Y-57600000D02*
G75*
G02*
X131770000Y-59144830I-2990000J0D01*
G01*
X136830000Y-57600000D02*
G75*
G02*
X131830000Y-57600000I-2500000J0D01*
G01*
X131830000Y-57600000D02*
G75*
G02*
X136830000Y-57600000I2500000J0D01*
G01*
%TO.C,R6*%
X129952500Y-65337258D02*
X129952500Y-64862742D01*
X130997500Y-65337258D02*
X130997500Y-64862742D01*
%TO.C,R8*%
X123787742Y-70077500D02*
X124262258Y-70077500D01*
X123787742Y-71122500D02*
X124262258Y-71122500D01*
%TO.C,SW2*%
X120750000Y-46350000D02*
X120750000Y-50850000D01*
X123250000Y-52100000D02*
X124750000Y-52100000D01*
X124750000Y-45100000D02*
X123250000Y-45100000D01*
X127250000Y-50850000D02*
X127250000Y-46350000D01*
%TO.C,U3*%
X123427500Y-60190000D02*
X125247500Y-60190000D01*
X123427500Y-60240000D02*
X123427500Y-60190000D01*
X123427500Y-63310000D02*
X123427500Y-63260000D01*
X125247500Y-60190000D02*
X125247500Y-60240000D01*
X125247500Y-61360000D02*
X125247500Y-62140000D01*
X125247500Y-63260000D02*
X125247500Y-63310000D01*
X125247500Y-63310000D02*
X123427500Y-63310000D01*
X122887500Y-60240000D02*
X122647500Y-59910000D01*
X123127500Y-59910000D01*
X122887500Y-60240000D01*
G36*
X122887500Y-60240000D02*
G01*
X122647500Y-59910000D01*
X123127500Y-59910000D01*
X122887500Y-60240000D01*
G37*
%TO.C,R9*%
X124162742Y-73677500D02*
X124637258Y-73677500D01*
X124162742Y-74722500D02*
X124637258Y-74722500D01*
%TO.C,BZ1*%
X67700000Y-49600000D02*
G75*
G02*
X55500000Y-49600000I-6100000J0D01*
G01*
X55500000Y-49600000D02*
G75*
G02*
X67700000Y-49600000I6100000J0D01*
G01*
%TO.C,R7*%
X123787742Y-67277500D02*
X124262258Y-67277500D01*
X123787742Y-68322500D02*
X124262258Y-68322500D01*
%TO.C,C1*%
X119388748Y-67265000D02*
X119911252Y-67265000D01*
X119388748Y-68735000D02*
X119911252Y-68735000D01*
%TO.C,SW1*%
X74150000Y-68350000D02*
X74150000Y-72850000D01*
X76650000Y-74100000D02*
X78150000Y-74100000D01*
X78150000Y-67100000D02*
X76650000Y-67100000D01*
X80650000Y-72850000D02*
X80650000Y-68350000D01*
%TO.C,R1*%
X132587742Y-43677500D02*
X133062258Y-43677500D01*
X132587742Y-44722500D02*
X133062258Y-44722500D01*
%TO.C,U4*%
X148890000Y-43440000D02*
X150710000Y-43440000D01*
X148890000Y-43490000D02*
X148890000Y-43440000D01*
X148890000Y-46560000D02*
X148890000Y-46510000D01*
X150710000Y-43440000D02*
X150710000Y-43490000D01*
X150710000Y-46510000D02*
X150710000Y-46560000D01*
X150710000Y-46560000D02*
X148890000Y-46560000D01*
X148350000Y-43490000D02*
X148110000Y-43160000D01*
X148590000Y-43160000D01*
X148350000Y-43490000D01*
G36*
X148350000Y-43490000D02*
G01*
X148110000Y-43160000D01*
X148590000Y-43160000D01*
X148350000Y-43490000D01*
G37*
%TO.C,D2*%
X108300000Y-66650000D02*
X108300000Y-72150000D01*
X108300000Y-66650000D02*
X115300000Y-66650000D01*
X108300000Y-72150000D02*
X114850000Y-72150000D01*
X109100000Y-70300000D02*
X109100000Y-68500000D01*
X114500000Y-70300000D02*
X114500000Y-68500000D01*
X114850000Y-72150000D02*
X115300000Y-71700000D01*
X115300000Y-71700000D02*
X115300000Y-66650000D01*
%TO.C,J2*%
X57620000Y-131810000D02*
X57620000Y-98680000D01*
X60380000Y-98680000D02*
X57620000Y-98680000D01*
X60380000Y-131810000D02*
X57620000Y-131810000D01*
X60380000Y-131810000D02*
X60380000Y-98680000D01*
X60380000Y-133080000D02*
X60380000Y-134460000D01*
X60380000Y-134460000D02*
X59000000Y-134460000D01*
%TO.C,C2*%
X119251248Y-72505000D02*
X119773752Y-72505000D01*
X119251248Y-73975000D02*
X119773752Y-73975000D01*
%TO.C,R2*%
X132562742Y-48077500D02*
X133037258Y-48077500D01*
X132562742Y-49122500D02*
X133037258Y-49122500D01*
%TO.C,J1*%
X136500000Y-44820000D02*
X136500000Y-46600000D01*
X138400000Y-41900000D02*
X137600000Y-41900000D01*
X145900000Y-44820000D02*
X145900000Y-46600000D01*
%TO.C,R5*%
X120552500Y-57337258D02*
X120552500Y-56862742D01*
X121597500Y-57337258D02*
X121597500Y-56862742D01*
%TO.C,C7*%
X105938748Y-81065000D02*
X106461252Y-81065000D01*
X105938748Y-82535000D02*
X106461252Y-82535000D01*
%TD*%
M02*
