M48
; DRILL file {KiCad 9.0.6} date 2026-05-12T19:17:05+0530
; FORMAT={-:-/ absolute / metric / decimal}
; #@! TF.CreationDate,2026-05-12T19:17:05+05:30
; #@! TF.GenerationSoftware,Kicad,Pcbnew,9.0.6
; #@! TF.FileFunction,Plated,1,2,PTH
FMAT,2
METRIC
; #@! TA.AperFunction,Plated,PTH,ViaDrill
T1C0.100
; #@! TA.AperFunction,Plated,PTH,ComponentDrill
T2C0.200
; #@! TA.AperFunction,Plated,PTH,ViaDrill
T3C0.300
; #@! TA.AperFunction,Plated,PTH,ComponentDrill
T4C0.600
; #@! TA.AperFunction,Plated,PTH,ComponentDrill
T5C0.750
; #@! TA.AperFunction,Plated,PTH,ComponentDrill
T6C0.900
; #@! TA.AperFunction,Plated,PTH,ComponentDrill
T7C1.000
; #@! TA.AperFunction,Plated,PTH,ComponentDrill
T8C1.100
%
G90
G05
T1
X116.623Y-71.764
X124.85Y-67.8
X140.95Y-42.855
X150.938Y-44.05
T2
X91.0Y-72.9
X91.0Y-74.3
X91.7Y-72.2
X91.7Y-73.6
X91.7Y-75.0
X92.4Y-72.9
X92.4Y-74.3
X93.1Y-72.2
X93.1Y-73.6
X93.1Y-75.0
X93.8Y-72.9
X93.8Y-74.3
T3
X57.849Y-87.311
X67.964Y-107.43
X72.984Y-109.784
X76.8Y-70.4
X78.0Y-76.4
X78.0Y-86.0
X78.0Y-92.001
X81.8Y-66.48
X84.699Y-68.74
X85.15Y-65.88
X85.15Y-67.15
X85.15Y-68.42
X85.15Y-73.5
X85.15Y-79.85
X85.508Y-72.55
X86.8Y-75.0
X87.249Y-70.551
X87.4Y-73.4
X87.6Y-77.8
X88.4Y-71.0
X89.455Y-83.64
X89.573Y-76.027
X90.0Y-94.2
X90.125Y-100.0
X91.448Y-80.552
X91.995Y-83.64
X94.535Y-83.64
X97.075Y-83.64
X98.803Y-84.89
X102.276Y-83.676
X104.575Y-72.501
X104.8Y-76.2
X105.8Y-71.614
X107.0Y-74.0
X107.15Y-81.8
X108.276Y-79.476
X110.092Y-75.292
X111.8Y-71.614
X117.227Y-75.627
X117.4Y-71.201
X118.042Y-67.342
X118.562Y-73.24
X118.562Y-73.24
X119.4Y-70.6
X120.462Y-73.24
X121.075Y-57.925
X121.8Y-67.976
X123.0Y-65.6
X124.0Y-61.0
X125.225Y-74.2
X127.176Y-54.776
X127.6Y-60.8
X127.8Y-62.35
X128.4Y-62.6
X128.4Y-62.6
X130.0Y-59.8
X130.475Y-65.925
X131.524Y-52.124
X131.975Y-48.6
X133.488Y-48.463
X134.0Y-51.0
X134.624Y-53.024
X134.8Y-45.8
X137.4Y-46.8
X137.524Y-46.124
X138.8Y-42.855
X139.4Y-50.2
X140.35Y-44.8
X142.424Y-45.776
X142.814Y-44.215
X143.6Y-42.855
X146.6Y-42.6
X146.6Y-57.4
X147.2Y-43.6
X147.6Y-43.2
X148.2Y-47.0
X148.662Y-44.05
X148.662Y-45.0
X149.739Y-42.974
T5
X140.6Y-59.0
X141.87Y-59.0
X143.14Y-59.0
T6
X133.06Y-57.6
X135.6Y-57.6
T7
X57.8Y-49.6
X59.0Y-100.06
X59.0Y-102.6
X59.0Y-105.14
X59.0Y-107.68
X59.0Y-110.22
X59.0Y-112.76
X59.0Y-115.3
X59.0Y-117.84
X59.0Y-120.38
X59.0Y-122.92
X59.0Y-125.46
X59.0Y-128.0
X59.0Y-130.54
X59.0Y-133.08
X65.4Y-49.6
T8
X75.15Y-67.35
X75.15Y-73.85
X79.65Y-67.35
X79.65Y-73.85
X121.75Y-45.35
X121.75Y-51.85
X126.25Y-45.35
X126.25Y-51.85
T4
G00X136.88Y-42.945
M15
G01X136.88Y-44.045
M16
G05
G00X136.88Y-47.375
M15
G01X136.88Y-47.975
M16
G05
G00X145.52Y-42.945
M15
G01X145.52Y-44.045
M16
G05
G00X145.52Y-47.375
M15
G01X145.52Y-47.975
M16
G05
M30
